<?xml version="1.0" encoding="UTF-8"?>
<svg width="373px" height="38px" viewBox="0 0 373 38" version="1.1" xmlns="http://www.w3.org/2000/svg" xmlns:xlink="http://www.w3.org/1999/xlink">
    <title>切片</title>
    <g id="安徽工程造价评优" stroke="none" stroke-width="1" fill="none" fill-rule="evenodd">
        <g id="表单" transform="translate(-30.000000, -11.000000)">
            <g id="标题" transform="translate(30.000000, 11.000000)">
                <g id="安徽省工程造价咨询行业评优系统" transform="translate(54.957500, 7.873125)" fill="#FFFFFF" fill-rule="nonzero">
                    <path d="M0,10.3075 L0,7.81375 L2.078125,7.81375 L2.078125,7.730625 L2.078125,5.81875 L5.901875,5.81875 L5.901875,7.81375 L13.383125,7.81375 L13.383125,5.81875 L17.206875,5.81875 L17.206875,7.730625 L17.206875,7.81375 L19.45125,7.81375 L19.45125,10.3075 L17.040625,10.3075 C16.6527083,13.0229167 15.3504167,15.0179167 13.13375,16.2925 C14.79625,16.625 16.8189583,16.9020833 19.201875,17.12375 L19.201875,19.201875 C15.211875,18.8139583 12.0254167,18.2597917 9.6425,17.539375 C7.25958333,18.2597917 4.073125,18.8139583 0.083125,19.201875 L0.083125,17.12375 C2.46604167,16.9020833 4.48875,16.625 6.15125,16.2925 C3.93458333,15.0179167 2.63229167,13.0229167 2.244375,10.3075 L0,10.3075 Z M18.62,1.33 L18.62,5.236875 L15.045625,5.236875 L15.045625,3.82375 L4.239375,3.82375 L4.239375,5.236875 L0.665,5.236875 L0.665,1.33 L7.48125,1.33 L7.48125,0.083125 L11.720625,0.083125 L11.720625,1.33 L18.62,1.33 Z M5.985,10.3075 C6.26208333,12.46875 7.48125,14.0758333 9.6425,15.12875 C11.80375,14.0758333 13.0229167,12.46875 13.3,10.3075 L5.985,10.3075 Z" id="安"></path>
                    <path d="M21.196875,11.6375 L21.196875,9.6425 C22.4160417,8.58958333 23.2195833,7.20416667 23.6075,5.48625 L26.350625,5.48625 L26.184375,5.901875 L33.499375,5.901875 L33.499375,7.896875 L30.673125,7.896875 C30.174375,8.50645833 29.5925,9.00520833 28.9275,9.393125 C29.4816667,9.393125 29.9804167,9.393125 30.42375,9.393125 C30.5345833,9.28229167 30.6454167,9.14375 30.75625,8.9775 C30.9225,8.81125 31.0333333,8.70041667 31.08875,8.645 L33.915,8.645 C33.1945833,9.6425 32.3910417,10.5014583 31.504375,11.221875 L33.333125,11.221875 C33.8872917,12.1085417 34.3029167,13.216875 34.58,14.546875 L32.335625,14.546875 C32.335625,14.380625 32.3079167,14.2697917 32.2525,14.214375 C31.92,14.214375 31.5875,14.2420833 31.255,14.2975 L31.255,16.79125 C31.3104167,18.3429167 30.506875,19.0910417 28.844375,19.035625 L27.846875,19.035625 L27.846875,17.12375 L28.09625,17.12375 C28.6504167,17.1791667 28.8997917,16.9575 28.844375,16.45875 L28.844375,14.380625 C28.0685417,14.380625 27.09875,14.380625 25.935,14.380625 L25.935,12.46875 C26.76625,12.0254167 27.514375,11.6097917 28.179375,11.221875 C27.5697917,11.221875 26.849375,11.221875 26.018125,11.221875 L26.018125,9.393125 C26.849375,8.894375 27.4589583,8.395625 27.846875,7.896875 L26.184375,7.896875 L26.184375,5.985 C25.9627083,6.87166667 25.685625,7.6475 25.353125,8.3125 L25.353125,19.285 L22.44375,19.285 L22.44375,11.13875 C22.0558333,11.305 21.6402083,11.47125 21.196875,11.6375 Z M33.25,14.79625 C33.3608333,15.5166667 33.6933333,16.0985417 34.2475,16.541875 C34.9125,15.710625 35.4389583,14.9347917 35.826875,14.214375 C34.9402083,12.2747917 34.3860417,10.0027083 34.164375,7.398125 C34.1089583,7.398125 34.0535417,7.42583333 33.998125,7.48125 C33.8872917,7.53666667 33.8041667,7.59208333 33.74875,7.6475 L33.74875,5.48625 C34.5245833,4.43333333 34.995625,2.68770833 35.161875,0.249375 L37.821875,0.249375 C37.7664583,0.969791667 37.6833333,1.6625 37.5725,2.3275 L40.814375,2.3275 L40.814375,4.655 L40.149375,4.655 C40.2047917,8.86666667 39.6229167,12.0808333 38.40375,14.2975 C39.0133333,15.2395833 39.6783333,16.12625 40.39875,16.9575 L40.39875,19.368125 C39.1795833,18.3152083 38.0989583,17.3177083 37.156875,16.375625 C36.1039583,17.4839583 35.0510417,18.45375 33.998125,19.285 L33.998125,17.78875 C32.4464583,17.45625 31.5320833,16.45875 31.255,14.79625 L33.25,14.79625 Z M21.196875,6.3175 L21.196875,4.405625 C22.360625,3.46354167 23.1641667,2.05041667 23.6075,0.16625 L26.43375,0.16625 C26.43375,0.221666667 26.4060417,0.304791667 26.350625,0.415625 C26.350625,0.581875 26.3229167,0.692708333 26.2675,0.748125 L28.179375,0.748125 L28.179375,3.325 L28.844375,3.325 L28.844375,0.083125 L31.171875,0.083125 L31.171875,3.325 C31.6152083,3.38041667 31.8091667,3.075625 31.75375,2.410625 L31.75375,0.748125 L33.831875,0.748125 L33.831875,2.9925 C33.8872917,4.655 33.1391667,5.45854167 31.5875,5.403125 L26.184375,5.403125 L26.184375,1.080625 C25.4085417,3.85145833 23.7460417,5.59708333 21.196875,6.3175 Z M26.683125,14.79625 L28.678125,14.79625 C28.4010417,16.5695833 27.348125,17.7333333 25.519375,18.2875 L25.519375,16.874375 C26.1289583,16.209375 26.516875,15.5166667 26.683125,14.79625 Z M36.575,6.068125 C36.6304167,8.00770833 36.824375,9.58708333 37.156875,10.80625 C37.489375,9.31 37.6833333,7.25958333 37.73875,4.655 L36.824375,4.655 C36.6027083,5.20916667 36.2979167,5.68020833 35.91,6.068125 L36.575,6.068125 Z M29.343125,12.46875 C30.5622917,12.46875 31.42125,12.4410417 31.92,12.385625 C31.75375,12.053125 31.5875,11.6652083 31.42125,11.221875 C30.8670833,11.720625 30.174375,12.13625 29.343125,12.46875 Z" id="徽"></path>
                    <path d="M44.804375,18.78625 L44.804375,9.060625 C44.5827083,9.11604167 44.2225,9.14375 43.72375,9.14375 C43.225,9.19916667 42.8647917,9.226875 42.643125,9.226875 L42.643125,7.231875 C47.4089583,7.01020833 50.8447917,6.400625 52.950625,5.403125 L50.456875,5.403125 L50.456875,0 L54.03125,0 L54.03125,4.904375 C54.36375,4.62729167 54.7239583,4.37791667 55.111875,4.15625 L57.35625,4.15625 C56.2479167,3.49125 55.4166667,2.410625 54.8625,0.914375 L58.436875,0.914375 C58.935625,2.410625 60.0439583,3.325 61.761875,3.6575 L61.761875,5.48625 C60.6535417,5.32 59.68375,5.12604167 58.8525,4.904375 C57.02375,6.234375 55.3335417,7.14875 53.781875,7.6475 L60.598125,7.6475 L60.598125,15.378125 C60.7089583,17.7610417 59.600625,18.8970833 57.273125,18.78625 L44.804375,18.78625 Z M49.5425,0.914375 C48.6558333,3.62979167 46.3560417,5.15375 42.643125,5.48625 L42.643125,3.6575 C44.3610417,3.325 45.469375,2.410625 45.968125,0.914375 L49.5425,0.914375 Z M48.129375,12.635 L48.129375,13.881875 L57.35625,13.881875 L57.35625,12.635 L48.129375,12.635 Z M56.35875,16.874375 C57.0791667,16.9297917 57.4116667,16.5972917 57.35625,15.876875 L57.35625,15.710625 L48.129375,15.710625 L48.129375,16.874375 L56.35875,16.874375 Z M57.35625,9.6425 L48.129375,9.6425 L48.129375,10.80625 L57.35625,10.80625 L57.35625,9.6425 Z" id="省"></path>
                    <polygon id="工" points="64.00625 18.038125 64.00625 15.6275 71.4875 15.6275 71.4875 3.99 65.00375 3.99 65.00375 1.49625 81.878125 1.49625 81.878125 3.99 75.4775 3.99 75.4775 15.6275 82.95875 15.6275 82.95875 18.038125"></polygon>
                    <path d="M104.488125,16.45875 L104.488125,18.62 L91.77,18.62 L91.77,16.45875 L96.425,16.45875 L96.425,14.63 L92.7675,14.63 L92.7675,12.3025 L96.425,12.3025 L96.425,10.80625 L92.518125,10.80625 L92.518125,8.47875 L104.155625,8.47875 L104.155625,10.80625 L99.999375,10.80625 L99.999375,12.3025 L103.74,12.3025 L103.74,14.63 L99.999375,14.63 L99.999375,16.45875 L104.488125,16.45875 Z M85.203125,7.398125 L85.203125,5.236875 L87.364375,5.236875 L87.364375,3.15875 L85.4525,3.15875 L85.4525,0.914375 L89.27625,0.914375 C90.1629167,0.914375 91.188125,0.748125 92.351875,0.415625 L92.351875,2.743125 C91.7977083,2.96479167 91.188125,3.10333333 90.523125,3.15875 L90.523125,5.236875 L92.26875,5.236875 L92.26875,7.398125 L90.60625,7.398125 C90.93875,8.78354167 91.4652083,10.0027083 92.185625,11.055625 L92.185625,13.965 C91.520625,13.3 90.9664583,12.718125 90.523125,12.219375 L90.523125,19.285 L87.364375,19.285 L87.364375,13.13375 C86.865625,13.965 86.0897917,14.9902083 85.036875,16.209375 L85.036875,12.9675 C86.034375,11.0833333 86.7547917,9.226875 87.198125,7.398125 L85.203125,7.398125 Z M103.57375,0.83125 L103.57375,4.655 C103.629167,6.59458333 102.714792,7.53666667 100.830625,7.48125 L92.93375,7.48125 L92.93375,0.83125 L103.57375,0.83125 Z M96.0925,3.075625 L96.0925,5.236875 L99.58375,5.236875 C100.24875,5.236875 100.553542,4.93208333 100.498125,4.3225 L100.498125,3.075625 L96.0925,3.075625 Z" id="程"></path>
                    <path d="M106.4,8.395625 L106.4,6.068125 L111.3875,6.068125 L111.3875,14.048125 C111.442917,15.7660417 112.301875,16.625 113.964375,16.625 L125.601875,16.625 L125.601875,18.869375 L113.54875,18.869375 C112.0525,18.869375 110.944167,18.4260417 110.22375,17.539375 C109.3925,18.4260417 108.145625,18.9247917 106.483125,19.035625 L106.483125,17.206875 C107.480625,16.8189583 107.951667,16.0985417 107.89625,15.045625 L107.89625,8.395625 L106.4,8.395625 Z M111.969375,8.063125 L111.969375,5.735625 L117.3725,5.735625 L117.3725,4.15625 L114.961875,4.15625 C114.296875,4.76583333 113.3825,5.236875 112.21875,5.569375 L112.21875,3.574375 C112.939167,2.85395833 113.354792,1.911875 113.465625,0.748125 L116.458125,0.748125 C116.402708,1.13604167 116.319583,1.49625 116.20875,1.82875 L117.3725,1.82875 L117.3725,0.083125 L120.780625,0.083125 L120.780625,1.82875 L124.85375,1.82875 L124.85375,4.15625 L120.780625,4.15625 L120.780625,5.735625 L125.51875,5.735625 L125.51875,8.063125 L111.969375,8.063125 Z M113.05,15.6275 L113.05,9.060625 L124.604375,9.060625 L124.604375,12.551875 C124.715208,14.713125 123.773125,15.7383333 121.778125,15.6275 L113.05,15.6275 Z M110.473125,0.49875 C111.138125,1.88416667 111.609167,3.26958333 111.88625,4.655 L108.478125,4.655 C108.311875,3.26958333 107.923958,1.88416667 107.314375,0.49875 L110.473125,0.49875 Z M121.279375,11.305 L116.375,11.305 L116.375,13.383125 L120.281875,13.383125 C121.002292,13.4385417 121.334792,13.0783333 121.279375,12.3025 L121.279375,11.305 Z" id="造"></path>
                    <path d="M138.901875,7.315 L138.901875,12.884375 C139.068125,16.043125 137.461042,18.1766667 134.080625,19.285 L134.080625,17.040625 C135.078125,16.209375 135.549167,15.0179167 135.49375,13.46625 L135.49375,7.315 C134.884167,7.53666667 134.16375,7.78604167 133.3325,8.063125 L133.3325,5.901875 C135.9925,4.405625 137.738125,2.46604167 138.569375,0.083125 L141.9775,0.083125 C142.864167,2.46604167 144.609792,4.405625 147.214375,5.901875 L147.214375,8.063125 C144.000208,7.12104167 141.700417,5.735625 140.315,3.906875 C138.929583,5.51395833 137.350208,6.65 135.576875,7.315 L138.901875,7.315 Z M129.50875,19.11875 L129.50875,7.81375 C128.954583,8.09083333 128.289583,8.3125 127.51375,8.47875 L127.51375,6.400625 C129.120833,5.403125 130.229167,3.325 130.83875,0.16625 L134.33,0.16625 C133.886667,1.88416667 133.415625,3.325 132.916875,4.48875 L132.916875,19.11875 L129.50875,19.11875 Z M144.720625,7.315 L144.720625,18.869375 L141.3125,18.869375 L141.3125,7.315 L144.720625,7.315 Z" id="价"></path>
                    <path d="M150.78875,18.78625 L150.78875,11.221875 L166.41625,11.221875 L166.41625,15.544375 C166.41625,17.7610417 165.41875,18.8416667 163.42375,18.78625 L150.78875,18.78625 Z M160.846875,8.395625 C159.350625,9.78104167 157.023125,10.5845833 153.864375,10.80625 L153.864375,8.81125 C157.411042,8.14625 159.10125,6.733125 158.935,4.571875 L158.935,4.073125 L162.5925,4.073125 L162.5925,4.738125 C162.5925,6.899375 164.365833,8.25708333 167.9125,8.81125 L167.9125,10.889375 C164.642917,10.6122917 162.287708,9.78104167 160.846875,8.395625 Z M153.9475,3.740625 C155.166667,3.02020833 155.914792,1.82875 156.191875,0.16625 L159.76625,0.16625 C159.710833,0.49875 159.6,0.83125 159.43375,1.16375 L167.663125,1.16375 L167.663125,5.32 L164.504375,5.32 L164.504375,3.408125 L158.27,3.408125 C157.2725,4.571875 155.831667,5.32 153.9475,5.6525 L153.9475,3.740625 Z M162.925,13.6325 L154.28,13.6325 L154.28,16.541875 L161.844375,16.541875 C162.564792,16.541875 162.925,16.1539583 162.925,15.378125 L162.925,13.6325 Z M152.285,10.64 L148.79375,10.64 C149.79125,8.86666667 150.45625,7.01020833 150.78875,5.070625 L153.698125,5.070625 C153.587292,7.065625 153.11625,8.92208333 152.285,10.64 Z M152.368125,0.16625 C153.033125,1.21916667 153.504167,2.38291667 153.78125,3.6575 L150.373125,3.6575 C150.151458,2.3275 149.763542,1.16375 149.209375,0.16625 L152.368125,0.16625 Z" id="咨"></path>
                    <path d="M175.56,4.571875 C176.89,3.51895833 177.776667,2.078125 178.22,0.249375 L181.628125,0.249375 C181.572708,0.415625 181.517292,0.609583333 181.461875,0.83125 C181.461875,0.9975 181.37875,1.30229167 181.2125,1.745625 L188.943125,1.745625 L188.943125,15.710625 C189.053958,17.9827083 188.001042,19.0633333 185.784375,18.9525 L183.2075,18.9525 L183.2075,16.79125 L184.620625,16.79125 C185.396458,16.8466667 185.756667,16.4864583 185.70125,15.710625 L185.70125,4.15625 L179.799375,4.15625 C179.300625,4.71041667 178.607917,5.20916667 177.72125,5.6525 L184.620625,5.6525 L184.620625,13.881875 C184.676042,15.8214583 183.733958,16.7635417 181.794375,16.708125 L176.5575,16.708125 L176.5575,6.15125 C176.446667,6.15125 176.280417,6.20666667 176.05875,6.3175 C175.837083,6.37291667 175.670833,6.42833333 175.56,6.48375 L175.56,4.571875 Z M174.811875,14.2975 C175.366042,14.0204167 175.837083,13.7433333 176.225,13.46625 L176.225,16.209375 C174.950417,17.3177083 173.39875,18.204375 171.57,18.869375 L171.57,8.14625 L170.24,8.14625 L170.24,5.81875 L174.811875,5.81875 L174.811875,14.2975 Z M173.8975,0.3325 C174.673333,1.6625 175.172083,3.02020833 175.39375,4.405625 L172.235,4.405625 C171.957917,2.96479167 171.486875,1.60708333 170.821875,0.3325 L173.8975,0.3325 Z M180.963125,14.46375 C181.461875,14.46375 181.71125,14.1866667 181.71125,13.6325 L181.71125,12.13625 L179.466875,12.13625 L179.466875,14.46375 L180.963125,14.46375 Z M179.466875,7.896875 L179.466875,9.975 L181.71125,9.975 L181.71125,7.896875 L179.466875,7.896875 Z" id="询"></path>
                    <path d="M199.1675,8.561875 L199.1675,6.15125 L210.721875,6.15125 L210.721875,8.561875 L208.145,8.561875 L208.145,15.96 C208.145,18.0104167 207.1475,19.0079167 205.1525,18.9525 L201.744375,18.9525 L201.744375,16.79125 L203.49,16.79125 C204.099583,16.79125 204.404375,16.4310417 204.404375,15.710625 L204.404375,8.561875 L199.1675,8.561875 Z M191.68625,11.720625 L191.68625,9.725625 C193.459583,9.11604167 194.623333,7.730625 195.1775,5.569375 L198.835,5.569375 C198.33625,6.95479167 197.726667,8.11854167 197.00625,9.060625 L197.00625,19.201875 L193.598125,19.201875 L193.598125,11.305 C193.043958,11.47125 192.406667,11.6097917 191.68625,11.720625 Z M199.8325,3.49125 L199.8325,1.080625 L210.14,1.080625 L210.14,3.49125 L199.8325,3.49125 Z M191.68625,6.400625 L191.68625,4.3225 C193.404167,3.82375 194.567917,2.43833333 195.1775,0.16625 L198.835,0.16625 C197.726667,3.87916667 195.34375,5.95729167 191.68625,6.400625 Z" id="行"></path>
                    <path d="M231.91875,16.209375 L231.91875,18.45375 L213.049375,18.45375 L213.049375,16.209375 L217.95375,16.209375 L217.95375,0.249375 L221.528125,0.249375 L221.528125,16.209375 L223.44,16.209375 L223.44,0.249375 L226.93125,0.249375 L226.93125,16.209375 L231.91875,16.209375 Z M231.91875,3.574375 C231.58625,7.17645833 231.004375,10.3075 230.173125,12.9675 L227.180625,12.9675 C227.845625,10.0304167 228.316667,6.899375 228.59375,3.574375 L231.91875,3.574375 Z M212.96625,3.574375 L216.29125,3.574375 C216.568333,7.231875 217.039375,10.3629167 217.704375,12.9675 L214.711875,12.9675 C213.880625,10.3075 213.29875,7.17645833 212.96625,3.574375 Z" id="业"></path>
                    <path d="M240.3975,3.325 L240.3975,0.9975 L252.783125,0.9975 L252.783125,3.325 L248.294375,3.325 L248.294375,10.64 L253.448125,10.64 L253.448125,12.9675 L248.294375,12.9675 L248.294375,19.201875 L244.803125,19.201875 L244.803125,12.9675 L239.649375,12.9675 L239.649375,10.64 L244.803125,10.64 L244.803125,3.325 L240.3975,3.325 Z M238.818125,14.380625 C239.206042,14.214375 239.7325,13.9095833 240.3975,13.46625 L240.3975,16.2925 C238.735,17.5116667 237.0725,18.3983333 235.41,18.9525 L235.41,8.14625 L234.08,8.14625 L234.08,5.81875 L238.818125,5.81875 L238.818125,14.380625 Z M237.820625,0.3325 C238.485625,1.44083333 238.984375,2.82625 239.316875,4.48875 L236.158125,4.48875 C235.881042,3.10333333 235.41,1.71791667 234.745,0.3325 L237.820625,0.3325 Z M252.616875,4.571875 C252.395208,6.51145833 252.007292,8.09083333 251.453125,9.31 L248.87625,9.31 C249.20875,8.3125 249.513542,6.733125 249.790625,4.571875 L252.616875,4.571875 Z M240.56375,4.571875 L243.39,4.571875 C243.500833,6.234375 243.777917,7.84145833 244.22125,9.393125 L241.644375,9.393125 C241.034792,7.730625 240.674583,6.12354167 240.56375,4.571875 Z" id="评"></path>
                    <path d="M270.571875,7.6475 L270.571875,15.6275 C270.516458,16.2370833 270.765833,16.5141667 271.32,16.45875 L271.48625,16.45875 C271.929583,16.45875 272.15125,16.1816667 272.15125,15.6275 L272.15125,14.46375 L274.561875,14.46375 L274.561875,16.043125 C274.617292,17.871875 273.758333,18.7585417 271.985,18.703125 L269.99,18.703125 C268.050417,18.8139583 267.108333,17.871875 267.16375,15.876875 L267.16375,9.725625 C266.609583,13.6602083 264.586875,16.8466667 261.095625,19.285 L261.095625,16.541875 C263.035208,13.6602083 264.032708,10.1966667 264.088125,6.15125 L261.095625,6.15125 L261.095625,3.82375 L264.17125,3.82375 L264.17125,0.083125 L267.6625,0.083125 L267.6625,3.82375 L274.229375,3.82375 L274.229375,6.15125 L267.579375,6.15125 C267.579375,6.3175 267.551667,6.566875 267.49625,6.899375 C267.49625,7.231875 267.468542,7.48125 267.413125,7.6475 L270.571875,7.6475 Z M257.18875,19.201875 L257.18875,7.896875 C256.634583,8.11854167 255.969583,8.3125 255.19375,8.47875 L255.19375,6.400625 C256.911667,5.29229167 258.103125,3.21416667 258.768125,0.16625 L262.17625,0.16625 C261.732917,2.05041667 261.206458,3.574375 260.596875,4.738125 L260.596875,19.201875 L257.18875,19.201875 Z M271.735625,0.49875 C272.178958,1.49625 272.48375,2.46604167 272.65,3.408125 L269.574375,3.408125 C269.518958,2.52145833 269.297292,1.55166667 268.909375,0.49875 L271.735625,0.49875 Z" id="优"></path>
                    <path d="M277.47125,0.9975 L288.859375,0.9975 C291.131458,0.9975 293.292708,0.775833333 295.343125,0.3325 L295.343125,2.909375 C293.292708,3.408125 291.325417,3.62979167 289.44125,3.574375 L288.44375,3.574375 C287.002917,4.46104167 285.534375,5.15375 284.038125,5.6525 C285.756042,5.6525 287.141458,5.59708333 288.194375,5.48625 C288.693125,5.20916667 289.191875,4.904375 289.690625,4.571875 L295.010625,4.571875 C291.796458,6.95479167 288.194375,8.83895833 284.204375,10.224375 C286.698125,10.224375 289.081042,10.14125 291.353125,9.975 C291.186875,9.36541667 290.9375,8.70041667 290.605,7.98 L293.5975,7.98 C294.484167,9.80875 295.066042,11.4989583 295.343125,13.050625 L292.10125,13.050625 C292.10125,12.9397917 292.10125,12.80125 292.10125,12.635 C292.045833,12.46875 292.018125,12.3579167 292.018125,12.3025 C291.630208,12.3025 291.020625,12.3302083 290.189375,12.385625 C289.358125,12.385625 288.720833,12.4133333 288.2775,12.46875 L288.2775,16.375625 C288.2775,18.3152083 287.307708,19.2572917 285.368125,19.201875 L283.040625,19.201875 L283.040625,16.9575 L283.78875,16.9575 C284.342917,16.9575 284.62,16.6804167 284.62,16.12625 L284.62,12.551875 C284.176667,12.551875 283.511667,12.551875 282.625,12.551875 C280.685417,12.6072917 279.106042,12.6072917 277.886875,12.551875 L277.886875,10.14125 C279.826458,9.53166667 281.79375,8.75583333 283.78875,7.81375 C282.181667,7.86916667 280.380625,7.896875 278.385625,7.896875 L278.385625,5.6525 C279.992708,5.09833333 281.572083,4.405625 283.12375,3.574375 L277.47125,3.574375 L277.47125,0.9975 Z M292.43375,13.216875 C292.987917,14.879375 294.09625,16.0708333 295.75875,16.79125 L295.75875,18.62 C292.156667,18.0658333 289.884583,16.2647917 288.9425,13.216875 L292.43375,13.216875 Z M280.13125,13.216875 L283.6225,13.216875 C282.680417,16.2647917 280.408333,18.0658333 276.80625,18.62 L276.80625,16.79125 C278.46875,16.0708333 279.577083,14.879375 280.13125,13.216875 Z" id="系"></path>
                    <path d="M304.57,3.906875 L304.57,1.579375 L308.975625,1.579375 L308.975625,0.16625 L312.633125,0.16625 L312.633125,1.579375 L316.955625,1.579375 L316.955625,3.906875 L311.5525,3.906875 C310.665833,5.569375 309.612917,6.84395833 308.39375,7.730625 C310.665833,7.730625 312.38375,7.67520833 313.5475,7.564375 C313.325833,6.84395833 313.021042,6.068125 312.633125,5.236875 L315.37625,5.236875 C316.262917,6.95479167 316.8725,8.728125 317.205,10.556875 L314.37875,10.556875 C314.267917,10.224375 314.2125,9.975 314.2125,9.80875 L313.71375,9.80875 L313.71375,15.79375 C313.71375,16.3479167 313.963125,16.625 314.461875,16.625 C314.905208,16.625 315.126875,16.3479167 315.126875,15.79375 L315.126875,14.879375 L317.288125,14.879375 L317.288125,16.625 C317.288125,18.0658333 316.512292,18.78625 314.960625,18.78625 L313.215,18.78625 C311.441667,18.8416667 310.582708,18.038125 310.638125,16.375625 L310.638125,10.14125 C310.527292,10.14125 310.361042,10.1689583 310.139375,10.224375 C309.917708,10.224375 309.779167,10.224375 309.72375,10.224375 L309.72375,11.886875 C309.89,15.2672917 308.033542,17.7333333 304.154375,19.285 L304.154375,17.12375 C304.320625,17.0129167 304.486875,16.874375 304.653125,16.708125 C302.713542,17.2622917 300.496875,17.539375 298.003125,17.539375 L298.003125,15.211875 C300.552292,15.2672917 302.824375,15.045625 304.819375,14.546875 L304.819375,16.541875 C306.038542,15.4335417 306.620417,13.8264583 306.565,11.720625 L306.565,10.3075 L304.9025,10.3075 L304.9025,7.730625 C306.06625,6.62229167 307.008333,5.34770833 307.72875,3.906875 L304.57,3.906875 Z M305.151875,4.073125 C304.542292,6.899375 303.212292,9.33770833 301.161875,11.388125 C302.270208,11.388125 303.40625,11.2772917 304.57,11.055625 L304.57,13.3 C302.796667,13.7433333 300.690833,13.9372917 298.2525,13.881875 L298.2525,11.388125 C299.25,10.390625 300.053542,9.33770833 300.663125,8.229375 C299.831875,8.34020833 298.9175,8.36791667 297.92,8.3125 L297.92,5.985 C298.972917,4.3225 299.665625,2.38291667 299.998125,0.16625 L303.07375,0.16625 C302.685833,2.27208333 301.826875,4.21166667 300.496875,5.985 C300.884792,5.985 301.272708,5.95729167 301.660625,5.901875 C301.882292,5.34770833 302.07625,4.738125 302.2425,4.073125 L305.151875,4.073125 Z" id="统"></path>
                </g>
                <g id="logo">
                    <path d="M30.8594071,3.25559257 C31.6059064,3.81429992 32.3058995,4.4330067 32.9524659,5.10559597 C39.5533558,12.0337661 39.5533558,22.9483512 32.9524659,29.8765214 C30.0574696,32.9038115 26.1325999,34.7257474 21.9594018,34.9795336 C22.3352771,35.119059 22.7574931,35.3309308 23.0200909,35.4187802 C23.5349885,35.591895 23.9958219,35.8657782 24.4566553,36.0647311 C24.8659989,36.2430135 26.9667811,37.459985 26.9667811,37.7674577 C26.9667811,37.8992317 26.8638016,37.9302373 26.781418,38 L26.3669254,38 C25.9550073,37.7131978 25.6228984,37.3669681 25.2187037,37.0620793 C24.9226376,36.8372884 24.2841646,36.4497178 23.9443321,36.2533487 C23.6044997,36.0569797 21.7894856,35.1629836 21.1870554,35.0053716 L20.8111802,35.0053716 C20.193303,35.1603998 18.4143318,36.038893 18.0616269,36.2533487 C17.708922,36.4678044 17.1193643,36.8243693 16.7743829,37.0620793 C16.3624648,37.3592167 16.0355048,37.7131978 15.6261612,38 L15.2245411,38 C15.1421574,37.9302373 15.0391779,37.8992317 15.0391779,37.7674577 C15.0391779,37.2868702 18.4503746,35.47304 19.9796205,34.9743659 C15.8278616,34.7078407 11.926522,32.8888637 9.04576969,29.8765214 C2.44487977,22.9483512 2.44487977,12.0337661 9.04576969,5.10559597 C9.64480194,4.48349345 10.2903011,3.90821608 10.9766357,3.38478276 L10.930295,3.38478276 C11.141403,0.594274835 12.3565613,1.15754403 14.8486658,0.11368736 C14.9593688,1.14720881 13.2318873,3.37444754 11.3190427,3.40286938 C10.5640709,3.9608905 9.85704322,4.58145416 9.20538795,5.25804039 C2.6865564,12.1002635 2.6865564,22.87927 9.20538795,29.7214932 C12.2840935,32.9560655 16.5471847,34.7859044 21.0042668,34.7859044 C25.4613488,34.7859044 29.72444,32.9560655 32.8031456,29.7214932 C39.3180299,22.8776814 39.3180299,12.1018522 32.8031456,5.25804039 C32.1474107,4.58028871 31.4370109,3.95805999 30.6791929,3.39770177 C28.6916881,3.52947576 26.8354822,1.18338206 26.9513342,0.11368736 C29.4099703,1.14720881 30.6199797,0.609777657 30.8594071,3.25559257 Z M32.5559947,3.87570545 L32.5559947,3.87570545 C33.5265767,2.58380363 32.610059,0.343645883 31.8248401,0 C31.5957107,2.0670429 30.7667255,2.68457197 32.5559947,3.87570545 Z M34.1573263,6.02801387 L34.1573263,6.02801387 C35.3853571,4.99449242 34.9863115,2.59413885 34.2937742,2.09546474 C33.6141093,4.06949072 32.6718467,4.4828993 34.1573263,6.02801387 Z M32.8700823,6.1882097 L32.8700823,6.1882097 C32.3011204,4.17025906 31.4953056,4.7645339 29.5026519,4.37954715 C29.5798865,5.21153192 31.4000496,6.72564085 32.8700823,6.1882097 Z M34.556372,8.85211124 L34.556372,8.85211124 C34.1856457,6.78506833 33.3231922,7.30182906 31.3794537,6.71788944 C31.3794537,7.55245801 33.042573,9.23709798 34.556372,8.85211124 Z M35.9079782,8.42319984 L35.9079782,8.42319984 C37.1952222,7.34575372 36.7704317,4.842048 36.0470005,4.32270347 C35.3390163,6.38974638 34.3555619,6.81090637 35.9079782,8.42319984 Z M36.9892632,10.8958999 L36.9892632,10.8958999 C38.5648499,10.3403821 39.0488536,7.85217923 38.5622754,7.11062759 C37.1746263,8.78493235 36.1062138,8.83660842 36.9892632,10.8958999 Z M36.3559391,12.2756511 L36.3559391,12.2756511 C36.4305993,9.95022778 35.3776337,10.3067927 33.4055758,9.21901136 C33.2099147,10.1233426 34.6233086,12.3376623 36.3559391,12.2756511 Z M38.0782716,13.8414361 L38.0782716,13.8414361 C39.8804133,13.210988 40.4236303,10.3868906 39.8649664,9.54715442 C38.2919541,11.4462501 37.0767958,11.5056776 38.0782716,13.8414361 Z M37.0124336,15.4227239 L37.0124336,15.4227239 C37.3445425,13.1205548 36.2581086,13.355681 34.4173496,12.0637792 C34.123858,12.9396886 35.2849521,15.2987013 37.0124336,15.4227239 Z M38.4798918,16.7947236 L38.4798918,16.7947236 C40.4313537,16.4898348 41.5358091,13.6941592 41.1213165,12.7381519 C39.1518332,14.3866186 37.8980575,14.21092 38.4798918,16.7947236 Z M38.3717633,19.8048845 L38.3717633,19.8048845 C38.1966981,17.0401849 39.4633462,17.4251717 41.772662,16.0557558 C42.0301108,17.1228667 40.4365027,19.81519 38.3717633,19.8048845 Z M37.1977967,19.5103012 L37.1977967,19.5103012 C38.0473778,16.7456313 36.6674522,16.8257292 34.6542025,14.8594547 C34.123858,15.8800571 35.0995889,18.9935405 37.1977967,19.5103012 Z M37.5247567,23.1482967 L37.5247567,23.1482967 C39.6873267,23.5281159 41.8447477,20.9908207 41.7520661,19.8229415 C39.0900454,20.8564629 37.8311208,20.2182634 37.5247567,23.1482967 L37.5247567,23.1482967 Z M36.2993004,25.6287482 L36.2993004,25.6287482 C38.101442,26.8793092 41.118742,25.4763038 41.5229367,24.3756035 C38.6755529,24.1947372 37.7925035,23.0837016 36.2993004,25.6287482 Z M36.0856179,23.3265792 L36.0856179,23.3265792 C37.3265211,20.6910995 35.9388721,20.5748283 34.2088161,18.3346706 C33.5343002,19.2777589 34.0620702,22.5359353 36.0856179,23.3265792 Z M34.5100312,28.0833617 L34.5100312,28.0833617 C36.0135322,29.6879037 39.2548127,28.9541035 39.8778388,27.9645067 C37.136009,27.1893656 36.5026849,25.920718 34.5100312,28.0833617 Z M33.9256224,27.1041001 L33.9256224,27.1041001 C35.8642119,25.1119875 34.6490535,24.5719725 33.7840255,22.0088393 C32.8829547,22.6470388 32.3448867,25.7527708 33.9256224,27.1041001 Z M32.5765906,30.7214252 L32.5765906,30.7214252 C34.0826662,32.3233834 37.3213721,31.5895832 37.9469727,30.5999864 C35.2025685,29.8248453 34.5692444,28.5587815 32.5765906,30.7214252 Z M30.6354266,30.6594139 L30.6354266,30.6594139 C33.3334901,29.4114367 32.3217163,28.4037533 32.4375683,25.5073094 C31.2919211,25.7992793 29.5721631,28.7034745 30.6354266,30.6594139 Z M29.9609108,32.7471272 L29.9609108,32.7471272 C31.09626,34.8141701 34.646479,34.9097709 35.5526988,34.039029 C32.9164231,32.4887469 32.594612,31.026314 29.9609108,32.7471272 L29.9609108,32.7471272 Z M26.9667811,34.1553002 L26.9667811,34.1553002 C27.6618929,36.3515333 31.0499192,37.1292582 32.0848634,36.4807235 C29.8502078,34.4989461 29.8218884,33.0210104 26.9667811,34.1553002 Z M26.2124561,33.1863738 L26.2124561,33.1863738 C29.4511621,32.7471272 28.7097096,31.3596247 29.7549517,28.3494934 C28.4677077,28.2874822 25.7155799,30.7834365 26.2124561,33.1863738 Z M9.24400527,3.87570545 L9.24400527,3.87570545 C11.0461469,2.69490719 10.2042893,2.08771333 9.97515988,0 C9.20281346,0.333310668 8.27342327,2.58380363 9.24400527,3.87570545 Z M7.6400992,6.02801387 L7.6400992,6.02801387 C9.12815331,4.47773169 8.18589068,4.06949072 7.50622583,2.09546474 C6.81368853,2.59413885 6.41464288,4.99449242 7.6400992,6.02801387 Z M9.2388563,6.11069559 L9.2388563,6.11069559 C10.708889,6.64037533 12.5264776,5.1236826 12.6037122,4.30203305 C10.6136329,4.697355 9.80524367,4.10308017 9.2388563,6.11069559 Z M7.24877702,8.84177603 L7.24877702,8.84177603 C8.75227805,9.22676277 10.4282698,7.5421228 10.4256983,6.71788944 C8.4819568,7.30441286 7.6195033,6.78765214 7.24877702,8.85211124 L7.24877702,8.84177603 Z M5.89717078,8.41286462 L5.89717078,8.41286462 C7.44186362,6.80057116 6.46613265,6.37165975 5.75814843,4.31236826 C5.03471728,4.82912899 4.61765021,7.33541851 5.89717078,8.41286462 Z M4.81588579,10.8855647 L4.81588579,10.8855647 C5.6989352,8.81852179 4.63052265,8.77459713 3.24287358,7.10029238 C2.74857188,7.84184402 3.24287358,10.3300469 4.81588579,10.8855647 Z M5.60110465,12.2653158 L5.60110465,12.2653158 C7.33116064,12.3273271 8.74712907,10.1130074 8.54889349,9.20867614 C6.57683563,10.2964575 5.5264445,9.94247637 5.60110465,12.2653158 Z M3.72687734,13.8311008 L3.72687734,13.8311008 C4.7283532,11.5056776 3.51319483,11.4359149 1.94018262,9.5368192 C1.37894422,10.3765554 1.94018262,13.2006528 3.72687734,13.8311008 Z M4.7927154,15.4123887 L4.7927154,15.4123887 C6.5201969,15.2831985 7.68129101,12.9241858 7.38522489,12.0534439 C5.54704041,13.3453458 4.46060644,13.1153872 4.7927154,15.4123887 Z M3.31753374,16.7947236 L3.31753374,16.7947236 C1.36864627,16.4924186 0.256467425,13.7096621 0.678683468,12.7407357 C2.64816684,14.3866186 3.90194253,14.21092 3.31753374,16.7947236 Z M3.42823673,19.8048548 L3.42823673,19.8048548 C3.60330191,17.053104 2.33665378,17.4277555 0.0273379871,16.0583396 C-0.23011082,17.1254505 1.36349729,19.8177738 3.42823673,19.8074683 L3.42823673,19.8048548 Z M4.82618375,19.5103012 L4.82618375,19.5103012 C6.92696601,19.0167947 7.91556943,15.8929761 7.37235245,14.8594547 C5.35910278,16.815394 3.97917717,16.7352961 4.82618375,19.5103012 Z M4.2752433,23.1508805 L4.2752433,23.1508805 C3.96887922,20.2208472 2.70995455,20.8512953 0.0479338916,19.8255253 C-0.0447476788,20.9934045 2.10752435,23.5306997 4.2752433,23.1508805 L4.2752433,23.1508805 Z M5.49297616,25.6287482 L5.49297616,25.6287482 C3.99977308,23.0940369 3.11672367,24.1947372 0.269339865,24.3756035 C0.673534492,25.4763038 3.68568553,26.8715578 5.49297616,25.6287482 Z M5.70665867,23.3265792 L5.70665867,23.3265792 C7.72248282,22.5359353 8.25797634,19.2777589 7.58346047,18.3450058 C5.85340449,20.5851635 4.46575542,20.7014347 5.70665867,23.3369144 L5.70665867,23.3265792 Z M7.28224536,28.0833617 L7.28224536,28.0833617 C5.2895916,25.920718 4.65626753,27.184198 1.91443774,27.9645067 C2.53746385,28.9541035 5.77616984,29.6879037 7.28224536,28.0833617 Z M7.86665415,27.1041001 L7.86665415,27.1041001 C9.44738983,25.7527708 8.90932182,22.6470388 8.008251,22.0088393 C7.14322301,24.5719725 5.92549015,25.1094037 7.86665415,27.1041001 Z M9.2156859,30.7214252 L9.2156859,30.7214252 C7.22303214,28.5587815 6.58970807,29.8196777 3.84530379,30.5999864 C4.47090439,31.5895832 7.70703589,32.3233834 9.2156859,30.7214252 Z M11.2315101,30.5844836 L11.2315101,30.5844836 C12.2999226,28.6259604 10.5801646,25.7243489 9.42936841,25.4168763 C9.5400714,28.3133202 8.52829759,29.3210036 11.2315101,30.5844836 Z M11.9832606,32.5197525 L11.9832606,32.5197525 C9.34955928,30.8092745 9.02517379,32.2846264 6.388898,33.8116543 C7.29769229,34.6720609 10.8479113,34.5712926 11.9832606,32.5197525 Z M14.8151975,34.0028558 L14.8151975,34.0028558 C11.9600902,32.868566 11.9317708,34.3465017 9.69711517,36.3282791 C10.7269104,36.9793976 14.1200857,36.1990889 14.8151975,34.0028558 Z M15.5695225,33.1863738 L15.5695225,33.1863738 C16.0638242,30.7834365 13.3245689,28.2771469 12.0270269,28.3494934 C13.082567,31.3596247 12.3411144,32.7471272 15.5798204,33.1863738 L15.5695225,33.1863738 Z" id="形状" fill="#FFFFFF"></path>
                    <path d="M20.8893751,35.7096422 C23.4248824,34.6986942 25.754065,33.2202511 27.7592135,31.349029 C29.7695619,29.4415248 31.3691445,27.1325329 32.4573458,24.5672913 C34.9710126,18.6711414 35.0092917,9.07727428 34.9454931,5.98289608 C27.5601617,5.76797274 22.5200685,3.22773424 20.8893751,2.28 C19.2637856,3.22773424 14.2364522,5.76797274 6.85367272,5.98289608 C6.79242602,9.07468484 6.83070521,18.6711414 9.33926802,24.5672913 C10.4268263,27.1309315 12.0235479,29.4395557 14.0297446,31.349029 C16.0308698,33.2230614 18.3565966,34.7050194 20.8893751,35.72 L20.8893751,35.7096422 Z" id="路径"></path>
                    <path d="M29.2807587,33.0618108 L29.2807587,33.0618108 C26.9517167,35.2088825 24.2300599,36.8856588 21.2653449,38 L20.5129302,38 C17.5527632,36.8834435 14.8362843,35.2048549 12.51303,33.0566372 C10.2682891,30.9552508 8.48138874,28.412823 7.26422673,25.5885636 C4.04513309,18.1127297 4.59069836,5.34690265 4.60104083,5.10633084 L4.60104083,5.10633084 L4.63206824,4.09748128 L5.64821587,4.09748128 C14.8168151,4.09748128 20.2957383,0.395779442 20.311252,0.385432267 L20.8904303,0 L21.4696086,0.385432267 C21.4851223,0.385432267 26.9795593,4.09748128 36.1507441,4.09748128 L37.1539637,4.09748128 L37.1979192,5.10891763 C37.1979192,5.14513274 37.7900255,18.0428863 34.5321476,25.5808033 C33.3160955,28.4101053 31.5281697,30.9571431 29.2807587,33.0618108 L29.2807587,33.0618108 Z" id="路径" fill="#FFFFFF"></path>
                    <path d="M21.2743846,37.24 C27.6257286,34.7718284 31.6894578,30.4712655 33.8691177,25.3927762 C37.0100899,18.0890558 36.4394714,5.39670936 36.4394714,5.39670936 C27.0088437,5.39670936 21.2743846,1.52 21.2743846,1.52 C21.2743846,1.52 15.5527773,5.39929383 6.12214968,5.39929383 C6.12214968,5.39929383 5.54124975,18.0890558 8.69250336,25.3953607 C10.877304,30.468681 14.9410332,34.7718284 21.2743846,37.24 Z" id="路径" fill="#007FFD"></path>
                    <path d="M21.2782439,35.72 L21.2314615,35.7019841 C15.6617621,33.5658185 11.5371178,29.7413099 9.30196076,24.635102 C6.39105862,17.9692357 6.85888218,6.51887324 6.87967434,6.03501886 L6.87967434,5.91148157 L7.00442729,5.91148157 C15.7397327,5.91148157 21.1482929,2.36493189 21.2002733,2.32890018 L21.2730458,2.28 L21.3458184,2.32890018 C21.4003978,2.36493189 26.8271511,5.91148157 35.5598575,5.91148157 L35.6846104,5.91148157 L35.6846104,6.03244516 C35.6846104,6.15083507 36.2044144,17.9126145 33.259725,24.6376757 C31.027167,29.7361625 26.8973246,33.5580974 21.3042341,35.7045578 L21.2782439,35.72 Z M7.13437828,6.17399831 C7.0849969,7.49945047 6.77571355,18.218884 9.5436696,24.5398753 C11.7424403,29.556004 15.8021092,33.326465 21.2808429,35.4420411 C26.7725716,33.3290387 30.8348395,29.5585777 33.0362093,24.5398753 C35.7885712,18.2394736 35.489684,7.44282922 35.4429016,6.17399831 C27.2455932,6.14054029 21.953989,3.01350266 21.2808429,2.59399061 C20.6076968,3.01350266 15.3316866,6.14054029 7.13437828,6.17399831 Z" id="形状" fill="#FFFFFF" fill-rule="nonzero"></path>
                    <path d="M20.3277695,8.36 L25.08,11.5687114 L25.08,15.5573866 C25.08,15.5573866 23.2696265,15.0637387 22.8121665,14.0196733 L22.8121665,12.378294 L20.3788687,10.7517241 L20.544333,35.2314214 L19.678079,34.7871382 L19.678079,10.430853 L19.2960512,10.5616697 L19.2960512,34.5970838 L18.7850587,34.320641 L18.7850587,10.7443194 L18.4030309,10.8751361 L18.4030309,34.1330547 L17.8823052,33.8640166 L17.8823052,11.0577858 L17.5002775,11.1886025 L17.5002775,33.6690257 L16.9673853,33.3999876 L16.9673853,11.368784 L16.5853575,11.502069 L16.5853575,33.2049967 L15.96,32.8841255 L15.96,10.5172414 L20.3277695,8.36 Z" id="路径" fill="#FFFFFF" fill-rule="nonzero"></path>
                    <path d="M26.4401209,17.8174441 L26.2862328,32.7628762 C26.1916365,32.8027667 26.0267321,33.0409239 25.7125086,33.2647781 C25.3594925,33.5162684 24.8346723,33.7675229 24.3333326,34.0457876 C22.9333586,34.8228321 21.28,35.5242066 21.28,35.5242066 L21.28,14.44 C22.3198723,17.0699565 26.4401209,17.8174441 26.4401209,17.8174441 Z M21.6944774,31.7072141 C21.6944774,31.7072141 24.2622752,33.5921829 25.6504065,32.9896929 C24.1012675,32.5408308 22.7219864,31.6238657 21.6944774,30.3597364 L21.6944774,31.7072141 Z M21.6944774,28.9572596 C21.6944774,28.9572596 24.2622752,30.8422284 25.6504065,30.2397384 C24.1022241,29.7955843 22.7227703,28.882863 21.6944774,27.6222817 L21.6944774,28.9572596 Z M21.6944774,26.2223049 C21.6944774,26.2223049 24.2622752,28.1072737 25.6504065,27.5047837 C24.1028021,27.0593287 22.7237006,26.1468406 21.6944774,24.887327 L21.6944774,26.2223049 Z M21.6944774,23.4723505 C21.6944774,23.4723505 24.2622752,25.3573192 25.6504065,24.7548292 C24.1043321,24.3127843 22.7254094,23.4047715 21.6944774,22.1498723 L21.6944774,23.4723505 Z M21.6944774,20.7373957 C21.6944774,20.7373957 24.2622752,22.6223645 25.6504065,22.0198745 C24.1043321,21.5778296 22.7254094,20.6698168 21.6944774,19.4149176 L21.6944774,20.7373957 Z M21.6944774,17.9874413 C21.6944774,17.9874413 24.2622752,19.8724101 25.6504065,19.26992 C24.1058575,18.8312882 22.7271127,17.927749 21.6944774,16.677463 L21.6944774,17.9874413 Z" id="形状" fill="#FFFFFF" fill-rule="nonzero"></path>
                    <path d="M29.0585318,10.0859195 L30.4942251,10.3761915 C30.5810114,10.3935582 30.6479609,10.4605441 30.6653181,10.5473776 L30.9554323,11.983852 C30.9752692,12.0830903 31.0595759,12.16 31.1612398,12.16 L31.1810767,12.16 C31.2753018,12.1525571 31.34969,12.0781284 31.3695269,11.986333 L31.6596411,10.5498585 C31.6769984,10.463025 31.7439478,10.3960392 31.8307341,10.3786725 L33.2664274,10.0884004 C33.3581729,10.0685528 33.4325612,9.99412404 33.44,9.89984767 L33.44,9.87999999 C33.44,9.77828073 33.3631321,9.69392818 33.2639478,9.67408052 L31.8282545,9.38380849 C31.7414682,9.36644179 31.6745188,9.29945594 31.6571615,9.21262241 L31.3670473,7.77614798 C31.3472104,7.67690968 31.2629037,7.6 31.1612398,7.6 L31.1414029,7.6 C31.0471778,7.60744287 30.9727896,7.68187161 30.9529527,7.77366702 L30.6628385,9.18781283 C30.6454813,9.27216537 30.5785318,9.33915123 30.4942251,9.35899891 L29.051093,9.67408052 C28.9593475,9.69392818 28.8874388,9.76835692 28.88,9.8626333 L28.88,9.89984767 C28.892398,9.9916431 28.9667863,10.0660718 29.0585318,10.0859195 L29.0585318,10.0859195 Z" id="形状" fill="#FFFFFF" fill-rule="nonzero"></path>
                    <path d="M8.53853181,16.1659195 L9.97422513,16.4561915 C10.0610114,16.4735582 10.1279609,16.5405441 10.1453181,16.6273776 L10.4354323,18.063852 C10.4552692,18.1630903 10.5395759,18.24 10.6412398,18.24 L10.6610767,18.24 C10.7553018,18.2325571 10.82969,18.1581284 10.8495269,18.066333 L11.1396411,16.6298585 C11.1569984,16.543025 11.2239478,16.4760392 11.3107341,16.4586725 L12.7464274,16.1684004 C12.8381729,16.1485528 12.9125612,16.074124 12.92,15.9798477 L12.92,15.96 C12.92,15.8582807 12.8431321,15.7739282 12.7439478,15.7540805 L11.3082545,15.4638085 C11.2214682,15.4464418 11.1545188,15.3794559 11.1371615,15.2926224 L10.8470473,13.856148 C10.8272104,13.7569097 10.7429037,13.68 10.6412398,13.68 L10.6214029,13.68 C10.5271778,13.6874429 10.4527896,13.7618716 10.4329527,13.853667 L10.1428385,15.2678128 C10.1254813,15.3521654 10.0585318,15.4191512 9.97422513,15.4389989 L8.53109299,15.7540805 C8.43934747,15.7739282 8.36743884,15.8483569 8.36,15.9426333 L8.36,15.9798477 C8.37239804,16.0716431 8.44678629,16.1460718 8.53853181,16.1659195 L8.53853181,16.1659195 Z" id="形状备份-3" fill="#FFFFFF" fill-rule="nonzero"></path>
                    <path d="M27.4492659,14.9229597 L28.1671126,15.0680958 C28.2105057,15.0767791 28.2439804,15.110272 28.2526591,15.1536888 L28.3977161,15.871926 C28.4076346,15.9215452 28.4497879,15.96 28.5006199,15.96 L28.5105383,15.96 C28.5576509,15.9562786 28.594845,15.9190642 28.6047635,15.8731665 L28.7498206,15.1549293 C28.7584992,15.1115125 28.7919739,15.0780196 28.835367,15.0693362 L29.5532137,14.9242002 C29.5990865,14.9142764 29.6362806,14.877062 29.64,14.8299238 L29.64,14.82 C29.64,14.7691404 29.6015661,14.7269641 29.5519739,14.7170403 L28.8341272,14.5719042 C28.7907341,14.5632209 28.7572594,14.529728 28.7485807,14.4863112 L28.6035236,13.768074 C28.5936052,13.7184548 28.5514519,13.68 28.5006199,13.68 L28.4907015,13.68 C28.4435889,13.6837214 28.4063948,13.7209358 28.3964764,13.7668335 L28.2514193,14.4739064 C28.2427406,14.5160827 28.2092659,14.5495756 28.1671126,14.5594995 L27.4455465,14.7170403 C27.3996737,14.7269641 27.3637194,14.7641785 27.36,14.8113166 L27.36,14.8299238 C27.366199,14.8758216 27.4033931,14.9130359 27.4492659,14.9229597 L27.4492659,14.9229597 Z" id="形状备份" fill="#FFFFFF" fill-rule="nonzero"></path>
                    <path d="M12.2492659,9.60295974 L12.9671126,9.74809576 C13.0105057,9.7567791 13.0439804,9.79027203 13.0526591,9.8336888 L13.1977161,10.551926 C13.2076346,10.6015452 13.2497879,10.64 13.3006199,10.64 L13.3105383,10.64 C13.3576509,10.6362786 13.394845,10.5990642 13.4047635,10.5531665 L13.5498206,9.83492927 C13.5584992,9.79151251 13.5919739,9.75801958 13.635367,9.74933624 L14.3532137,9.60420022 C14.3990865,9.59427639 14.4362806,9.55706202 14.44,9.50992383 L14.44,9.49999999 C14.44,9.44914036 14.4015661,9.40696409 14.3519739,9.39704026 L13.6341272,9.25190424 C13.5907341,9.2432209 13.5572594,9.20972797 13.5485807,9.1663112 L13.4035236,8.44807399 C13.3936052,8.39845484 13.3514519,8.36 13.3006199,8.36 L13.2907015,8.36 C13.2435889,8.36372143 13.2063948,8.4009358 13.1964764,8.44683351 L13.0514193,9.15390641 C13.0427406,9.19608269 13.0092659,9.22957561 12.9671126,9.23949945 L12.2455465,9.39704026 C12.1996737,9.40696409 12.1637194,9.44417846 12.16,9.49131665 L12.16,9.50992383 C12.166199,9.55582155 12.2033931,9.59303591 12.2492659,9.60295974 L12.2492659,9.60295974 Z" id="形状备份-2" fill="#FFFFFF" fill-rule="nonzero"></path>
                </g>
            </g>
        </g>
    </g>
</svg>