<?xml version="1.0" encoding="UTF-8"?>
<svg width="55px" height="50px" viewBox="0 0 55 50" version="1.1" xmlns="http://www.w3.org/2000/svg" xmlns:xlink="http://www.w3.org/1999/xlink">
    <title>logo</title>
    <g id="安徽工程造价评优" stroke="none" stroke-width="1" fill="none" fill-rule="evenodd">
        <g id="外网公示-结果公示" transform="translate(-48.000000, -15.000000)">
            <g id="logo" transform="translate(48.000000, 15.000000)">
                <path d="M40.604483,4.28367444 C41.5867189,5.01881568 42.5077625,5.83290355 43.3585078,6.71788944 C52.0438892,15.8339028 52.0438892,30.195199 43.3585078,39.3112123 C39.5493021,43.2944888 34.3849998,45.6917729 28.8939498,46.025702 C29.3885225,46.2092881 29.9440699,46.4880669 30.2895933,46.6036581 C30.9670902,46.8314408 31.5734499,47.1918134 32.1798096,47.4535935 C32.7184196,47.6881757 35.4826068,49.289454 35.4826068,49.6940233 C35.4826068,49.8674101 35.3471074,49.908207 35.2387079,50 L34.6933229,50 C34.1513254,49.6226287 33.7143399,49.1670633 33.1825049,48.7658938 C32.7929442,48.4701163 31.9528481,47.960155 31.5057002,47.7017747 C31.0585523,47.4433943 28.6703758,46.2670837 27.8777045,46.0596995 L27.3831318,46.0596995 C26.5701356,46.263684 24.2293839,47.4195961 23.7652986,47.7017747 C23.3012132,47.9839532 22.5254793,48.4531176 22.0715564,48.7658938 C21.5295589,49.1568641 21.0993484,49.6226287 20.5607384,50 L20.0322909,50 C19.9238914,49.908207 19.788392,49.8674101 19.788392,49.6940233 C19.788392,49.0616713 24.2768087,46.6750527 26.2889744,46.0189026 C20.8261336,45.6682114 15.6927922,43.2748207 11.9023285,39.3112123 C3.21694707,30.195199 3.21694707,15.8339028 11.9023285,6.71788944 C12.6905289,5.89933348 13.5398699,5.14238957 14.4429418,4.45366152 L14.381967,4.45366152 C14.6597408,0.781940573 16.2586333,1.52308425 19.5377182,0.149588631 C19.68338,1.50948528 17.410378,4.44006256 14.8934772,4.47745971 C13.9000933,5.21169803 12.9697937,6.02822916 12.1123526,6.9184742 C3.53494264,15.9213994 3.53494264,30.1043027 12.1123526,39.1072279 C16.163281,43.3632441 21.7726114,45.7709268 27.6371931,45.7709268 C33.5017748,45.7709268 39.1111053,43.3632441 43.1620337,39.1072279 C51.7342499,30.1022123 51.7342499,15.9234897 43.1620337,6.9184742 C42.2992247,6.02669567 41.364488,5.20797367 40.3673591,4.47066023 C37.7522212,4.64404705 35.3098451,1.55708166 35.4622818,0.149588631 C38.6973294,1.50948528 40.289447,0.802339022 40.604483,4.28367444 Z M42.8368352,5.09961243 L42.8368352,5.09961243 C44.1139168,3.39974162 42.9079723,0.452165635 41.8747896,0 C41.5733035,2.7197933 40.4825336,3.53233154 42.8368352,5.09961243 Z M44.9438504,7.9315972 L44.9438504,7.9315972 C46.5596804,6.57170055 46.0346203,3.41334059 45.1233871,2.75719045 C44.2290912,5.35459305 42.989272,5.89855171 44.9438504,7.9315972 Z M43.2501083,8.14238118 L43.2501083,8.14238118 C42.5014742,5.48718297 41.4411916,6.26912355 38.8192788,5.76256205 C38.9209033,6.85727885 41.3158547,8.84952744 43.2501083,8.14238118 Z M45.4689105,11.6475148 L45.4689105,11.6475148 C44.9811127,8.92772149 43.8463055,9.60766982 41.2887548,8.83932821 C41.2887548,9.93744475 43.4770697,12.1540763 45.4689105,11.6475148 Z M47.2473397,11.0831577 L47.2473397,11.0831577 C48.9410819,9.66546542 48.382147,6.3711158 47.4302639,5.68776773 C46.4987057,8.40756103 45.2046867,8.96171891 47.2473397,11.0831577 Z M48.6700831,14.3367104 L48.6700831,14.3367104 C50.7432235,13.605766 51.3800706,10.3318148 50.739836,9.35608894 C48.913982,11.5591215 47.508176,11.6271163 48.6700831,14.3367104 Z M47.836762,16.1521724 L47.836762,16.1521724 C47.934999,13.092405 46.549518,13.5615693 43.954705,12.1302781 C43.6972562,13.3201877 45.5569851,16.2337662 47.836762,16.1521724 Z M50.102989,18.2124159 L50.102989,18.2124159 C52.474228,17.3828789 53.1889872,13.6669613 52.4539031,12.5620453 C50.3841502,15.0608554 48.7852576,15.1390494 50.102989,18.2124159 Z M48.7005705,20.2930577 L48.7005705,20.2930577 C49.137556,17.2638879 47.7080376,17.5732644 45.2859863,15.8733936 C44.8998131,17.025906 46.4275685,20.1298701 48.7005705,20.2930577 Z M50.6314365,22.0983205 L50.6314365,22.0983205 C53.1991496,21.697151 54.6523804,18.0186306 54.1069954,16.7607262 C51.5155699,18.9297613 49.8658651,18.6985789 50.6314365,22.0983205 Z M50.4891622,26.0590586 L50.4891622,26.0590586 C50.2588133,22.421296 51.9254555,22.9278575 54.964029,21.1259944 C55.3027774,22.5300877 53.2059246,26.0726185 50.4891622,26.0590586 Z M48.9444694,25.671449 L48.9444694,25.671449 C50.0623392,22.0337254 48.2466476,22.1391174 45.5976349,19.5519141 C44.8998131,20.894812 46.1836697,24.9915006 48.9444694,25.671449 Z M49.3746799,30.4582852 L49.3746799,30.4582852 C52.2201667,30.9580472 55.0588785,27.6195009 54.9369291,26.0828177 C51.4342703,27.4427144 49.7777905,26.6029782 49.3746799,30.4582852 L49.3746799,30.4582852 Z M47.7622373,33.7220371 L47.7622373,33.7220371 C50.1334764,35.3675121 54.103608,33.5214524 54.635443,32.0731624 C50.8888854,31.8351805 49.7269782,30.3732916 47.7622373,33.7220371 Z M47.4810761,30.6928673 L47.4810761,30.6928673 C49.1138436,27.2251309 47.2879895,27.0721425 45.0116001,24.1245665 C44.1240792,25.3654722 44.8185135,29.6525464 47.4810761,30.6928673 Z M45.4079358,36.9517917 L45.4079358,36.9517917 C47.3862266,39.0630312 51.6510693,38.0975046 52.4708405,36.7954035 C48.8631697,35.7754811 48.0298486,34.1062079 45.4079358,36.9517917 Z M44.6389768,35.6632896 L44.6389768,35.6632896 C47.1897525,33.0420888 45.5908599,32.3315428 44.4526652,28.9589991 C43.2670457,29.7987353 42.5590615,33.8852247 44.6389768,35.6632896 Z M42.863935,40.4229279 L42.863935,40.4229279 C44.8456134,42.5307677 49.1070686,41.565241 49.9302273,40.26314 C46.319169,39.2432175 45.4858479,37.5773441 42.863935,40.4229279 Z M40.3097719,40.3413341 L40.3097719,40.3413341 C43.8598554,38.6992589 42.5285741,37.3733596 42.6810109,33.5622493 C41.1735804,33.9464201 38.9107409,37.7677297 40.3097719,40.3413341 Z M39.422251,43.0883253 L39.422251,43.0883253 C40.9161316,45.8081186 45.5874724,45.933909 46.7798669,44.7881961 C43.311083,42.7483511 42.8876474,40.8240974 39.422251,43.0883253 L39.422251,43.0883253 Z M35.4826068,44.9411845 L35.4826068,44.9411845 C36.3972275,47.8309648 40.8551569,48.8542871 42.2169255,48.0009519 C39.2765892,45.3933501 39.2393268,43.4486979 35.4826068,44.9411845 Z M34.4900739,43.6662814 L34.4900739,43.6662814 C38.7515291,43.0883253 37.7759336,41.262664 39.1512523,37.3019651 C37.4575101,37.2203713 33.8362894,40.5045217 34.4900739,43.6662814 Z M12.1631648,5.09961243 L12.1631648,5.09961243 C14.5344038,3.54593051 13.4266965,2.74699123 13.1252104,0 C12.1089651,0.438566669 10.8860832,3.39974162 12.1631648,5.09961243 Z M10.0527621,7.9315972 L10.0527621,7.9315972 C12.010728,5.89175223 10.7709088,5.35459305 9.87661293,2.75719045 C8.96537965,3.41334059 8.44031958,6.57170055 10.0527621,7.9315972 Z M12.1563899,8.04038893 L12.1563899,8.04038893 C14.0906434,8.73733596 16.4822073,6.74168763 16.5838318,5.6605698 C13.9653065,6.18073026 12.9016364,5.39878969 12.1563899,8.04038893 Z M9.5378645,11.6339158 L9.5378645,11.6339158 C11.5161553,12.1404773 13.7214076,9.92384579 13.718024,8.83932821 C11.1604695,9.61106956 10.0256622,8.93112123 9.5378645,11.6475148 L9.5378645,11.6339158 Z M7.75943524,11.0695587 L7.75943524,11.0695587 C9.79192582,8.94811994 8.50806927,8.38376283 7.57651109,5.67416876 C6.624628,6.35411709 6.07585554,9.65186646 7.75943524,11.0695587 Z M6.33669183,14.3231114 L6.33669183,14.3231114 C7.49859895,11.6033181 6.09279296,11.5455225 4.26693893,9.34248997 C3.61654194,10.3182158 4.26693893,13.592167 6.33669183,14.3231114 Z M7.36987455,16.1385735 L7.36987455,16.1385735 C9.646264,16.2201673 11.5093804,13.3065887 11.2485441,12.1166791 C8.6537311,13.5479704 7.2716375,13.0822058 7.36987455,16.1385735 Z M4.90378598,18.1988169 L4.90378598,18.1988169 C6.22151737,15.1390494 4.62262478,15.0472564 2.55287187,12.5484463 C1.81440029,13.6533623 2.55287187,17.3692799 4.90378598,18.1988169 Z M6.30620448,20.2794588 L6.30620448,20.2794588 C8.57920644,20.1094717 10.1069619,17.0055076 9.71740117,15.8597947 C7.29873738,17.5596655 5.869219,17.2570885 6.30620448,20.2794588 Z M4.36517597,22.0983205 L4.36517597,22.0983205 C1.80085036,21.7005508 0.337457138,18.039029 0.893004564,16.7641259 C3.48443005,18.9297613 5.13413491,18.6985789 4.36517597,22.0983205 Z M4.5108378,26.0590195 L4.5108378,26.0590195 C4.74118673,22.4382947 3.07454445,22.9312572 0.0359710356,21.1293942 C-0.302777394,22.5334875 1.79407539,26.0760182 4.5108378,26.0624583 L4.5108378,26.0590195 Z M6.35024177,25.671449 L6.35024177,25.671449 C9.11442896,25.0220983 10.4152229,20.9118107 9.70046374,19.5519141 C7.05145102,22.1255185 5.23575944,22.0201265 6.35024177,25.671449 Z M5.62532013,30.4616849 L5.62532013,30.4616849 C5.2222095,26.6063779 3.56572968,27.4359149 0.06307091,26.0862174 C-0.0588785248,27.6229007 2.77305835,30.9614469 5.62532013,30.4616849 L5.62532013,30.4616849 Z M7.22760021,33.7220371 L7.22760021,33.7220371 C5.26285931,30.3868906 4.1009522,31.8351805 0.35439456,32.0731624 C0.886229595,33.5214524 4.84958623,35.3573128 7.22760021,33.7220371 Z M7.5087614,30.6928673 L7.5087614,30.6928673 C10.1611616,29.6525464 10.8657583,25.3654722 9.97823746,24.1381655 C7.70184801,27.0857415 5.87599397,27.2387299 7.5087614,30.7064663 L7.5087614,30.6928673 Z M9.58190179,36.9517917 L9.58190179,36.9517917 C6.95998895,34.1062079 6.12666781,35.7686816 2.51899703,36.7954035 C3.33876823,38.0975046 7.60022348,39.0630312 9.58190179,36.9517917 Z M10.3508607,35.6632896 L10.3508607,35.6632896 C12.4307761,33.8852247 11.7227919,29.7987353 10.5371724,28.9589991 C9.39897764,32.3315428 7.79669757,33.0386891 10.3508607,35.6632896 Z M12.1259025,40.4229279 L12.1259025,40.4229279 C9.50398965,37.5773441 8.67066852,39.236418 5.05961025,40.26314 C5.88276894,41.565241 10.1408367,42.5307677 12.1259025,40.4229279 Z M14.7783027,40.2427416 L14.7783027,40.2427416 C16.1841087,37.6657374 13.9212692,33.8478276 12.4070637,33.4432583 C12.5527255,37.2543687 11.2214442,38.5802679 14.7783027,40.2427416 Z M15.7674481,42.789148 L15.7674481,42.789148 C12.3020517,40.5385191 11.8752287,42.4797715 8.40644474,44.4890188 C9.6022267,45.6211328 14.2735675,45.4885429 15.7674481,42.789148 Z M19.4936809,44.7405997 L19.4936809,44.7405997 C15.7369608,43.2481131 15.6996984,45.1927653 12.7593621,47.8003672 C14.1143558,48.6571021 18.5790601,47.6303801 19.4936809,44.7405997 Z M20.4862138,43.6662814 L20.4862138,43.6662814 C21.1366107,40.5045217 17.5323274,37.2067723 15.8250354,37.3019651 C17.2139039,41.262664 16.2383084,43.0883253 20.4997637,43.6662814 L20.4862138,43.6662814 Z" id="形状" fill="#1386E8"></path>
                <path d="M27.4860199,46.9863714 C30.8222137,45.6561765 33.8869277,43.7108567 36.5252809,41.2487223 C39.1704762,38.7388484 41.2751902,35.7007012 42.707034,32.3253833 C46.0144902,24.5672913 46.0648576,11.9437819 45.980912,7.87223169 C36.2633706,7.58943782 29.6316691,4.24701874 27.4860199,3 C25.3470863,4.24701874 18.7321739,7.58943782 9.01799042,7.87223169 C8.93740266,11.9403748 8.98777001,24.5672913 12.2885106,32.3253833 C13.7195083,35.6985941 15.8204578,38.7362575 18.4601902,41.2487223 C21.0932497,43.7145544 24.1534166,45.6644992 27.4860199,47 L27.4860199,46.9863714 Z" id="路径"></path>
                <path d="M38.5273141,43.5023826 L38.5273141,43.5023826 C35.4627851,46.327477 31.8816577,48.5337616 27.9807169,50 L26.9906976,50 C23.095741,48.5308467 19.5214267,46.3221775 16.4645132,43.4955752 C13.5109067,40.7305931 11.159722,37.3852935 9.55819307,33.6691627 C5.32254354,23.8325391 6.04039258,7.03539823 6.05400109,6.71885636 L6.05400109,6.71885636 L6.09482663,5.39142274 L7.43186299,5.39142274 C19.4958093,5.39142274 26.7049189,0.520762423 26.7253316,0.50714772 L27.4874083,0 L28.249485,0.50714772 C28.2698978,0.50714772 35.4994201,5.39142274 47.5667686,5.39142274 L48.8867943,5.39142274 L48.9446305,6.72226004 C48.9446305,6.7699115 49.7237178,23.7406399 45.4370364,33.6589517 C43.8369677,37.3817176 41.4844339,40.733083 38.5273141,43.5023826 L38.5273141,43.5023826 Z" id="路径" fill="#1386E8"></path>
                <path d="M27.9926114,49 C36.3496429,45.7524058 41.696655,40.0937703 44.5646285,33.4115476 C48.6974867,23.8013892 47.9466729,7.10093336 47.9466729,7.10093336 C35.5379523,7.10093336 27.9926114,2 27.9926114,2 C27.9926114,2 20.4641807,7.10433398 8.05546011,7.10433398 C8.05546011,7.10433398 7.29111809,23.8013892 11.4375044,33.4149483 C14.3122421,40.0903697 19.6592542,45.7524058 27.9926114,49 Z" id="路径" fill="#FFFFFF"></path>
                <path d="M27.9976893,47 L27.9361336,46.9762949 C20.6075818,44.1655507 15.1804181,39.1333025 12.2394221,32.4146079 C8.40928766,23.6437312 9.02484497,8.57746479 9.05220308,7.94081428 L9.05220308,7.77826522 L9.21635169,7.77826522 C20.7101746,7.77826522 27.8267011,3.11175248 27.8950964,3.06434234 L27.9908498,3 L28.0866031,3.06434234 C28.1584181,3.11175248 35.298883,7.77826522 46.7892862,7.77826522 L46.9534348,7.77826522 L46.9534348,7.93742785 C46.9534348,8.09320403 47.6373874,23.5692296 43.762796,32.4179943 C40.8252197,39.1265297 35.3912166,44.1553914 28.0318869,46.9796814 L27.9976893,47 Z M9.38733984,8.12368198 C9.32236434,9.86769799 8.91541256,23.9722158 12.55746,32.2893096 C15.4505794,38.889479 20.792249,43.8506119 28.001109,46.6342646 C35.227068,43.8539983 40.5721573,38.8928654 43.4686964,32.2893096 C47.0902253,23.9993073 46.6969526,9.79319634 46.6353968,8.12368198 C35.8494648,8.07965828 28.8868276,3.96513507 28.001109,3.41314554 C27.1153905,3.96513507 20.1732719,8.07965828 9.38733984,8.12368198 Z" id="形状" fill="#1386E8" fill-rule="nonzero"></path>
                <path d="M26.7470651,11 L33,15.2219887 L33,20.4702455 C33,20.4702455 30.6179296,19.8207088 30.0160085,18.4469386 L30.0160085,16.287229 L26.814301,14.1470054 L27.0320171,46.3571334 L25.8922092,45.7725503 L25.8922092,13.7248066 L25.3895411,13.8969338 L25.3895411,45.5224787 L24.7171825,45.1587381 L24.7171825,14.1372624 L24.2145144,14.3093896 L24.2145144,44.9119141 L23.529349,44.5579166 L23.529349,14.5497182 L23.0266809,14.7218454 L23.0266809,44.3013496 L22.3255069,43.9473521 L22.3255069,14.9589264 L21.8228388,15.1343013 L21.8228388,43.6907851 L21,43.2685862 L21,13.8384755 L26.7470651,11 Z" id="路径" fill="#1386E8" fill-rule="nonzero"></path>
                <path d="M34.7896327,23.4440054 L34.5871485,43.1090476 C34.4626796,43.1615351 34.2457002,43.4748998 33.8322482,43.7694449 C33.3677532,44.1003532 32.6772004,44.4309512 32.0175428,44.7970889 C30.1754718,45.8195159 28,46.7423771 28,46.7423771 L28,19 C29.368253,22.460469 34.7896327,23.4440054 34.7896327,23.4440054 Z M28.545365,41.7200186 C28.545365,41.7200186 31.9240463,44.2002407 33.7505349,43.4074906 C31.712194,42.8168827 29.8973505,41.6103495 28.545365,39.9470216 L28.545365,41.7200186 Z M28.545365,38.1016574 C28.545365,38.1016574 31.9240463,40.5818795 33.7505349,39.7891295 C31.7134528,39.2047161 29.898382,38.0037671 28.545365,36.3451076 L28.545365,38.1016574 Z M28.545365,34.5030328 C28.545365,34.5030328 31.9240463,36.9832549 33.7505349,36.1905049 C31.7142133,35.6043798 29.8996061,34.4037376 28.545365,32.7464829 L28.545365,34.5030328 Z M28.545365,30.8846716 C28.545365,30.8846716 31.9240463,33.3648937 33.7505349,32.5721437 C31.7162264,31.9905056 29.9018545,30.795752 28.545365,29.1445689 L28.545365,30.8846716 Z M28.545365,27.286047 C28.545365,27.286047 31.9240463,29.7662691 33.7505349,28.9735191 C31.7162264,28.391881 29.9018545,27.1971274 28.545365,25.5459443 L28.545365,27.286047 Z M28.545365,23.6676859 C28.545365,23.6676859 31.9240463,26.147908 33.7505349,25.3551579 C31.7182336,24.7780107 29.9040957,23.5891434 28.545365,21.9440302 L28.545365,23.6676859 Z" id="形状" fill="#1386E8" fill-rule="nonzero"></path>
                <path d="M38.2349103,13.2709467 L40.1239804,13.6528836 C40.2381729,13.6757345 40.3262643,13.7638738 40.3491028,13.8781284 L40.730832,15.7682263 C40.7569331,15.898803 40.867863,16 41.0016313,16 L41.0277325,16 C41.1517129,15.9902068 41.2495922,15.8922742 41.2756933,15.7714908 L41.6574225,13.8813928 C41.680261,13.7671382 41.7683523,13.6789989 41.8825449,13.656148 L43.771615,13.2742111 C43.8923328,13.2480958 43.9902121,13.1501632 44,13.0261154 L44,13 C44,12.8661589 43.8988581,12.7551687 43.7683523,12.7290533 L41.8792822,12.3471164 C41.7650897,12.3242655 41.6769984,12.2361262 41.6541599,12.1218716 L41.2724307,10.2317737 C41.2463295,10.101197 41.1353997,10 41.0016313,10 L40.9755302,10 C40.8515498,10.0097932 40.7536705,10.1077258 40.7275693,10.2285092 L40.3458401,12.0892274 C40.3230017,12.2002176 40.2349103,12.2883569 40.1239804,12.3144722 L38.2251224,12.7290533 C38.1044046,12.7551687 38.0097879,12.8531012 38,12.9771491 L38,13.0261154 C38.0163132,13.1468988 38.1141925,13.2448313 38.2349103,13.2709467 L38.2349103,13.2709467 Z" id="形状" fill="#1386E8" fill-rule="nonzero"></path>
                <path d="M11.2349103,21.2709467 L13.1239804,21.6528836 C13.2381729,21.6757345 13.3262643,21.7638738 13.3491028,21.8781284 L13.730832,23.7682263 C13.7569331,23.898803 13.867863,24 14.0016313,24 L14.0277325,24 C14.1517129,23.9902068 14.2495922,23.8922742 14.2756933,23.7714908 L14.6574225,21.8813928 C14.680261,21.7671382 14.7683523,21.6789989 14.8825449,21.656148 L16.771615,21.2742111 C16.8923328,21.2480958 16.9902121,21.1501632 17,21.0261154 L17,21 C17,20.8661589 16.8988581,20.7551687 16.7683523,20.7290533 L14.8792822,20.3471164 C14.7650897,20.3242655 14.6769984,20.2361262 14.6541599,20.1218716 L14.2724307,18.2317737 C14.2463295,18.101197 14.1353997,18 14.0016313,18 L13.9755302,18 C13.8515498,18.0097932 13.7536705,18.1077258 13.7275693,18.2285092 L13.3458401,20.0892274 C13.3230017,20.2002176 13.2349103,20.2883569 13.1239804,20.3144722 L11.2251224,20.7290533 C11.1044046,20.7551687 11.0097879,20.8531012 11,20.9771491 L11,21.0261154 C11.0163132,21.1468988 11.1141925,21.2448313 11.2349103,21.2709467 L11.2349103,21.2709467 Z" id="形状备份-3" fill="#1386E8" fill-rule="nonzero"></path>
                <path d="M36.1174551,19.6354733 L37.0619902,19.8264418 C37.1190865,19.8378672 37.1631321,19.8819369 37.1745514,19.9390642 L37.365416,20.8841132 C37.3784666,20.9494015 37.4339315,21 37.5008157,21 L37.5138662,21 C37.5758564,20.9951034 37.6247961,20.9461371 37.6378467,20.8857454 L37.8287113,19.9406964 C37.8401305,19.8835691 37.8841762,19.8394995 37.9412724,19.828074 L38.8858075,19.6371056 C38.9461664,19.6240479 38.995106,19.5750816 39,19.5130577 L39,19.5 C39,19.4330794 38.949429,19.3775843 38.8841762,19.3645267 L37.9396411,19.1735582 C37.8825449,19.1621328 37.8384992,19.1180631 37.8270799,19.0609358 L37.6362153,18.1158868 C37.6231648,18.0505985 37.5676998,18 37.5008157,18 L37.4877651,18 C37.4257749,18.0048966 37.3768352,18.0538629 37.3637847,18.1142546 L37.1729201,19.0446137 C37.1615008,19.1001088 37.1174552,19.1441784 37.0619902,19.1572361 L36.1125612,19.3645267 C36.0522023,19.3775843 36.004894,19.4265506 36,19.4885745 L36,19.5130577 C36.0081566,19.5734494 36.0570962,19.6224157 36.1174551,19.6354733 L36.1174551,19.6354733 Z" id="形状备份" fill="#1386E8" fill-rule="nonzero"></path>
                <path d="M16.1174551,12.6354733 L17.0619902,12.8264418 C17.1190865,12.8378672 17.1631321,12.8819369 17.1745514,12.9390642 L17.365416,13.8841132 C17.3784666,13.9494015 17.4339315,14 17.5008157,14 L17.5138662,14 C17.5758564,13.9951034 17.6247961,13.9461371 17.6378467,13.8857454 L17.8287113,12.9406964 C17.8401305,12.8835691 17.8841762,12.8394995 17.9412724,12.828074 L18.8858075,12.6371056 C18.9461664,12.6240479 18.995106,12.5750816 19,12.5130577 L19,12.5 C19,12.4330794 18.949429,12.3775843 18.8841762,12.3645267 L17.9396411,12.1735582 C17.8825449,12.1621328 17.8384992,12.1180631 17.8270799,12.0609358 L17.6362153,11.1158868 C17.6231648,11.0505985 17.5676998,11 17.5008157,11 L17.4877651,11 C17.4257749,11.0048966 17.3768352,11.0538629 17.3637847,11.1142546 L17.1729201,12.0446137 C17.1615008,12.1001088 17.1174552,12.1441784 17.0619902,12.1572361 L16.1125612,12.3645267 C16.0522023,12.3775843 16.004894,12.4265506 16,12.4885745 L16,12.5130577 C16.0081566,12.5734494 16.0570962,12.6224157 16.1174551,12.6354733 L16.1174551,12.6354733 Z" id="形状备份-2" fill="#1386E8" fill-rule="nonzero"></path>
            </g>
        </g>
    </g>
</svg>