<?xml version="1.0" encoding="UTF-8"?>
<svg width="17px" height="15px" viewBox="0 0 17 15" version="1.1" xmlns="http://www.w3.org/2000/svg" xmlns:xlink="http://www.w3.org/1999/xlink">
    <title>工作台</title>
    <g id="安徽工程造价评优" stroke="none" stroke-width="1" fill="none" fill-rule="evenodd">
        <g id="页面不存在" transform="translate(-1189.000000, -23.000000)" fill="#FFFFFF" fill-rule="nonzero">
            <g id="工作台" transform="translate(1189.000000, 23.000000)">
                <path d="M16.3158954,0 L0.684104628,0 C0.305946792,0 0,0.2918429 0,0.652567976 L0,11.4634441 C0,11.8241692 0.305946792,12.1160121 0.684104628,12.1160121 L7.82349653,12.1160121 L7.82349653,13.694864 L3.12787838,13.694864 C2.74972055,13.694864 2.44377375,13.9867069 2.44377375,14.347432 C2.44377375,14.7081571 2.74972055,15 3.12787838,15 L13.8721216,15 C14.2502795,15 14.5562262,14.7081571 14.5562262,14.347432 C14.5562262,13.9867069 14.2502795,13.694864 13.8721216,13.694864 L9.19170579,13.694864 L9.19170579,12.1160121 L16.3158954,12.1160121 C16.6940532,12.1160121 17,11.8241692 17,11.4634441 L17,0.652567976 C17,0.2918429 16.6940532,0 16.3158954,0 Z M15.6317907,10.8108761 L1.36820926,10.8108761 L1.36820926,1.30513595 L15.6317907,1.30513595 L15.6317907,10.8108761 Z" id="形状"></path>
                <path d="M4.65893838,9 C5.02318487,9 5.31787675,8.72657798 5.31787675,8.38862157 L5.31787675,5.34871214 C5.31787675,5.01075573 5.02318487,4.73733371 4.65893838,4.73733371 C4.29469189,4.73733371 4,5.01075573 4,5.34871214 L4,8.38862157 C4,8.72657798 4.29469189,9 4.65893838,9 Z M8.48993289,9 C8.85417938,9 9.14887126,8.72657798 9.14887126,8.38862157 L9.14887126,3.61137843 C9.14887126,3.27342202 8.85417938,3 8.48993289,3 C8.12568639,3 7.83099451,3.27342202 7.83099451,3.61137843 L7.83099451,8.38692329 C7.83099451,8.72657798 8.12751678,9 8.48993289,9 L8.48993289,9 Z M12.3410616,9 C12.7053081,9 13,8.72657798 13,8.38862157 L13,6.44240023 C13,6.10444382 12.7053081,5.83102179 12.3410616,5.83102179 C11.9768151,5.83102179 11.6821232,6.10444382 11.6821232,6.44240023 L11.6821232,8.38862157 C11.6821232,8.72657798 11.9768151,9 12.3410616,9 Z" id="形状"></path>
            </g>
        </g>
    </g>
</svg>