<?xml version="1.0" encoding="UTF-8"?>
<svg width="239px" height="177px" viewBox="0 0 239 177" version="1.1" xmlns="http://www.w3.org/2000/svg" xmlns:xlink="http://www.w3.org/1999/xlink">
    <title>编组</title>
    <defs>
        <linearGradient x1="50%" y1="100%" x2="50%" y2="0%" id="linearGradient-1">
            <stop stop-color="#FFFFFF" offset="0%"></stop>
            <stop stop-color="#FDFEFF" offset="38%"></stop>
            <stop stop-color="#F6FAFE" offset="53%"></stop>
            <stop stop-color="#E9F4FC" offset="65%"></stop>
            <stop stop-color="#D8EAF9" offset="75%"></stop>
            <stop stop-color="#C1DEF6" offset="84%"></stop>
            <stop stop-color="#A4CFF1" offset="91%"></stop>
            <stop stop-color="#83BEEC" offset="98%"></stop>
            <stop stop-color="#7AB9EB" offset="100%"></stop>
        </linearGradient>
        <linearGradient x1="50%" y1="100%" x2="50%" y2="0.109649123%" id="linearGradient-2">
            <stop stop-color="#FFFFFF" offset="0%"></stop>
            <stop stop-color="#7AB9EB" offset="100%"></stop>
        </linearGradient>
        <linearGradient x1="50%" y1="100.07278%" x2="50%" y2="0%" id="linearGradient-3">
            <stop stop-color="#FFFFFF" offset="0%"></stop>
            <stop stop-color="#7AB9EB" offset="100%"></stop>
        </linearGradient>
        <linearGradient x1="88.0769231%" y1="104.737426%" x2="46.6666667%" y2="2.30481591%" id="linearGradient-4">
            <stop stop-color="#5CAAE8" stop-opacity="0.5" offset="0%"></stop>
            <stop stop-color="#99CAF1" stop-opacity="0.31" offset="29%"></stop>
            <stop stop-color="#D0E7F8" stop-opacity="0.14" offset="60%"></stop>
            <stop stop-color="#F2F8FD" stop-opacity="0.04" offset="85%"></stop>
            <stop stop-color="#FFFFFF" stop-opacity="0" offset="100%"></stop>
        </linearGradient>
        <linearGradient x1="49.9819037%" y1="121.577123%" x2="49.9819037%" y2="-20.797227%" id="linearGradient-5">
            <stop stop-color="#7AB9EB" offset="0%"></stop>
            <stop stop-color="#83BEED" offset="3%"></stop>
            <stop stop-color="#A3CFF2" offset="14%"></stop>
            <stop stop-color="#BEDCF6" offset="25%"></stop>
            <stop stop-color="#D2E7F9" offset="38%"></stop>
            <stop stop-color="#E0EEFB" offset="53%"></stop>
            <stop stop-color="#E8F3FD" offset="71%"></stop>
            <stop stop-color="#EBF4FD" offset="100%"></stop>
        </linearGradient>
        <linearGradient x1="0%" y1="50.0427716%" x2="100%" y2="50.0427716%" id="linearGradient-6">
            <stop stop-color="#5CAAE8" offset="0%"></stop>
            <stop stop-color="#71B5EB" offset="8%"></stop>
            <stop stop-color="#8BC2EF" offset="20%"></stop>
            <stop stop-color="#9FCDF1" offset="34%"></stop>
            <stop stop-color="#ADD4F3" offset="50%"></stop>
            <stop stop-color="#B5D9F5" offset="69%"></stop>
            <stop stop-color="#B8DAF5" offset="100%"></stop>
        </linearGradient>
        <linearGradient x1="56.2413208%" y1="59.3371373%" x2="44.1907113%" y2="34.2546017%" id="linearGradient-7">
            <stop stop-color="#99C9F1" offset="0%"></stop>
            <stop stop-color="#B8D9F5" offset="11%"></stop>
            <stop stop-color="#D2E7F9" offset="23%"></stop>
            <stop stop-color="#E6F2FC" offset="36%"></stop>
            <stop stop-color="#F4F9FE" offset="51%"></stop>
            <stop stop-color="#FCFEFF" offset="70%"></stop>
            <stop stop-color="#FFFFFF" offset="100%"></stop>
        </linearGradient>
        <linearGradient x1="25.8726329%" y1="-11.5974729%" x2="73.9938208%" y2="93.0956679%" id="linearGradient-8">
            <stop stop-color="#5CAAE8" stop-opacity="0.5" offset="0%"></stop>
            <stop stop-color="#99CAF1" stop-opacity="0.31" offset="29%"></stop>
            <stop stop-color="#D0E7F8" stop-opacity="0.14" offset="60%"></stop>
            <stop stop-color="#F2F8FD" stop-opacity="0.04" offset="85%"></stop>
            <stop stop-color="#FFFFFF" stop-opacity="0" offset="100%"></stop>
        </linearGradient>
        <linearGradient x1="49.9918871%" y1="-3331.91116%" x2="49.9918871%" y2="-3202.78579%" id="linearGradient-9">
            <stop stop-color="#7AB9EB" offset="0%"></stop>
            <stop stop-color="#83BEED" offset="3%"></stop>
            <stop stop-color="#A3CFF2" offset="14%"></stop>
            <stop stop-color="#BEDCF6" offset="25%"></stop>
            <stop stop-color="#D2E7F9" offset="38%"></stop>
            <stop stop-color="#E0EEFB" offset="53%"></stop>
            <stop stop-color="#E8F3FD" offset="71%"></stop>
            <stop stop-color="#EBF4FD" offset="100%"></stop>
        </linearGradient>
        <linearGradient x1="44.3161857%" y1="57.2794616%" x2="55.6838143%" y2="38.6184224%" id="linearGradient-10">
            <stop stop-color="#99C9F1" offset="0%"></stop>
            <stop stop-color="#B8D9F5" offset="11%"></stop>
            <stop stop-color="#D2E7F9" offset="23%"></stop>
            <stop stop-color="#E6F2FC" offset="36%"></stop>
            <stop stop-color="#F4F9FE" offset="51%"></stop>
            <stop stop-color="#FCFEFF" offset="70%"></stop>
            <stop stop-color="#FFFFFF" offset="100%"></stop>
        </linearGradient>
        <linearGradient x1="49.3212567%" y1="51.1025564%" x2="50.7933963%" y2="48.9234019%" id="linearGradient-11">
            <stop stop-color="#5CAAE8" offset="0%"></stop>
            <stop stop-color="#5EABE8" offset="0%"></stop>
            <stop stop-color="#83BEEE" offset="10%"></stop>
            <stop stop-color="#A3CFF2" offset="20%"></stop>
            <stop stop-color="#BEDCF6" offset="31%"></stop>
            <stop stop-color="#D2E7F9" offset="43%"></stop>
            <stop stop-color="#E0EEFB" offset="56%"></stop>
            <stop stop-color="#E8F3FD" offset="73%"></stop>
            <stop stop-color="#EBF4FD" offset="100%"></stop>
        </linearGradient>
        <linearGradient x1="51.17992%" y1="51.5184636%" x2="48.6591818%" y2="48.455431%" id="linearGradient-12">
            <stop stop-color="#5CAAE8" offset="0%"></stop>
            <stop stop-color="#5EABE8" offset="0%"></stop>
            <stop stop-color="#83BEEE" offset="10%"></stop>
            <stop stop-color="#A3CFF2" offset="20%"></stop>
            <stop stop-color="#BEDCF6" offset="31%"></stop>
            <stop stop-color="#D2E7F9" offset="43%"></stop>
            <stop stop-color="#E0EEFB" offset="56%"></stop>
            <stop stop-color="#E8F3FD" offset="73%"></stop>
            <stop stop-color="#EBF4FD" offset="100%"></stop>
        </linearGradient>
        <linearGradient x1="0.0462267407%" y1="50%" x2="100%" y2="50%" id="linearGradient-13">
            <stop stop-color="#007ADC" offset="0%"></stop>
            <stop stop-color="#0AB0ED" offset="100%"></stop>
        </linearGradient>
    </defs>
    <g id="安徽工程造价评优" stroke="none" stroke-width="1" fill="none" fill-rule="evenodd">
        <g id="初次修改密码" transform="translate(-346.000000, -604.000000)">
            <g id="编组" transform="translate(346.000000, 604.000000)">
                <g id="没有内容" fill-rule="nonzero">
                    <ellipse id="椭圆形" fill="url(#linearGradient-1)" cx="119.2" cy="123.340254" rx="119.2" ry="34.2"></ellipse>
                    <circle id="椭圆形" fill="url(#linearGradient-2)" cx="24.2" cy="104.480254" r="4.56"></circle>
                    <circle id="椭圆形" fill="url(#linearGradient-3)" cx="210.66" cy="84.480254" r="6.87"></circle>
                    <path d="M60.43,93.450254 C54.93,94.450254 49.71,95.520254 44.83,96.720254 L60.43,109.030254 L60.43,93.450254 Z" id="路径" fill="url(#linearGradient-4)"></path>
                    <path d="M171.63,108.560254 L119.74,123.560254 L119.74,50.220254 L175,42.780254 L175,104.090254 C175,106.165273 173.624855,107.989066 171.63,108.560254 Z" id="路径" fill="url(#linearGradient-5)"></path>
                    <polygon id="路径" fill="url(#linearGradient-6)" points="58.11 43.840254 115.48 38.530254 174.99 42.780254 119.74 50.220254"></polygon>
                    <polygon id="路径" fill="url(#linearGradient-7)" points="119.74 50.220254 129.3 78.910254 184.55 62.970254 174.99 42.780254"></polygon>
                    <polygon id="路径" fill="url(#linearGradient-8)" points="128.36 45.550254 137.34 67.710254 150.22 63.600254 143.92 47.280254 135.07 48.380254"></polygon>
                    <path d="M119.74,123.530254 L61.67,109.530254 C59.5890007,109.028491 58.1194157,107.17087 58.11,105.030254 L58.11,43.840254 L119.74,50.220254 L119.74,123.530254 Z" id="路径" fill="url(#linearGradient-9)"></path>
                    <polygon id="路径" fill="url(#linearGradient-10)" points="58.11 43.840254 40.04 65.100254 105.92 78.910254 119.74 50.220254"></polygon>
                    <path d="M68.94,85.450254 L103.63,91.140254 C104.524254,91.2935042 105.13256,92.1326999 105,93.030254 L105,93.030254 C104.928992,93.4701434 104.685135,93.8634144 104.322675,94.1225823 C103.960216,94.3817502 103.509215,94.4853206 103.07,94.410254 L68.4,88.750254 C67.9584898,88.6838809 67.5619408,88.4434805 67.2988923,88.0827284 C67.0358439,87.7219762 66.9282018,87.2709145 67,86.830254 L67,86.830254 C67.0708748,86.3883083 67.3161902,85.9933107 67.6809188,85.7338646 C68.0456474,85.4744185 68.4992582,85.3722417 68.94,85.450254 Z" id="路径" fill="url(#linearGradient-11)"></path>
                    <path d="M167.41,86.830254 L133.41,95.640254 C132.528167,95.8491724 131.64064,95.3166563 131.41,94.440254 L131.41,94.440254 C131.201082,93.5584212 131.733598,92.6708944 132.61,92.440254 L166.61,83.630254 C167.491833,83.4213356 168.37936,83.9538517 168.61,84.830254 L168.61,84.830254 C168.818918,85.7120868 168.286402,86.5996136 167.41,86.830254 L167.41,86.830254 Z" id="路径" fill="url(#linearGradient-12)"></path>
                    <rect id="矩形" fill="#FEB99B" transform="translate(139.123848, 68.052522) rotate(32.690000) translate(-139.123848, -68.052522) " x="137.728848" y="66.3675221" width="2.79" height="3.37"></rect>
                    <path d="M152.15,44.410254 C152.15,44.410254 144.61,49.410254 138.39,66.410254 L141.05,68.110254 C141.05,68.110254 157.44,49.640254 159.21,44.990254 C159.21,44.960254 152.92,41.240254 152.15,44.410254 Z" id="路径" fill="#343434"></path>
                    <path d="M137.89,66.930254 C137.65,66.750254 137.14,66.930254 136.58,67.930254 C136.02,68.930254 135.52,69.300254 136.26,69.870254 C137,70.440254 141.39,73.190254 142.63,73.980254 C143.05,74.250254 143.22,73.750254 143.27,73.640254 C143.49,73.130254 143.6,72.220254 142.33,71.230254 C141.45,70.420254 141.09,68.860254 140.66,68.570254 C140.23,68.280254 139.77,68.570254 139.08,68.090254 C138.39,67.610254 138.3,67.240254 137.89,66.930254 Z" id="路径" fill="#000000"></path>
                    <rect id="矩形" fill="#FFD5C3" x="153.59" y="69.980254" width="2.79" height="3.37"></rect>
                    <path d="M156.62,70.660254 L153.46,70.660254 C150,53.660254 152.08,45.950254 152.08,45.950254 C152.08,45.950254 145.67,47.870254 133.82,48.660254 C133.82,48.660254 128.99,49.050254 128.13,43.400254 L128.13,37.860254 L156.95,37.1501292 C156.95,37.1501292 159.23,37.070254 159.88,40.960254 C160.53,44.850254 156.62,70.660254 156.62,70.660254 Z" id="路径" fill="#5C5C5C"></path>
                    <path d="M153.33,71.390254 C153.03,71.390254 152.72,71.830254 152.77,72.950254 C152.82,74.070254 152.62,74.670254 153.55,74.760254 C154.48,74.850254 159.66,74.760254 161.13,74.760254 C161.63,74.760254 161.51,74.250254 161.49,74.130254 C161.4,73.580254 161,72.760254 159.4,72.600254 C158.22,72.390254 157.08,71.270254 156.56,71.260254 C156.04,71.250254 155.82,71.760254 154.97,71.710254 C154.417961,71.6332483 153.870494,71.5264254 153.33,71.390254 L153.33,71.390254 Z" id="路径" fill="#3E3E3E"></path>
                    <rect id="矩形" fill="#FEB99B" x="133.91" y="7.06025402" width="3.51" height="6.47"></rect>
                    <path d="M139.86,3.21025402 C139.86,3.21025402 140.54,9.01025402 139,9.54025402 C137.71,9.98025402 134.49,8.72025402 133.85,7.65025402 C133.09,6.36025402 133.98,3.65025402 133.98,3.65025402 L137.17,1.55025402 L139.73,2.36025402 L139.86,3.21025402 Z" id="路径" fill="#FFD5C3"></path>
                    <path d="M133.91,8.43025402 C133.91,8.43025402 134.41,8.50025402 134.49,7.43025402 C134.495005,7.36084975 134.454579,7.29616797 134.39,7.27025402 C134.06534,7.16480033 133.803609,6.92170104 133.67451,6.605698 C133.545411,6.28969496 133.562052,5.93287066 133.72,5.63025402 C134.11,4.47025402 135.04,5.36025402 135.32,5.92025402 C135.32,5.95339111 135.346863,5.98025402 135.38,5.98025402 C135.413137,5.98025402 135.44,5.95339111 135.44,5.92025402 C135.57,5.02025402 136.11,2.45025402 137.94,2.34025402 C140.15,2.20025402 139.8,4.15025402 139.8,4.15025402 C139.8,4.15025402 140.11,4.03025402 140.08,2.58025402 C140.08,2.58025402 140.48,2.92025402 140.28,3.81025402 C140.28,3.81025402 140.54,3.75025402 140.56,3.13025402 C140.579342,2.42287081 140.28681,1.74273347 139.76,1.27025402 C138.536565,0.229514146 136.909033,-0.204004496 135.33,0.0902540234 C134.852478,0.146111441 134.4064,0.356856908 134.06,0.690254023 C133.880315,0.863199371 133.737453,1.07068976 133.64,1.30025402 C132.592373,1.40159286 131.773966,2.24968242 131.71,3.30025402 C131.63,5.07025402 132.15,6.30025402 132.89,6.87025402 C133.401851,7.25508245 133.762744,7.80703664 133.91,8.43025402 L133.91,8.43025402 Z" id="路径" fill="#301B20"></path>
                    <path d="M161.57,29.180254 C160.26,29.370254 159.86,29.010254 159.75,28.830254 C159.732274,28.8132777 159.722249,28.7897982 159.722249,28.765254 C159.722249,28.7407098 159.732274,28.7172303 159.75,28.700254 C159.893236,28.6501239 160.023185,28.5680512 160.13,28.460254 C160.173975,28.4086152 160.187088,28.3374504 160.164407,28.2735291 C160.141725,28.2096078 160.086688,28.162625 160.02,28.150254 L158,27.830254 L157.53,31.200254 C158.617573,31.3035584 159.714107,31.2598316 160.79,31.070254 C161.130741,31.0186377 161.447935,30.8652692 161.7,30.630254 C162.087018,30.3000894 162.164487,29.7319875 161.88,29.310254 C161.814881,29.2053427 161.690472,29.1531712 161.57,29.180254 Z" id="路径" fill="#FED4C2"></path>
                    <path d="M141.79,14.300254 L147.11,23.140254 C147.263279,23.3464516 147.471078,23.5057642 147.71,23.600254 L158,27.670254 L157.57,31.300254 L144.47,27.120254 C144.23447,27.0440467 144.023776,26.9058865 143.86,26.720254 L136.7,18.720254" id="路径" fill="#0177EC"></path>
                    <path d="M153.25,31.840254 C151.95,32.070254 151.54,31.730254 151.42,31.560254 C151.402274,31.5432777 151.392249,31.5197982 151.392249,31.495254 C151.392249,31.4707098 151.402274,31.4472303 151.42,31.430254 C151.560601,31.3758747 151.687087,31.2904109 151.79,31.180254 C151.834799,31.1258189 151.845774,31.0510539 151.81851,30.98604 C151.791246,30.9210262 151.730226,30.876453 151.66,30.870254 L149.57,30.620254 L149.26,34.030254 C150.352516,34.0973419 151.449088,34.0166127 152.52,33.790254 C152.857099,33.7264185 153.167201,33.5626568 153.41,33.320254 C153.786675,32.9751983 153.842729,32.4017176 153.54,31.990254 C153.483335,31.8854185 153.368304,31.8259199 153.25,31.840254 Z" id="路径" fill="#FED4C2"></path>
                    <path d="M149.73,30.480254 L142.32,27.850254 L142.32,15.030254 C142.32,15.030254 141.84,11.660254 137.42,11.290254 C137.42,11.290254 137.36,13.130254 136.42,13.210254 C135.48,13.290254 133.88,10.300254 133.88,10.300254 C133.88,10.300254 127.66,12.760254 127.28,15.220254 L127.28,15.220254 L127.28,15.220254 C127.266156,15.33651 127.266156,15.453998 127.28,15.570254 L127.28,39.100254 L142.28,39.100254 L142.28,32.100254 L149.39,34.100254 L149.73,30.480254 Z" id="路径" fill="url(#linearGradient-13)"></path>
                    <path d="M149.73,30.480254 L142.32,27.850254 L142.32,15.030254 C142.32,15.030254 141.84,11.660254 137.42,11.290254 C137.42,11.290254 137.36,13.130254 136.42,13.210254 C135.48,13.290254 133.88,10.300254 133.88,10.300254 C133.88,10.300254 127.66,12.760254 127.28,15.220254 L127.28,15.220254 L127.28,15.220254 C127.266156,15.33651 127.266156,15.453998 127.28,15.570254 L127.28,39.100254 L142.28,39.100254 L142.28,32.100254 L149.39,34.100254 L149.73,30.480254 Z" id="路径" fill="#007FFD"></path>
                    <path d="M142.32,27.850254 L142.32,27.850254 L140.51,26.720254 C139.768307,26.244349 139.095373,25.6689902 138.51,25.010254 L131,16.750254 L138.73,26.340254 C138.888672,26.540571 139.099849,26.6928957 139.34,26.780254 L142.32,27.850254 Z" id="路径" fill="#007ADC"></path>
                    <path d="M135.56,30.030254 L128.13,22.250254 L133.92,29.510254 C134.857892,30.4921117 136.042608,31.2036322 137.35,31.570254 L142.35,32.130254 L136.21,30.410254 C135.962299,30.3462852 135.737256,30.2147213 135.56,30.030254 L135.56,30.030254 Z" id="路径" fill="#007ADC"></path>
                </g>
                <text id="暂无内容" font-family="PingFangSC-Regular, PingFang SC" font-size="14" font-weight="normal" fill="#9B9FB2">
                    <tspan x="91" y="172">暂无内容</tspan>
                </text>
            </g>
        </g>
    </g>
</svg>