<?xml version="1.0" encoding="UTF-8"?>
<svg width="450px" height="450px" viewBox="0 0 450 450" version="1.1" xmlns="http://www.w3.org/2000/svg" xmlns:xlink="http://www.w3.org/1999/xlink">
    <title>页面异常</title>
    <defs>
        <polygon id="path-1" points="0 450 450 450 450 0 0 0"></polygon>
        <linearGradient x1="-16.948407%" y1="99.7159694%" x2="99.2363281%" y2="99.7159694%" id="linearGradient-3">
            <stop stop-color="#007FFD" offset="0%"></stop>
            <stop stop-color="#5AADFF" offset="100%"></stop>
        </linearGradient>
        <linearGradient x1="45.2511623%" y1="99.7159694%" x2="99.2363281%" y2="99.7159694%" id="linearGradient-4">
            <stop stop-color="#54AAFF" offset="0%"></stop>
            <stop stop-color="#1A8CFE" offset="100%"></stop>
        </linearGradient>
        <linearGradient x1="45.2511623%" y1="99.7159694%" x2="99.2363281%" y2="99.7159694%" id="linearGradient-5">
            <stop stop-color="#54AAFF" offset="0%"></stop>
            <stop stop-color="#1A8CFE" offset="100%"></stop>
        </linearGradient>
        <linearGradient x1="13.1641624%" y1="6.60942351%" x2="81.7315615%" y2="92.8084396%" id="linearGradient-6">
            <stop stop-color="#B3D6FF" offset="0%"></stop>
            <stop stop-color="#007FFD" offset="100%"></stop>
        </linearGradient>
        <linearGradient x1="50%" y1="-19.0038784%" x2="51%" y2="100%" id="linearGradient-7">
            <stop stop-color="#FFCDA5" offset="0%"></stop>
            <stop stop-color="#FFE8D1" offset="100%"></stop>
        </linearGradient>
        <linearGradient x1="50%" y1="-5.34824667e-15%" x2="51%" y2="100%" id="linearGradient-8">
            <stop stop-color="#FFF2DF" offset="0%"></stop>
            <stop stop-color="#FEE0BC" offset="100%"></stop>
        </linearGradient>
        <linearGradient x1="-3.40942022e-14%" y1="23.4458427%" x2="74.2531583%" y2="100%" id="linearGradient-9">
            <stop stop-color="#FFF2DF" offset="0%"></stop>
            <stop stop-color="#FEE0BC" offset="100%"></stop>
        </linearGradient>
        <linearGradient x1="50%" y1="0%" x2="51%" y2="100%" id="linearGradient-10">
            <stop stop-color="#FFF2DF" offset="0%"></stop>
            <stop stop-color="#FEE0BC" offset="100%"></stop>
        </linearGradient>
        <linearGradient x1="-8.68092737%" y1="79.3761836%" x2="120.036937%" y2="50%" id="linearGradient-11">
            <stop stop-color="#5CAEFF" offset="0%"></stop>
            <stop stop-color="#007FFD" offset="100%"></stop>
        </linearGradient>
        <linearGradient x1="50%" y1="116.487765%" x2="51%" y2="-14.3163109%" id="linearGradient-12">
            <stop stop-color="#73B7FE" offset="0%"></stop>
            <stop stop-color="#007FFD" offset="100%"></stop>
        </linearGradient>
        <linearGradient x1="50%" y1="116.487765%" x2="50.9693758%" y2="-14.3163109%" id="linearGradient-13">
            <stop stop-color="#73B7FE" offset="0%"></stop>
            <stop stop-color="#007FFD" offset="100%"></stop>
        </linearGradient>
        <linearGradient x1="2.24203423e-14%" y1="12.1995278%" x2="89.3932735%" y2="70.4192369%" id="linearGradient-14">
            <stop stop-color="#56ABFF" offset="0%"></stop>
            <stop stop-color="#0380FD" offset="100%"></stop>
        </linearGradient>
        <linearGradient x1="89.3932735%" y1="9.06122412%" x2="17.6863611%" y2="100%" id="linearGradient-15">
            <stop stop-color="#54AAFF" offset="0%"></stop>
            <stop stop-color="#007FFD" offset="100%"></stop>
        </linearGradient>
        <linearGradient x1="6.29162413e-15%" y1="12.1995278%" x2="89.3932735%" y2="70.4192369%" id="linearGradient-16">
            <stop stop-color="#5CAEFF" offset="0%"></stop>
            <stop stop-color="#007FFD" offset="100%"></stop>
        </linearGradient>
        <linearGradient x1="89.3932735%" y1="9.06122412%" x2="17.6863611%" y2="100%" id="linearGradient-17">
            <stop stop-color="#47A3FE" offset="0%"></stop>
            <stop stop-color="#0883FD" offset="100%"></stop>
        </linearGradient>
        <linearGradient x1="89.3932735%" y1="9.06122412%" x2="17.6863611%" y2="100%" id="linearGradient-18">
            <stop stop-color="#44A2FE" offset="0%"></stop>
            <stop stop-color="#0D86FD" offset="100%"></stop>
        </linearGradient>
        <linearGradient x1="-74.8086841%" y1="-33.1320248%" x2="169.001874%" y2="237.897432%" id="linearGradient-19">
            <stop stop-color="#EDF6FF" offset="0%"></stop>
            <stop stop-color="#007FFD" offset="100%"></stop>
        </linearGradient>
        <linearGradient x1="-122.016859%" y1="-33.1320248%" x2="214.013656%" y2="237.897432%" id="linearGradient-20">
            <stop stop-color="#EDF6FF" offset="0%"></stop>
            <stop stop-color="#007FFD" offset="100%"></stop>
        </linearGradient>
        <linearGradient x1="-299.957967%" y1="-33.1320248%" x2="383.67593%" y2="237.897432%" id="linearGradient-21">
            <stop stop-color="#EDF6FF" offset="0%"></stop>
            <stop stop-color="#007FFD" offset="100%"></stop>
        </linearGradient>
        <linearGradient x1="-330.446916%" y1="-33.1320248%" x2="412.74636%" y2="237.897432%" id="linearGradient-22">
            <stop stop-color="#EDF6FF" offset="0%"></stop>
            <stop stop-color="#007FFD" offset="100%"></stop>
        </linearGradient>
        <linearGradient x1="-261.319731%" y1="-33.1320248%" x2="346.835365%" y2="237.897432%" id="linearGradient-23">
            <stop stop-color="#EDF6FF" offset="0%"></stop>
            <stop stop-color="#007FFD" offset="100%"></stop>
        </linearGradient>
        <linearGradient x1="50%" y1="0%" x2="51%" y2="100%" id="linearGradient-24">
            <stop stop-color="#007FFD" offset="0%"></stop>
            <stop stop-color="#7DBCFE" offset="100%"></stop>
        </linearGradient>
        <linearGradient x1="-26.255282%" y1="-3.61464618e-14%" x2="130.511183%" y2="63.3093638%" id="linearGradient-25">
            <stop stop-color="#73B7FE" offset="0%"></stop>
            <stop stop-color="#007FFD" offset="100%"></stop>
        </linearGradient>
    </defs>
    <g id="安徽工程造价评优" stroke="none" stroke-width="1" fill="none" fill-rule="evenodd">
        <g id="页面异常" transform="translate(-495.000000, -116.000000)">
            <g transform="translate(495.000000, 116.000000)">
                <g id="Clipped">
                    <mask id="mask-2" fill="white">
                        <use xlink:href="#path-1"></use>
                    </mask>
                    <g id="path_4"></g>
                </g>
                <path d="M59.055,171.222187 C-19.305,208.122187 25.935,260.182187 25.935,260.182187 C25.935,260.182187 79.325,294.902187 59.055,308.672187 C38.785,322.482187 13.775,380.462187 49.525,395.732187 C85.315,410.962187 274.985,427.662187 382.015,384.372187 C489.055,341.082187 418.245,288.912187 410.695,286.942187 C403.145,284.932187 355.365,255.832187 382.015,190.742187 C432.085,37.0721875 277.785,67.1621875 253.505,93.0721875 C229.265,119.022187 192.695,126.132187 153.675,111.102187 C114.645,96.0321875 101.365,105.112187 96.405,134.592187 C91.395,164.082187 101.235,160.952187 59.055,171.222187 Z" id="路径-64" fill="#F5FBFF"></path>
                <g id="Clipped" transform="translate(358.000000, 355.000000)">
                    <path d="M16.1675319,32.1153796 C16.1675319,31.2453796 13.8575319,30.5453796 11.0075319,30.5453796 C8.14753188,30.5453796 5.83753188,31.2453796 5.83753188,32.1153796 C5.83753188,32.9853796 8.14753188,33.6853796 11.0075319,33.6853796 C13.8575319,33.6853796 16.1675319,32.9853796 16.1675319,32.1153796 Z" id="椭圆形" fill="url(#linearGradient-3)"></path>
                    <path d="M6.86831313,31.3405358 C11.1283131,14.1905358 15.3983131,15.2405358 16.9883131,12.5405358 C18.5783131,9.84053585 16.2983131,10.2605358 14.2483131,10.5305358 C6.44831313,13.3705358 5.38831313,31.3505358 5.38831313,31.3505358 C5.38831313,31.3505358 6.29831313,32.4405358 6.86831313,31.3405358 Z" id="路径-42" fill="url(#linearGradient-4)"></path>
                    <path d="M7.45768813,29.5885046 C10.1776881,19.8385046 9.47768813,3.8085046 3.58768813,0.688504596 C-2.30231187,-2.4314954 0.52768813,5.8185046 1.85768813,10.1085046 C3.18768813,14.3985046 5.27768813,31.0485046 5.27768813,31.0485046 C5.27768813,31.0485046 6.17768813,33.2885046 7.45768813,29.5885046 Z" id="路径-41" fill="url(#linearGradient-5)"></path>
                </g>
                <path d="M130.986562,169.339063 C130.986562,162.699062 126.026562,157.319063 119.916562,157.319063 L113.276562,157.319063 C113.276562,144.049062 102.496563,133.289062 89.2165625,133.289062 C75.9165625,133.289062 65.1465625,144.049062 65.1465625,157.319063 L60.2965625,157.319063 C54.1765625,157.319063 49.2265625,162.699062 49.2265625,169.339063 C49.2265625,175.979062 54.1765625,181.359062 60.2965625,181.359062 L119.916562,181.359062 C126.026562,181.359062 130.986562,175.979062 130.986562,169.339063 Z" id="云" fill="#96C8FF" opacity="0.39578683"></path>
                <g id="Clipped" transform="translate(209.277344, 414.746094)" fill="#E4F0FF">
                    <path d="M57.05,7.41 C57.05,3.32 44.28,0 28.53,0 C12.77,0 0,3.32 0,7.41 C0,11.51 12.77,14.82 28.53,14.82 C44.28,14.82 57.05,11.51 57.05,7.41 Z" id="椭圆形"></path>
                </g>
                <g id="Clipped" transform="translate(129.000000, 234.000000)">
                    <path d="M93.1183193,60.6445312 C89.1083193,60.6445312 87.1083193,62.6645313 87.1083193,66.7045313 C87.1083193,70.7545312 89.1083193,72.7745312 93.1183193,72.7745312 L159.258319,72.7745312 C163.268319,72.7745312 165.268319,70.7545312 165.268319,66.7045313 C165.268319,62.6645313 163.268319,60.6445312 159.258319,60.6445312 L93.1183193,60.6445312 Z" id="路径" fill="#FFFFFF"></path>
                    <path d="M111.039924,90.7421875 C107.029924,90.7421875 105.019924,92.7621875 105.019924,96.8021875 C105.019924,100.852187 107.029924,102.872187 111.039924,102.872187 L159.199924,102.872187 C163.209924,102.872187 165.219924,100.852187 165.219924,96.8021875 C165.219924,92.7621875 163.209924,90.7421875 159.199924,90.7421875 L111.039924,90.7421875 Z" id="路径" fill="#FFFFFF"></path>
                    <path d="M192.329855,84.9 C192.329855,38.02 154.319855,0 107.429855,0 C60.549855,0 22.529855,38.02 22.529855,84.9 C22.529855,131.79 60.549855,169.8 107.429855,169.8 C154.319855,169.8 192.329855,131.79 192.329855,84.9 Z" id="椭圆形" fill="url(#linearGradient-6)"></path>
                    <path d="M97.6654243,32.7106324 C97.6654243,27.6906324 89.8054243,23.6206324 80.1054243,23.6206324 C70.4054243,23.6206324 62.5454243,27.6906324 62.5454243,32.7106324 C62.5454243,37.7306324 70.4054243,41.8006324 80.1054243,41.8006324 C89.8054243,41.8006324 97.6654243,37.7306324 97.6654243,32.7106324 Z" id="椭圆形" fill="#FFFFFF" opacity="0.14969308" transform="translate(80.105424, 32.710632) rotate(-17.067486) translate(-80.105424, -32.710632) "></path>
                    <path d="M142.410957,70.3001563 C142.410957,60.0101562 134.060957,51.6601562 123.760957,51.6601562 C113.470957,51.6601562 105.120957,60.0101562 105.120957,70.3001563 C105.120957,80.6001562 113.470957,88.9501562 123.760957,88.9501562 C134.060957,88.9501562 142.410957,80.6001562 142.410957,70.3001563 Z" id="椭圆形" fill="#FFFFFF" opacity="0.0924944196"></path>
                    <path d="M168.062844,45.979419 C168.062844,43.619419 165.062844,41.709419 161.362844,41.709419 C157.652844,41.709419 154.652844,43.619419 154.652844,45.979419 C154.652844,48.339419 157.652844,50.249419 161.352844,50.249419 C165.062844,50.249419 168.062844,48.329419 168.062844,45.979419 Z" id="椭圆形" fill="#FFFFFF" opacity="0.0924944196" transform="translate(161.357844, 45.979419) rotate(46.235767) translate(-161.357844, -45.979419) "></path>
                    <path d="M121.586344,125.375625 C183.256344,106.215625 229.006344,76.975625 223.766344,60.075625 C221.116344,51.585625 206.126344,47.835625 184.016344,48.615625 C184.446344,49.525625 185.966344,52.795625 186.376344,53.725625 C194.866344,53.725625 212.806344,53.555625 217.706344,60.675625 C224.126344,74.075625 172.456344,103.685625 120.896344,120.165625 C69.3363445,136.645625 11.1063445,142.825625 5.34634447,128.105625 C3.30634447,123.305625 10.0063445,114.565625 24.6863445,104.705625 C24.4863445,103.725625 23.8363445,100.475625 23.6563445,99.485625 C6.93634447,110.675625 -2.07365553,121.475625 0.406344468,129.495625 C5.65634447,146.395625 59.9263445,144.555625 121.586344,125.375625 Z" id="路径" fill="#B0D5FF"></path>
                    <path d="M55.9567443,105.794375 C55.9567443,99.964375 51.2367443,95.234375 45.4067443,95.234375 C39.5767443,95.234375 34.8467443,99.964375 34.8467443,105.794375 C34.8467443,111.624375 39.5767443,116.344375 45.4067443,116.344375 C51.2367443,116.344375 55.9567443,111.624375 55.9567443,105.794375 Z" id="椭圆形" fill="#FFFFFF" opacity="0.0924944196"></path>
                    <path d="M116.059169,112.305625 C116.059169,108.835625 113.239169,106.015625 109.769169,106.015625 C106.299169,106.015625 103.479169,108.835625 103.479169,112.305625 C103.479169,115.775625 106.299169,118.595625 109.769169,118.595625 C113.239169,118.595625 116.059169,115.775625 116.059169,112.305625 Z" id="椭圆形" fill="#FFFFFF" opacity="0.0924944196"></path>
                </g>
                <g id="编组" transform="translate(199.000000, 146.000000)">
                    <path d="M84.45,99.2799383 C84.45,91.8299383 65.54,85.7999383 42.23,85.7999383 C18.91,85.7999383 0,91.8299383 0,99.2799383 C0,106.719938 18.91,112.749938 42.23,112.749938 C65.54,112.749938 84.45,106.719938 84.45,99.2799383 Z" id="椭圆形" fill="#78B4FF" opacity="0.2"></path>
                    <path d="M4.8721875,66.3199383 C4.8721875,66.3199383 4.3821875,67.1499383 4.5121875,67.9499383 C4.6521875,68.7899383 5.4121875,69.4099383 5.4121875,69.4099383 L21.0021875,78.1599383 L21.1121875,70.4899383 L14.4421875,66.4999383 L19.3121875,59.0499383 L10.1121875,57.0499383 L4.8721875,66.3199383 Z" id="胳膊-path" fill="#FEE0BC"></path>
                    <path d="M65.5890625,59.0499383 L70.4690625,66.5099383 L63.7890625,70.5199383 L63.9490625,78.6099383 L79.4890625,69.4199383 C79.4890625,69.4199383 80.2490625,68.8099383 80.3890625,67.9699383 C80.5190625,67.1699383 80.0290625,66.3299383 80.0290625,66.3299383 L74.7990625,57.0499383 L65.5890625,59.0499383 Z" id="胳膊-path" fill="#FEE0BC"></path>
                    <g transform="translate(25.605469, 0.000000)">
                        <polygon id="矩形" fill="url(#linearGradient-7)" points="11.2304687 39.5260321 20.2104687 39.5260321 20.2104687 30.5460321 11.2304687 30.5460321"></polygon>
                        <g>
                            <path d="M28.3045312,21.3327508 C28.3045312,14.7627508 22.6645312,9.43275082 15.7245312,9.43275082 C8.77453125,9.43275082 3.14453125,14.7627508 3.14453125,21.3327508 C3.14453125,27.9127508 8.77453125,33.2427508 15.7245312,33.2427508 C22.6645312,33.2427508 28.3045312,27.9127508 28.3045312,21.3327508 Z" id="椭圆形" fill="url(#linearGradient-8)"></path>
                            <path d="M30.9939062,21.7863446 C30.9939062,20.1763446 29.9939062,18.8663446 28.7539062,18.8663446 C27.5139062,18.8663446 26.5039062,20.1763446 26.5039062,21.7863446 C26.5039062,23.3963446 27.5139062,24.7063446 28.7539062,24.7063446 C29.9939062,24.7063446 30.9939062,23.3963446 30.9939062,21.7863446 Z" id="椭圆形" fill="url(#linearGradient-9)"></path>
                            <path d="M4.78128666,23.4504926 C4.78128666,21.8104926 3.80128666,20.4904926 2.59128666,20.4904926 C1.38128666,20.4904926 0.391286655,21.8204926 0.391286655,23.4604926 C0.391286655,25.0904926 1.37128666,26.4204926 2.58128666,26.4204926 C3.79128666,26.4104926 4.78128666,25.0904926 4.78128666,23.4504926 Z" id="椭圆形备份" fill="url(#linearGradient-10)" transform="translate(2.586287, 23.455493) rotate(-8.000000) translate(-2.586287, -23.455493) "></path>
                            <path d="M31.3992187,14.6591571 C31.7992187,10.9091571 29.6892187,3.51915707 22.4392187,1.02915707 C15.1792187,-1.45084293 10.4592187,1.14915707 9.52921875,2.57915707 C8.37921875,1.91915707 7.13921875,2.61915707 4.95921875,3.89915707 C2.77921875,5.16915707 -0.47078125,11.5091571 0.69921875,18.2491571 C1.84921875,22.4791571 4.44921875,23.8091571 4.44921875,23.8091571 L4.70921875,22.5091571 C4.70921875,22.5091571 5.16921875,22.7191571 5.63921875,22.7991571 C5.40921875,20.7391571 5.96921875,19.2291571 6.74921875,20.5991571 C7.13921875,15.7991571 8.29921875,13.4791571 9.06921875,11.7291571 C9.55921875,10.3391571 10.5192187,11.1391571 10.8992187,11.3891571 C11.1792187,10.3091571 11.9492187,10.2291571 13.0892187,11.0491571 C14.2292187,11.8691571 18.3892187,16.0691571 18.3892187,16.0691571 L18.7192187,15.3091571 C18.7192187,15.3091571 23.1792187,16.9091571 25.9392187,20.7291571 C26.3992187,19.4291571 26.4192187,17.6491571 26.7392187,18.4691571 C27.0692187,19.2891571 26.9792187,21.0691571 26.6892187,22.5291571 C27.6692187,21.6991571 28.2892187,18.7891571 28.2892187,18.7891571 L28.2892187,22.5291571 C28.2892187,22.5291571 30.9992187,18.3991571 31.3992187,14.6591571 Z" id="路径-67" fill="#000000"></path>
                        </g>
                    </g>
                    <path d="M24.3567187,37.6197821 C23.5367187,38.1197821 22.7567187,38.6697821 21.9967187,39.2697821 C21.1767187,39.9597821 20.3867188,40.6897821 19.6367188,41.4697821 L7.63671875,56.2997821 C9.35671875,57.7997821 11.2467187,59.0897821 13.2667187,60.1497821 C16.3167187,61.6497821 19.8167187,62.3397821 19.8167187,62.3397821 L22.1867187,59.4097821 L22.1867187,86.6997821 L62.8967187,86.6997821 L62.8967187,59.7797821 L66.9067187,63.6297821 C66.9067187,63.6297821 70.3467187,62.2697821 72.8967187,60.5097821 C74.5267187,59.3697821 75.9967187,58.0197821 77.2667187,56.4797821 L72.1767187,50.8097821 C72.1767187,50.8097821 64.9167187,42.3397821 60.5367187,37.9897821 C58.9567187,36.4097821 56.3567187,35.9697821 56.3567187,35.9697821 L45.2667187,34.1397821 L41.2667187,38.0097821 C41.2667187,38.0097821 38.0667187,34.8197821 36.9067187,34.1397821 C36.9067187,34.1397821 31.1567187,35.4897821 27.4567187,36.5197821 C26.3967187,36.8197821 25.3667188,37.1797821 24.3567187,37.6197821 Z" id="衣服" fill="url(#linearGradient-11)"></path>
                    <path d="M73.5245312,90.9579071 C73.5245312,90.9579071 82.0345312,89.2879071 79.4845312,81.3079071 C76.5945312,72.2679071 66.6445312,76.4179071 66.6445312,76.4179071 L41.5145312,83.1179071 L16.4445312,76.4279071 C16.4445312,76.4279071 6.50453125,72.2879071 3.62453125,81.3179071 C1.07453125,89.2879071 9.57453125,90.9679071 9.57453125,90.9679071 L15.9445312,92.1379071 L18.7445312,101.077907 L41.5345312,96.8679071 L64.2845312,101.077907 L67.0845312,92.1479071 L73.5245312,90.9579071 Z" id="裤子" fill="#2A416A"></path>
                    <path d="M7.84453125,94.4350946 C7.84453125,94.4350946 4.60453125,94.3150946 3.93453125,95.2650946 C2.64453125,97.0850946 3.32453125,100.795095 3.32453125,100.795095 C3.32453125,100.795095 3.72453125,102.325095 4.49453125,103.015095 C5.14453125,103.605095 6.33453125,103.165095 6.33453125,103.165095 C6.33453125,103.165095 8.47453125,102.585095 10.7545312,102.095095 C13.8445312,101.415095 15.1645312,101.195095 15.1645312,101.195095 L18.4145312,100.295095 L16.4345312,94.3350946 L13.7245312,94.5150946 C12.8745312,94.5650946 12.0345312,94.5650946 11.1945312,94.5150946 C9.45453125,94.4450946 7.84453125,94.4350946 7.84453125,94.4350946 Z M78.5683312,103.015095 C79.3583312,102.325095 79.7783312,100.795095 79.7783312,100.795095 C79.7783312,100.795095 80.4782312,97.0850946 79.1483312,95.2650946 C78.4482312,94.3150946 75.1282312,94.4350946 75.1282312,94.4350946 C75.1282312,94.4350946 73.4682312,94.4450946 71.6783312,94.5150946 C70.8082312,94.5650946 69.9382312,94.5650946 69.0782312,94.5150946 L66.2882312,94.3350946 L64.2383312,100.295095 L67.5882312,101.195095 C67.5882312,101.195095 68.9482312,101.415095 72.1282312,102.095095 C74.4782312,102.585095 76.6783312,103.165095 76.6783312,103.165095 C76.6783312,103.165095 77.9082312,103.595095 78.5683312,103.015095 Z" id="脚" fill="#FEE0BC"></path>
                    <path d="M19.7656255,47.4302508 L19.7656255,76.3702508 L63.7855875,76.3702508 L63.7855875,47.4302508 C63.7855875,46.2902508 62.8055875,45.3702508 61.5955875,45.3702508 L21.9656275,45.3702508 C20.7556275,45.3702508 19.7656255,46.2902508 19.7656255,47.4302508 Z M18.8671875,78.3863508 C18.8671875,79.5063508 19.6271875,80.4063508 20.5771875,80.4063508 L63.4271875,80.4063508 C64.0371875,80.4063508 64.6071875,80.0263508 64.9071875,79.3963508 C65.2071875,78.7763508 65.2071875,78.0063508 64.9071875,77.3763508 C64.6071875,76.7563508 64.0371875,76.3663508 63.4271875,76.3663508 L20.5771875,76.3663508 C19.6271875,76.3663508 18.8671875,77.2763508 18.8671875,78.3863508 Z" id="电脑" fill="#214F9B"></path>
                </g>
                <path d="M324.257123,206.407069 L324.257123,209.417069 L330.187123,209.417069 L330.187123,206.407069 C330.187123,201.297069 334.037123,197.387069 339.077123,197.387069 C344.117123,197.387069 347.977123,201.297069 347.977123,206.407069 L347.977123,209.417069 C347.977123,214.527069 344.117123,218.437069 339.077123,218.437069 L336.117123,218.437069 L336.117123,224.447069 L336.117123,230.457069 L342.047123,230.457069 L342.047123,224.147069 C348.867123,222.647069 353.907123,216.627069 353.907123,209.417069 L353.907123,206.407069 C353.907123,197.987069 347.387123,191.377069 339.077123,191.377069 C330.777123,191.377069 324.257123,197.987069 324.257123,206.407069 Z M336.322423,239.151569 L342.162423,239.151569 L342.162423,233.311569 L336.322423,233.311569 L336.322423,239.151569 Z" id="形状" fill="url(#linearGradient-12)" transform="translate(339.082123, 215.264319) rotate(45.000000) translate(-339.082123, -215.264319) "></path>
                <path d="M306.109673,201.680657 C311.069673,200.590657 314.729673,196.240657 314.729673,191.010657 L314.729673,188.830657 C314.729673,182.740657 309.989673,177.950657 303.949673,177.950657 C297.909673,177.950657 293.169673,182.740657 293.169673,188.830657 L293.169673,191.010657 L297.479673,191.010657 L297.479673,188.830657 C297.479673,185.130657 300.289673,182.300657 303.949673,182.300657 C307.619673,182.300657 310.419673,185.130657 310.419673,188.830657 L310.419673,191.010657 C310.419673,194.710657 307.619673,197.540657 303.949673,197.540657 L301.799673,197.540657 L301.799673,201.900657 L301.799673,206.250657 L306.109673,206.250657 L306.109673,201.680657 Z M301.477013,213.234357 L305.966973,213.234357 L305.966973,208.744357 L301.477013,208.744357 L301.477013,213.234357 Z" id="形状" fill="url(#linearGradient-13)" transform="translate(303.949673, 195.592507) rotate(15.000000) translate(-303.949673, -195.592507) "></path>
                <g id="Clipped" transform="translate(49.355577, 283.571585)">
                    <path d="M8.08582922,1.2926342 C8.15582922,3.0726342 8.33582922,5.1726342 8.87582922,6.8326342 C9.72582922,9.4326342 11.2158292,14.4726342 12.9358292,17.8126342 C13.0358292,18.0126342 15.5758292,24.8526342 20.2758292,28.4926342 C21.8558292,29.7226342 24.1258292,31.4626342 25.7958292,29.9826342 C27.4758292,28.4926342 26.9258292,24.1626342 26.5958292,22.4426342 C24.5158292,15.8826342 21.2658292,8.6026342 17.0958292,4.3426342 C14.7258292,1.9126342 11.8958292,-0.447365805 8.87582922,0.0726341951 C8.64582922,0.112634195 8.40582922,0.182634195 8.25582922,0.402634195 C8.09582922,0.632634195 8.07582922,0.972634195 8.08582922,1.2926342 Z" id="路径" fill="url(#linearGradient-14)"></path>
                    <path d="M35.5183292,38.3793529 C37.9483292,30.7293529 43.2383292,27.2893529 47.4383292,22.0693529 C49.0983292,20.0093529 50.6583292,17.8593529 51.9883292,15.4693529 C53.5683292,12.6293529 56.7283292,6.77935295 51.3383292,7.74935295 C45.3383292,8.80935295 37.4683292,18.1893529 35.5183292,20.7193529 C32.6383292,24.4393529 30.1183292,31.0893529 29.6483292,33.8793529 C29.6483292,33.8793529 29.7083292,43.0693529 33.2183292,41.5693529 C34.3383292,41.0893529 35.0883292,39.7593529 35.5183292,38.3793529 Z" id="路径" fill="url(#linearGradient-15)"></path>
                    <path d="M21.2798917,58.6816967 C22.0498917,57.2016967 22.4598917,57.0016967 22.4598917,53.6716967 C22.4598917,50.3416967 21.1398917,45.9916967 19.8798917,44.1216967 C19.5098917,43.1116967 16.8798917,39.4316967 11.6998917,36.8316967 C7.37989172,34.2616967 1.02989172,34.8316967 0.26989172,36.2216967 C-0.60010828,37.7816967 0.83989172,39.5316967 1.66989172,40.4616967 C3.37989172,42.4016967 5.75989172,43.6316967 9.69989172,47.0516967 C9.69989172,47.0516967 14.3498917,51.2116967 17.8798917,58.6816967 C18.6698917,60.3716967 20.6898917,59.8116967 21.2798917,58.6816967 Z" id="路径" fill="url(#linearGradient-16)"></path>
                    <path d="M37.1266105,49.9104467 C37.7066105,51.1004467 38.8266105,51.7904467 39.9066105,51.6404467 C40.8566105,51.5104467 41.6866105,50.7904467 42.4066105,49.9804467 C43.4666105,48.8304467 43.9266105,47.7304467 44.7966105,46.3504467 C45.6866105,44.9404467 46.6566105,42.8904467 47.7966105,41.8104467 C49.4766105,40.2104467 53.1766105,35.8604467 57.3566105,33.4004467 C58.4766105,32.2104467 68.7966105,27.4104467 67.7566105,24.9804467 C67.1866105,23.6404467 59.6166105,24.4904467 58.4966105,24.9804467 C53.6066105,26.5904467 56.0066105,25.8904467 51.7366105,27.8704467 L49.5666105,28.9304467 C48.6466105,29.3604467 45.7366105,31.1204467 44.7966105,31.4604467 C44.2966105,31.6404467 41.7366105,34.3704467 41.3466105,34.8104467 C40.3466105,35.9504467 41.0266105,37.0204467 39.9066105,37.9604467 C39.4966105,38.3104467 38.4066105,39.8304467 37.9866105,40.1604467 C37.1966105,40.7604467 36.6466105,43.2904467 36.5566105,44.4804467 C36.3766105,46.7104467 36.1166105,47.8504467 37.1266105,49.9104467 Z" id="路径" fill="url(#linearGradient-17)"></path>
                    <path d="M57.4578958,53.1417345 C58.5078958,54.2317345 59.3378958,55.6817345 60.9778958,55.9817345 C61.1378958,56.0117345 61.3278958,56.0317345 61.4678958,55.9317345 C61.8478958,55.6717345 61.9478958,54.3217345 62.0878958,53.8717345 C62.3478958,53.0217345 62.3978958,52.1317345 62.3078958,51.2917345 C62.1178958,49.5917345 61.2778958,47.9917345 59.9378958,46.8117345 C57.5678958,44.7517345 53.8678958,44.0017345 50.3478958,44.5617345 C46.8278958,45.1117345 43.5078958,46.8617345 40.9378958,49.1617345 C40.2578958,49.7617345 39.5978958,50.5417345 39.3878958,51.3517345 C39.3278958,51.5817345 39.3878958,51.8317345 39.5978958,51.9417345 C39.7778958,52.0517345 40.0178958,52.0317345 40.2478958,51.9917345 C41.8178958,51.7317345 43.1578958,50.6817345 44.6878958,50.2417345 C44.8578958,50.1917345 45.0378958,50.1517345 45.2078958,50.1217345 C47.6278958,49.6817345 49.8978958,50.2317345 52.1778958,50.6117345 C54.2678958,50.9617345 56.1178958,51.7517345 57.4578958,53.1417345 Z" id="路径" fill="url(#linearGradient-18)" transform="translate(50.857525, 50.194174) rotate(-37.000000) translate(-50.857525, -50.194174) "></path>
                    <path d="M29.3509558,51.0709187 C28.7609558,46.5809187 28.0809558,42.0909187 27.1909558,37.6809187 C26.2909558,33.2209187 25.1809558,28.8109187 23.6909558,24.6209187 C23.5109558,24.0909187 23.3209558,23.5709187 23.1209558,23.0609187 C22.9709558,22.6609187 22.5209558,22.5409187 22.2309558,22.7609187 C21.9109558,23.0009187 21.8409558,23.5009187 22.0009558,23.9109187 C23.5509558,27.9609187 24.6909558,32.2409187 25.6209558,36.5909187 C26.5609558,40.9909187 27.2709558,45.4609187 27.8909558,49.9409187 C28.5209558,54.5609187 29.0809558,59.1909187 29.6109558,63.8209187 C30.1609558,68.5309187 30.6709558,73.2509187 31.1409558,77.9709187 C31.6209558,82.7209187 32.0609558,87.4709187 32.4709558,92.2309187 C32.5209558,92.8409187 32.5709558,93.4409187 32.6209558,94.0509187 C32.6209558,94.0509187 32.9009558,94.8909187 33.2709558,94.8909187 C33.6009558,94.8909187 33.9209558,94.0509187 33.9209558,94.0509187 C33.5209558,89.2409187 33.0809558,84.4409187 32.6109558,79.6409187 C32.1309558,74.8209187 31.6209558,70.0009187 31.0709558,65.1809187 C30.5409558,60.4709187 29.9709558,55.7709187 29.3509558,51.0709187 Z" id="路径" fill="url(#linearGradient-19)" transform="translate(27.919628, 58.771474) rotate(2.000000) translate(-27.919628, -58.771474) "></path>
                    <path d="M39.5519295,19.8016679 C37.2219295,23.5016679 35.2019295,27.5116679 33.4919295,31.7516679 C31.7719295,36.0016679 30.3719295,40.4616679 29.2619295,45.0416679 C28.1219295,49.7416679 27.3119295,54.5716679 26.7819295,59.4616679 C26.2019295,64.8516679 25.9619295,70.2816679 26.0219295,75.7216679 C26.0819295,81.1716679 26.4419295,86.6116679 27.0319295,92.0116679 C27.0319295,92.0116679 27.1719295,93.3216679 27.2519295,93.9816679 C27.3119295,94.4316679 27.7419295,94.6816679 28.0519295,94.5816679 C28.4219295,94.4416679 28.5019295,93.5216679 28.5019295,93.5216679 C27.8819295,88.2616679 27.4819295,82.9616679 27.3519295,77.6416679 C27.2319295,72.3316679 27.3819295,67.0016679 27.8619295,61.7316679 C28.3019295,56.8316679 29.0519295,51.9716679 30.1119295,47.2416679 C31.1119295,42.7616679 32.4019295,38.3916679 33.9819295,34.2216679 C35.5719295,30.0516679 37.4519295,26.0416679 39.6419295,22.3616679 C39.9119295,21.9116679 40.1919295,21.4516679 40.4719295,21.0016679 C40.6919295,20.6516679 40.7319295,20.1416679 40.4719295,19.8016679 C40.2419295,19.5016679 39.7719295,19.4416679 39.5519295,19.8016679 Z" id="路径" fill="url(#linearGradient-20)" transform="translate(33.332605, 57.078607) rotate(2.000000) translate(-33.332605, -57.078607) "></path>
                    <path d="M34.7936417,94.1709154 C34.1936417,89.6109154 33.7936417,85.0109154 33.6836417,80.3809154 C33.5836417,75.8009154 33.7736417,71.1809154 34.3836417,66.6809154 C34.6736417,64.5509154 35.0536417,62.4409154 35.5436417,60.3709154 C35.7536417,59.4809154 35.9836417,58.5909154 36.2236417,57.7109154 C36.4736417,56.8309154 36.7636417,55.9009154 37.0236417,55.1409154 C37.6136417,53.4009154 38.2836417,51.7109154 39.0236417,50.0709154 C39.4036417,49.2609154 39.7936417,48.4509154 40.2036417,47.6709154 C40.4136417,47.2809154 40.6336417,46.8809154 40.8536417,46.5009154 C41.0636417,46.1209154 41.2636417,45.7809154 41.4436417,45.4909154 C43.2436417,42.5309154 45.3836417,39.8809154 47.7336417,37.8309154 C48.0336417,37.5709154 48.3336417,37.3109154 48.6436417,37.0709154 C48.9436417,36.8309154 49.0636417,36.3109154 48.8736417,35.9109154 C48.7036417,35.5209154 48.2836417,35.3609154 47.9736417,35.6009154 C45.4236417,37.6609154 43.1336417,40.2509154 41.1936417,43.2109154 C39.2436417,46.1809154 37.6236417,49.4909154 36.3336417,53.0109154 C34.9836417,56.6909154 34.0036417,60.5709154 33.3636417,64.5609154 C32.6236417,69.2009154 32.3136417,73.9409154 32.3436417,78.6709154 C32.3736417,83.4309154 32.7436417,88.1709154 33.3036417,92.8809154 C33.3736417,93.4609154 33.4536417,94.0409154 33.5336417,94.6209154 C33.5836417,95.0709154 34.0236417,95.3209154 34.3336417,95.2109154 C34.7136417,95.0809154 34.8536417,94.6209154 34.7936417,94.1709154 Z" id="路径" fill="url(#linearGradient-21)"></path>
                    <path d="M44.6397355,54.5974779 C44.7197355,54.4574779 44.8097355,54.3174779 44.8997355,54.1674779 C44.8997355,54.1674779 44.9297355,54.1074779 44.9597355,54.0674779 C44.9597355,54.0674779 45.0497355,53.9074779 45.0997355,53.8374779 C45.2897355,53.5374779 45.4697355,53.2474779 45.6597355,52.9574779 C46.2197355,52.0874779 46.8097355,51.2374779 47.4297355,50.4174779 C47.6697355,50.0874779 47.6997355,49.5274779 47.4297355,49.2074779 C47.1697355,48.9074779 46.7397355,48.8674779 46.4797355,49.2074779 C44.7997355,51.4674779 43.2897355,53.9274779 41.9497355,56.5374779 C40.6397355,59.1074779 39.5097355,61.8274779 38.5497355,64.6474779 C37.5697355,67.5174779 36.7597355,70.4874779 36.1397355,73.5274779 C35.5197355,76.5674779 35.0897355,79.6674779 34.8397355,82.7974779 C34.5897355,85.8274779 34.5297355,88.8874779 34.6497355,91.9274779 C34.6697355,92.2974779 34.6797355,92.6674779 34.6997355,93.0374779 C34.7297355,93.4774779 34.9897355,93.9074779 35.3697355,93.8874779 C35.7097355,93.8674779 36.0697355,93.5074779 36.0397355,93.0374779 C35.8697355,90.0274779 35.8897355,86.9974779 36.0897355,83.9974779 C36.1397355,83.2274779 36.1997355,82.4674779 36.2697355,81.7074779 C36.2897355,81.5274779 36.3297355,81.1674779 36.3297355,81.1674779 C36.3297355,81.1674779 36.3297355,81.0974779 36.3397355,81.0374779 C36.3197355,81.2174779 36.3697355,80.7174779 36.3697355,80.7174779 C36.5797355,78.8274779 36.8597355,76.9674779 37.2097355,75.1074779 C37.7697355,72.1374779 38.4997355,69.2074779 39.4097355,66.3774779 C39.4097355,66.3774779 39.4697355,66.2074779 39.4997355,66.1274779 C39.4997355,66.1274779 39.5997355,65.7974779 39.6197355,65.7574779 C40.0697355,64.4274779 40.4497355,63.3874779 40.8597355,62.3674779 C41.3997355,61.0074779 41.9897355,59.6674779 42.6197355,58.3774779 C43.2497355,57.0774779 43.9197355,55.8274779 44.6397355,54.5974779 Z" id="路径" fill="url(#linearGradient-22)"></path>
                    <path d="M23.6918721,65.1647947 C24.4618721,68.1847947 25.0618721,71.2747947 25.5718721,74.3847947 C26.0718721,77.5347947 26.4718721,80.7147947 26.8018721,83.9047947 C27.1518721,87.1547947 27.4318721,90.4247947 27.6918721,93.6847947 C27.7218721,94.1647947 27.3518721,94.5147947 27.0218721,94.5347947 C26.6418721,94.5647947 26.4018721,94.1347947 26.3718721,93.6947947 C26.3418721,93.3047947 26.3018721,92.9147947 26.2718721,92.5247947 C26.1418721,90.9347947 26.0118721,89.3547947 25.8718721,87.7747947 C25.7918721,86.9747947 25.7218721,86.1847947 25.6418721,85.3847947 L25.5918721,84.8847947 C25.5318721,84.3047947 25.4718721,83.7247947 25.4018721,83.1447947 C25.0518721,79.9847947 24.6418721,76.8447947 24.1118721,73.7347947 C23.5918721,70.6547947 22.9518721,67.6047947 22.1618721,64.6247947 C21.9718721,63.8947947 21.7718721,63.1647947 21.5518721,62.4447947 C21.3918721,61.8847947 21.2118721,61.3347947 21.0418721,60.7847947 C21.0418721,60.7847947 21.0418721,60.7947947 20.9918721,60.6347947 L20.9118721,60.3947947 C20.4418721,58.9547947 19.9118721,57.5347947 19.3518721,56.1547947 C18.7818721,54.7747947 18.1618721,53.4247947 17.5018721,52.1147947 C17.1618721,51.4547947 16.8218721,50.8047947 16.4518721,50.1647947 C16.2718721,49.8447947 16.0918721,49.5247947 15.9118721,49.2147947 C15.9046681,49.2075947 15.8987611,49.2003847 15.8936851,49.1936447 C15.8862401,49.1812847 15.8771651,49.1667947 15.8717261,49.1589547 C15.8712741,49.1541947 15.8694261,49.1523447 15.8618721,49.1447947 C15.8618721,49.1447947 15.8318721,49.0847947 15.8118721,49.0547947 L15.6618721,48.8147947 C15.5718721,48.6647947 15.4818721,48.5147947 15.3818721,48.3647947 C15.1518721,48.0047947 15.1218721,47.5347947 15.3918721,47.1747947 C15.6118721,46.8547947 16.1018721,46.8247947 16.3218721,47.1747947 C16.5418721,47.5247947 16.7618721,47.8847947 16.9718721,48.2347947 C18.4818721,50.7547947 19.7818721,53.4547947 20.8818721,56.2947947 C22.0018721,59.1447947 22.9218721,62.1247947 23.6918721,65.1647947 Z" id="路径" fill="url(#linearGradient-23)" transform="translate(21.446440, 70.729848) rotate(-2.000000) translate(-21.446440, -70.729848) "></path>
                    <path d="M37.4283292,88.9487279 C37.9383292,89.8287279 38.5083292,90.7187279 39.2083292,91.0687279 C39.9183292,91.4187279 40.8083292,91.0587279 41.1483292,89.9587279 C41.3083292,89.4187279 41.3283292,88.7887279 41.3283292,88.1887279 C41.3583292,79.7087279 40.5583292,70.9687279 37.1383292,64.3887279 C34.7583292,59.8087279 28.8783292,56.1687279 29.7283292,65.8787279 C30.2983292,72.3087279 32.4783292,78.9287279 35.0183292,84.3387279 C35.7983292,86.0087279 36.6083292,87.5587279 37.4283292,88.9487279 Z" id="路径" fill="url(#linearGradient-24)"></path>
                    <path d="M20.8870792,134.316072 L44.2470792,134.316072 C45.3670792,134.316072 46.2670792,133.416072 46.2670792,132.296072 L46.2670792,132.296072 C46.2670792,131.176072 45.3670792,130.276072 44.2470792,130.276072 L20.8870792,130.276072 C19.7670792,130.276072 18.8670792,131.176072 18.8670792,132.296072 L18.8670792,132.296072 C18.8670792,133.416072 19.7670792,134.316072 20.8870792,134.316072 Z" id="矩形" fill="#E4F0FF"></path>
                    <path d="M28.5078605,132.069353 L37.0778605,132.069353 C40.1078605,132.069353 42.6578605,129.819353 43.0378605,126.819353 L46.3178605,100.639353 C46.5378605,98.9293529 46.0078605,97.2093529 44.8678605,95.9193529 C43.7278605,94.6293529 42.0878605,93.8893529 40.3678605,93.8893529 L25.2178605,93.8893529 C23.4978605,93.8893529 21.8578605,94.6293529 20.7178605,95.9193529 C19.5778605,97.2093529 19.0478605,98.9293529 19.2678605,100.639353 L22.5478605,126.819353 C22.9278605,129.819353 25.4778605,132.069353 28.5078605,132.069353 Z" id="矩形" fill="#2A416A"></path>
                </g>
                <path d="M331.930287,92.608125 C328.550287,90.468125 322.890287,89.918125 320.250288,93.158125 C317.610287,89.858125 311.980287,90.438125 308.570288,92.578125 C313.170287,91.898125 318.580287,94.128125 320.250288,98.918125 C321.920287,94.188125 327.330287,91.948125 331.930287,92.608125 Z M347.652987,108.330825 C344.272987,106.190825 338.612988,105.640825 335.972987,108.880825 C333.332988,105.580825 327.702988,106.160825 324.292987,108.300825 C328.892988,107.620825 334.302987,109.850825 335.972987,114.640825 C337.642988,109.910825 343.052987,107.670825 347.652987,108.330825 Z M315.307187,110.927625 C310.427188,107.817625 302.267187,107.037625 298.467188,111.707625 C294.657188,106.947625 286.537188,107.777625 281.617188,110.877625 C288.247187,109.887625 296.067187,113.117625 298.467188,120.027625 C300.867188,113.197625 308.677188,109.967625 315.307187,110.927625 Z M375.951287,112.682225 C373.611288,111.252225 369.701287,110.882225 367.871287,113.042225 C366.041287,110.852225 362.141287,111.232225 359.781287,112.662225 C362.961287,112.202225 366.711287,113.692225 367.871287,116.882225 C369.021287,113.732225 372.771287,112.242225 375.951287,112.682225 Z" id="大雁" fill="url(#linearGradient-25)" opacity="0.570986793"></path>
            </g>
        </g>
    </g>
</svg>