<?xml version="1.0" encoding="UTF-8"?>
<svg width="635px" height="38px" viewBox="0 0 635 38" version="1.1" xmlns="http://www.w3.org/2000/svg" xmlns:xlink="http://www.w3.org/1999/xlink">
    <title>标题</title>
    <g id="安徽工程造价评优" stroke="none" stroke-width="1" fill="none" fill-rule="evenodd">
        <g id="省级复评" transform="translate(-30.000000, -11.000000)">
            <g id="标题" transform="translate(30.000000, 11.000000)">
                <text id="安徽省工程造价咨询行业优秀企业和优秀个人" font-family="ZhenyanGB-Regular, ZhenyanGB" font-size="20" font-weight="normal" fill="#FFFFFF">
                    <tspan x="55" y="24">安徽省工程造价咨询行业优秀企业和优秀个人线上申报和认定系统</tspan>
                </text>
                <g id="logo">
                    <path d="M30.8594071,3.25559257 C31.6059064,3.81429992 32.3058995,4.4330067 32.9524659,5.10559597 C39.5533558,12.0337661 39.5533558,22.9483512 32.9524659,29.8765214 C30.0574696,32.9038115 26.1325999,34.7257474 21.9594018,34.9795336 C22.3352771,35.119059 22.7574931,35.3309308 23.0200909,35.4187802 C23.5349885,35.591895 23.9958219,35.8657782 24.4566553,36.0647311 C24.8659989,36.2430135 26.9667811,37.459985 26.9667811,37.7674577 C26.9667811,37.8992317 26.8638016,37.9302373 26.781418,38 L26.3669254,38 C25.9550073,37.7131978 25.6228984,37.3669681 25.2187037,37.0620793 C24.9226376,36.8372884 24.2841646,36.4497178 23.9443321,36.2533487 C23.6044997,36.0569797 21.7894856,35.1629836 21.1870554,35.0053716 L20.8111802,35.0053716 C20.193303,35.1603998 18.4143318,36.038893 18.0616269,36.2533487 C17.708922,36.4678044 17.1193643,36.8243693 16.7743829,37.0620793 C16.3624648,37.3592167 16.0355048,37.7131978 15.6261612,38 L15.2245411,38 C15.1421574,37.9302373 15.0391779,37.8992317 15.0391779,37.7674577 C15.0391779,37.2868702 18.4503746,35.47304 19.9796205,34.9743659 C15.8278616,34.7078407 11.926522,32.8888637 9.04576969,29.8765214 C2.44487977,22.9483512 2.44487977,12.0337661 9.04576969,5.10559597 C9.64480194,4.48349345 10.2903011,3.90821608 10.9766357,3.38478276 L10.930295,3.38478276 C11.141403,0.594274835 12.3565613,1.15754403 14.8486658,0.11368736 C14.9593688,1.14720881 13.2318873,3.37444754 11.3190427,3.40286938 C10.5640709,3.9608905 9.85704322,4.58145416 9.20538795,5.25804039 C2.6865564,12.1002635 2.6865564,22.87927 9.20538795,29.7214932 C12.2840935,32.9560655 16.5471847,34.7859044 21.0042668,34.7859044 C25.4613488,34.7859044 29.72444,32.9560655 32.8031456,29.7214932 C39.3180299,22.8776814 39.3180299,12.1018522 32.8031456,5.25804039 C32.1474107,4.58028871 31.4370109,3.95805999 30.6791929,3.39770177 C28.6916881,3.52947576 26.8354822,1.18338206 26.9513342,0.11368736 C29.4099703,1.14720881 30.6199797,0.609777657 30.8594071,3.25559257 Z M32.5559947,3.87570545 L32.5559947,3.87570545 C33.5265767,2.58380363 32.610059,0.343645883 31.8248401,0 C31.5957107,2.0670429 30.7667255,2.68457197 32.5559947,3.87570545 Z M34.1573263,6.02801387 L34.1573263,6.02801387 C35.3853571,4.99449242 34.9863115,2.59413885 34.2937742,2.09546474 C33.6141093,4.06949072 32.6718467,4.4828993 34.1573263,6.02801387 Z M32.8700823,6.1882097 L32.8700823,6.1882097 C32.3011204,4.17025906 31.4953056,4.7645339 29.5026519,4.37954715 C29.5798865,5.21153192 31.4000496,6.72564085 32.8700823,6.1882097 Z M34.556372,8.85211124 L34.556372,8.85211124 C34.1856457,6.78506833 33.3231922,7.30182906 31.3794537,6.71788944 C31.3794537,7.55245801 33.042573,9.23709798 34.556372,8.85211124 Z M35.9079782,8.42319984 L35.9079782,8.42319984 C37.1952222,7.34575372 36.7704317,4.842048 36.0470005,4.32270347 C35.3390163,6.38974638 34.3555619,6.81090637 35.9079782,8.42319984 Z M36.9892632,10.8958999 L36.9892632,10.8958999 C38.5648499,10.3403821 39.0488536,7.85217923 38.5622754,7.11062759 C37.1746263,8.78493235 36.1062138,8.83660842 36.9892632,10.8958999 Z M36.3559391,12.2756511 L36.3559391,12.2756511 C36.4305993,9.95022778 35.3776337,10.3067927 33.4055758,9.21901136 C33.2099147,10.1233426 34.6233086,12.3376623 36.3559391,12.2756511 Z M38.0782716,13.8414361 L38.0782716,13.8414361 C39.8804133,13.210988 40.4236303,10.3868906 39.8649664,9.54715442 C38.2919541,11.4462501 37.0767958,11.5056776 38.0782716,13.8414361 Z M37.0124336,15.4227239 L37.0124336,15.4227239 C37.3445425,13.1205548 36.2581086,13.355681 34.4173496,12.0637792 C34.123858,12.9396886 35.2849521,15.2987013 37.0124336,15.4227239 Z M38.4798918,16.7947236 L38.4798918,16.7947236 C40.4313537,16.4898348 41.5358091,13.6941592 41.1213165,12.7381519 C39.1518332,14.3866186 37.8980575,14.21092 38.4798918,16.7947236 Z M38.3717633,19.8048845 L38.3717633,19.8048845 C38.1966981,17.0401849 39.4633462,17.4251717 41.772662,16.0557558 C42.0301108,17.1228667 40.4365027,19.81519 38.3717633,19.8048845 Z M37.1977967,19.5103012 L37.1977967,19.5103012 C38.0473778,16.7456313 36.6674522,16.8257292 34.6542025,14.8594547 C34.123858,15.8800571 35.0995889,18.9935405 37.1977967,19.5103012 Z M37.5247567,23.1482967 L37.5247567,23.1482967 C39.6873267,23.5281159 41.8447477,20.9908207 41.7520661,19.8229415 C39.0900454,20.8564629 37.8311208,20.2182634 37.5247567,23.1482967 L37.5247567,23.1482967 Z M36.2993004,25.6287482 L36.2993004,25.6287482 C38.101442,26.8793092 41.118742,25.4763038 41.5229367,24.3756035 C38.6755529,24.1947372 37.7925035,23.0837016 36.2993004,25.6287482 Z M36.0856179,23.3265792 L36.0856179,23.3265792 C37.3265211,20.6910995 35.9388721,20.5748283 34.2088161,18.3346706 C33.5343002,19.2777589 34.0620702,22.5359353 36.0856179,23.3265792 Z M34.5100312,28.0833617 L34.5100312,28.0833617 C36.0135322,29.6879037 39.2548127,28.9541035 39.8778388,27.9645067 C37.136009,27.1893656 36.5026849,25.920718 34.5100312,28.0833617 Z M33.9256224,27.1041001 L33.9256224,27.1041001 C35.8642119,25.1119875 34.6490535,24.5719725 33.7840255,22.0088393 C32.8829547,22.6470388 32.3448867,25.7527708 33.9256224,27.1041001 Z M32.5765906,30.7214252 L32.5765906,30.7214252 C34.0826662,32.3233834 37.3213721,31.5895832 37.9469727,30.5999864 C35.2025685,29.8248453 34.5692444,28.5587815 32.5765906,30.7214252 Z M30.6354266,30.6594139 L30.6354266,30.6594139 C33.3334901,29.4114367 32.3217163,28.4037533 32.4375683,25.5073094 C31.2919211,25.7992793 29.5721631,28.7034745 30.6354266,30.6594139 Z M29.9609108,32.7471272 L29.9609108,32.7471272 C31.09626,34.8141701 34.646479,34.9097709 35.5526988,34.039029 C32.9164231,32.4887469 32.594612,31.026314 29.9609108,32.7471272 L29.9609108,32.7471272 Z M26.9667811,34.1553002 L26.9667811,34.1553002 C27.6618929,36.3515333 31.0499192,37.1292582 32.0848634,36.4807235 C29.8502078,34.4989461 29.8218884,33.0210104 26.9667811,34.1553002 Z M26.2124561,33.1863738 L26.2124561,33.1863738 C29.4511621,32.7471272 28.7097096,31.3596247 29.7549517,28.3494934 C28.4677077,28.2874822 25.7155799,30.7834365 26.2124561,33.1863738 Z M9.24400527,3.87570545 L9.24400527,3.87570545 C11.0461469,2.69490719 10.2042893,2.08771333 9.97515988,0 C9.20281346,0.333310668 8.27342327,2.58380363 9.24400527,3.87570545 Z M7.6400992,6.02801387 L7.6400992,6.02801387 C9.12815331,4.47773169 8.18589068,4.06949072 7.50622583,2.09546474 C6.81368853,2.59413885 6.41464288,4.99449242 7.6400992,6.02801387 Z M9.2388563,6.11069559 L9.2388563,6.11069559 C10.708889,6.64037533 12.5264776,5.1236826 12.6037122,4.30203305 C10.6136329,4.697355 9.80524367,4.10308017 9.2388563,6.11069559 Z M7.24877702,8.84177603 L7.24877702,8.84177603 C8.75227805,9.22676277 10.4282698,7.5421228 10.4256983,6.71788944 C8.4819568,7.30441286 7.6195033,6.78765214 7.24877702,8.85211124 L7.24877702,8.84177603 Z M5.89717078,8.41286462 L5.89717078,8.41286462 C7.44186362,6.80057116 6.46613265,6.37165975 5.75814843,4.31236826 C5.03471728,4.82912899 4.61765021,7.33541851 5.89717078,8.41286462 Z M4.81588579,10.8855647 L4.81588579,10.8855647 C5.6989352,8.81852179 4.63052265,8.77459713 3.24287358,7.10029238 C2.74857188,7.84184402 3.24287358,10.3300469 4.81588579,10.8855647 Z M5.60110465,12.2653158 L5.60110465,12.2653158 C7.33116064,12.3273271 8.74712907,10.1130074 8.54889349,9.20867614 C6.57683563,10.2964575 5.5264445,9.94247637 5.60110465,12.2653158 Z M3.72687734,13.8311008 L3.72687734,13.8311008 C4.7283532,11.5056776 3.51319483,11.4359149 1.94018262,9.5368192 C1.37894422,10.3765554 1.94018262,13.2006528 3.72687734,13.8311008 Z M4.7927154,15.4123887 L4.7927154,15.4123887 C6.5201969,15.2831985 7.68129101,12.9241858 7.38522489,12.0534439 C5.54704041,13.3453458 4.46060644,13.1153872 4.7927154,15.4123887 Z M3.31753374,16.7947236 L3.31753374,16.7947236 C1.36864627,16.4924186 0.256467425,13.7096621 0.678683468,12.7407357 C2.64816684,14.3866186 3.90194253,14.21092 3.31753374,16.7947236 Z M3.42823673,19.8048548 L3.42823673,19.8048548 C3.60330191,17.053104 2.33665378,17.4277555 0.0273379871,16.0583396 C-0.23011082,17.1254505 1.36349729,19.8177738 3.42823673,19.8074683 L3.42823673,19.8048548 Z M4.82618375,19.5103012 L4.82618375,19.5103012 C6.92696601,19.0167947 7.91556943,15.8929761 7.37235245,14.8594547 C5.35910278,16.815394 3.97917717,16.7352961 4.82618375,19.5103012 Z M4.2752433,23.1508805 L4.2752433,23.1508805 C3.96887922,20.2208472 2.70995455,20.8512953 0.0479338916,19.8255253 C-0.0447476788,20.9934045 2.10752435,23.5306997 4.2752433,23.1508805 L4.2752433,23.1508805 Z M5.49297616,25.6287482 L5.49297616,25.6287482 C3.99977308,23.0940369 3.11672367,24.1947372 0.269339865,24.3756035 C0.673534492,25.4763038 3.68568553,26.8715578 5.49297616,25.6287482 Z M5.70665867,23.3265792 L5.70665867,23.3265792 C7.72248282,22.5359353 8.25797634,19.2777589 7.58346047,18.3450058 C5.85340449,20.5851635 4.46575542,20.7014347 5.70665867,23.3369144 L5.70665867,23.3265792 Z M7.28224536,28.0833617 L7.28224536,28.0833617 C5.2895916,25.920718 4.65626753,27.184198 1.91443774,27.9645067 C2.53746385,28.9541035 5.77616984,29.6879037 7.28224536,28.0833617 Z M7.86665415,27.1041001 L7.86665415,27.1041001 C9.44738983,25.7527708 8.90932182,22.6470388 8.008251,22.0088393 C7.14322301,24.5719725 5.92549015,25.1094037 7.86665415,27.1041001 Z M9.2156859,30.7214252 L9.2156859,30.7214252 C7.22303214,28.5587815 6.58970807,29.8196777 3.84530379,30.5999864 C4.47090439,31.5895832 7.70703589,32.3233834 9.2156859,30.7214252 Z M11.2315101,30.5844836 L11.2315101,30.5844836 C12.2999226,28.6259604 10.5801646,25.7243489 9.42936841,25.4168763 C9.5400714,28.3133202 8.52829759,29.3210036 11.2315101,30.5844836 Z M11.9832606,32.5197525 L11.9832606,32.5197525 C9.34955928,30.8092745 9.02517379,32.2846264 6.388898,33.8116543 C7.29769229,34.6720609 10.8479113,34.5712926 11.9832606,32.5197525 Z M14.8151975,34.0028558 L14.8151975,34.0028558 C11.9600902,32.868566 11.9317708,34.3465017 9.69711517,36.3282791 C10.7269104,36.9793976 14.1200857,36.1990889 14.8151975,34.0028558 Z M15.5695225,33.1863738 L15.5695225,33.1863738 C16.0638242,30.7834365 13.3245689,28.2771469 12.0270269,28.3494934 C13.082567,31.3596247 12.3411144,32.7471272 15.5798204,33.1863738 L15.5695225,33.1863738 Z" id="形状" fill="#FFFFFF"></path>
                    <path d="M20.8893751,35.7096422 C23.4248824,34.6986942 25.754065,33.2202511 27.7592135,31.349029 C29.7695619,29.4415248 31.3691445,27.1325329 32.4573458,24.5672913 C34.9710126,18.6711414 35.0092917,9.07727428 34.9454931,5.98289608 C27.5601617,5.76797274 22.5200685,3.22773424 20.8893751,2.28 C19.2637856,3.22773424 14.2364522,5.76797274 6.85367272,5.98289608 C6.79242602,9.07468484 6.83070521,18.6711414 9.33926802,24.5672913 C10.4268263,27.1309315 12.0235479,29.4395557 14.0297446,31.349029 C16.0308698,33.2230614 18.3565966,34.7050194 20.8893751,35.72 L20.8893751,35.7096422 Z" id="路径"></path>
                    <path d="M29.2807587,33.0618108 L29.2807587,33.0618108 C26.9517167,35.2088825 24.2300599,36.8856588 21.2653449,38 L20.5129302,38 C17.5527632,36.8834435 14.8362843,35.2048549 12.51303,33.0566372 C10.2682891,30.9552508 8.48138874,28.412823 7.26422673,25.5885636 C4.04513309,18.1127297 4.59069836,5.34690265 4.60104083,5.10633084 L4.60104083,5.10633084 L4.63206824,4.09748128 L5.64821587,4.09748128 C14.8168151,4.09748128 20.2957383,0.395779442 20.311252,0.385432267 L20.8904303,0 L21.4696086,0.385432267 C21.4851223,0.385432267 26.9795593,4.09748128 36.1507441,4.09748128 L37.1539637,4.09748128 L37.1979192,5.10891763 C37.1979192,5.14513274 37.7900255,18.0428863 34.5321476,25.5808033 C33.3160955,28.4101053 31.5281697,30.9571431 29.2807587,33.0618108 L29.2807587,33.0618108 Z" id="路径" fill="#FFFFFF"></path>
                    <path d="M21.2743846,37.24 C27.6257286,34.7718284 31.6894578,30.4712655 33.8691177,25.3927762 C37.0100899,18.0890558 36.4394714,5.39670936 36.4394714,5.39670936 C27.0088437,5.39670936 21.2743846,1.52 21.2743846,1.52 C21.2743846,1.52 15.5527773,5.39929383 6.12214968,5.39929383 C6.12214968,5.39929383 5.54124975,18.0890558 8.69250336,25.3953607 C10.877304,30.468681 14.9410332,34.7718284 21.2743846,37.24 Z" id="路径" fill="#007FFD"></path>
                    <path d="M21.2782439,35.72 L21.2314615,35.7019841 C15.6617621,33.5658185 11.5371178,29.7413099 9.30196076,24.635102 C6.39105862,17.9692357 6.85888218,6.51887324 6.87967434,6.03501886 L6.87967434,5.91148157 L7.00442729,5.91148157 C15.7397327,5.91148157 21.1482929,2.36493189 21.2002733,2.32890018 L21.2730458,2.28 L21.3458184,2.32890018 C21.4003978,2.36493189 26.8271511,5.91148157 35.5598575,5.91148157 L35.6846104,5.91148157 L35.6846104,6.03244516 C35.6846104,6.15083507 36.2044144,17.9126145 33.259725,24.6376757 C31.027167,29.7361625 26.8973246,33.5580974 21.3042341,35.7045578 L21.2782439,35.72 Z M7.13437828,6.17399831 C7.0849969,7.49945047 6.77571355,18.218884 9.5436696,24.5398753 C11.7424403,29.556004 15.8021092,33.326465 21.2808429,35.4420411 C26.7725716,33.3290387 30.8348395,29.5585777 33.0362093,24.5398753 C35.7885712,18.2394736 35.489684,7.44282922 35.4429016,6.17399831 C27.2455932,6.14054029 21.953989,3.01350266 21.2808429,2.59399061 C20.6076968,3.01350266 15.3316866,6.14054029 7.13437828,6.17399831 Z" id="形状" fill="#FFFFFF" fill-rule="nonzero"></path>
                    <path d="M20.3277695,8.36 L25.08,11.5687114 L25.08,15.5573866 C25.08,15.5573866 23.2696265,15.0637387 22.8121665,14.0196733 L22.8121665,12.378294 L20.3788687,10.7517241 L20.544333,35.2314214 L19.678079,34.7871382 L19.678079,10.430853 L19.2960512,10.5616697 L19.2960512,34.5970838 L18.7850587,34.320641 L18.7850587,10.7443194 L18.4030309,10.8751361 L18.4030309,34.1330547 L17.8823052,33.8640166 L17.8823052,11.0577858 L17.5002775,11.1886025 L17.5002775,33.6690257 L16.9673853,33.3999876 L16.9673853,11.368784 L16.5853575,11.502069 L16.5853575,33.2049967 L15.96,32.8841255 L15.96,10.5172414 L20.3277695,8.36 Z" id="路径" fill="#FFFFFF" fill-rule="nonzero"></path>
                    <path d="M26.4401209,17.8174441 L26.2862328,32.7628762 C26.1916365,32.8027667 26.0267321,33.0409239 25.7125086,33.2647781 C25.3594925,33.5162684 24.8346723,33.7675229 24.3333326,34.0457876 C22.9333586,34.8228321 21.28,35.5242066 21.28,35.5242066 L21.28,14.44 C22.3198723,17.0699565 26.4401209,17.8174441 26.4401209,17.8174441 Z M21.6944774,31.7072141 C21.6944774,31.7072141 24.2622752,33.5921829 25.6504065,32.9896929 C24.1012675,32.5408308 22.7219864,31.6238657 21.6944774,30.3597364 L21.6944774,31.7072141 Z M21.6944774,28.9572596 C21.6944774,28.9572596 24.2622752,30.8422284 25.6504065,30.2397384 C24.1022241,29.7955843 22.7227703,28.882863 21.6944774,27.6222817 L21.6944774,28.9572596 Z M21.6944774,26.2223049 C21.6944774,26.2223049 24.2622752,28.1072737 25.6504065,27.5047837 C24.1028021,27.0593287 22.7237006,26.1468406 21.6944774,24.887327 L21.6944774,26.2223049 Z M21.6944774,23.4723505 C21.6944774,23.4723505 24.2622752,25.3573192 25.6504065,24.7548292 C24.1043321,24.3127843 22.7254094,23.4047715 21.6944774,22.1498723 L21.6944774,23.4723505 Z M21.6944774,20.7373957 C21.6944774,20.7373957 24.2622752,22.6223645 25.6504065,22.0198745 C24.1043321,21.5778296 22.7254094,20.6698168 21.6944774,19.4149176 L21.6944774,20.7373957 Z M21.6944774,17.9874413 C21.6944774,17.9874413 24.2622752,19.8724101 25.6504065,19.26992 C24.1058575,18.8312882 22.7271127,17.927749 21.6944774,16.677463 L21.6944774,17.9874413 Z" id="形状" fill="#FFFFFF" fill-rule="nonzero"></path>
                    <path d="M29.0585318,10.0859195 L30.4942251,10.3761915 C30.5810114,10.3935582 30.6479609,10.4605441 30.6653181,10.5473776 L30.9554323,11.983852 C30.9752692,12.0830903 31.0595759,12.16 31.1612398,12.16 L31.1810767,12.16 C31.2753018,12.1525571 31.34969,12.0781284 31.3695269,11.986333 L31.6596411,10.5498585 C31.6769984,10.463025 31.7439478,10.3960392 31.8307341,10.3786725 L33.2664274,10.0884004 C33.3581729,10.0685528 33.4325612,9.99412404 33.44,9.89984767 L33.44,9.87999999 C33.44,9.77828073 33.3631321,9.69392818 33.2639478,9.67408052 L31.8282545,9.38380849 C31.7414682,9.36644179 31.6745188,9.29945594 31.6571615,9.21262241 L31.3670473,7.77614798 C31.3472104,7.67690968 31.2629037,7.6 31.1612398,7.6 L31.1414029,7.6 C31.0471778,7.60744287 30.9727896,7.68187161 30.9529527,7.77366702 L30.6628385,9.18781283 C30.6454813,9.27216537 30.5785318,9.33915123 30.4942251,9.35899891 L29.051093,9.67408052 C28.9593475,9.69392818 28.8874388,9.76835692 28.88,9.8626333 L28.88,9.89984767 C28.892398,9.9916431 28.9667863,10.0660718 29.0585318,10.0859195 L29.0585318,10.0859195 Z" id="形状" fill="#FFFFFF" fill-rule="nonzero"></path>
                    <path d="M8.53853181,16.1659195 L9.97422513,16.4561915 C10.0610114,16.4735582 10.1279609,16.5405441 10.1453181,16.6273776 L10.4354323,18.063852 C10.4552692,18.1630903 10.5395759,18.24 10.6412398,18.24 L10.6610767,18.24 C10.7553018,18.2325571 10.82969,18.1581284 10.8495269,18.066333 L11.1396411,16.6298585 C11.1569984,16.543025 11.2239478,16.4760392 11.3107341,16.4586725 L12.7464274,16.1684004 C12.8381729,16.1485528 12.9125612,16.074124 12.92,15.9798477 L12.92,15.96 C12.92,15.8582807 12.8431321,15.7739282 12.7439478,15.7540805 L11.3082545,15.4638085 C11.2214682,15.4464418 11.1545188,15.3794559 11.1371615,15.2926224 L10.8470473,13.856148 C10.8272104,13.7569097 10.7429037,13.68 10.6412398,13.68 L10.6214029,13.68 C10.5271778,13.6874429 10.4527896,13.7618716 10.4329527,13.853667 L10.1428385,15.2678128 C10.1254813,15.3521654 10.0585318,15.4191512 9.97422513,15.4389989 L8.53109299,15.7540805 C8.43934747,15.7739282 8.36743884,15.8483569 8.36,15.9426333 L8.36,15.9798477 C8.37239804,16.0716431 8.44678629,16.1460718 8.53853181,16.1659195 L8.53853181,16.1659195 Z" id="形状备份-3" fill="#FFFFFF" fill-rule="nonzero"></path>
                    <path d="M27.4492659,14.9229597 L28.1671126,15.0680958 C28.2105057,15.0767791 28.2439804,15.110272 28.2526591,15.1536888 L28.3977161,15.871926 C28.4076346,15.9215452 28.4497879,15.96 28.5006199,15.96 L28.5105383,15.96 C28.5576509,15.9562786 28.594845,15.9190642 28.6047635,15.8731665 L28.7498206,15.1549293 C28.7584992,15.1115125 28.7919739,15.0780196 28.835367,15.0693362 L29.5532137,14.9242002 C29.5990865,14.9142764 29.6362806,14.877062 29.64,14.8299238 L29.64,14.82 C29.64,14.7691404 29.6015661,14.7269641 29.5519739,14.7170403 L28.8341272,14.5719042 C28.7907341,14.5632209 28.7572594,14.529728 28.7485807,14.4863112 L28.6035236,13.768074 C28.5936052,13.7184548 28.5514519,13.68 28.5006199,13.68 L28.4907015,13.68 C28.4435889,13.6837214 28.4063948,13.7209358 28.3964764,13.7668335 L28.2514193,14.4739064 C28.2427406,14.5160827 28.2092659,14.5495756 28.1671126,14.5594995 L27.4455465,14.7170403 C27.3996737,14.7269641 27.3637194,14.7641785 27.36,14.8113166 L27.36,14.8299238 C27.366199,14.8758216 27.4033931,14.9130359 27.4492659,14.9229597 L27.4492659,14.9229597 Z" id="形状备份" fill="#FFFFFF" fill-rule="nonzero"></path>
                    <path d="M12.2492659,9.60295974 L12.9671126,9.74809576 C13.0105057,9.7567791 13.0439804,9.79027203 13.0526591,9.8336888 L13.1977161,10.551926 C13.2076346,10.6015452 13.2497879,10.64 13.3006199,10.64 L13.3105383,10.64 C13.3576509,10.6362786 13.394845,10.5990642 13.4047635,10.5531665 L13.5498206,9.83492927 C13.5584992,9.79151251 13.5919739,9.75801958 13.635367,9.74933624 L14.3532137,9.60420022 C14.3990865,9.59427639 14.4362806,9.55706202 14.44,9.50992383 L14.44,9.49999999 C14.44,9.44914036 14.4015661,9.40696409 14.3519739,9.39704026 L13.6341272,9.25190424 C13.5907341,9.2432209 13.5572594,9.20972797 13.5485807,9.1663112 L13.4035236,8.44807399 C13.3936052,8.39845484 13.3514519,8.36 13.3006199,8.36 L13.2907015,8.36 C13.2435889,8.36372143 13.2063948,8.4009358 13.1964764,8.44683351 L13.0514193,9.15390641 C13.0427406,9.19608269 13.0092659,9.22957561 12.9671126,9.23949945 L12.2455465,9.39704026 C12.1996737,9.40696409 12.1637194,9.44417846 12.16,9.49131665 L12.16,9.50992383 C12.166199,9.55582155 12.2033931,9.59303591 12.2492659,9.60295974 L12.2492659,9.60295974 Z" id="形状备份-2" fill="#FFFFFF" fill-rule="nonzero"></path>
                </g>
            </g>
        </g>
    </g>
</svg>