<?xml version="1.0" encoding="UTF-8"?>
<svg width="450px" height="450px" viewBox="0 0 450 450" version="1.1" xmlns="http://www.w3.org/2000/svg" xmlns:xlink="http://www.w3.org/1999/xlink">
    <title>未找到</title>
    <defs>
        <polygon id="path-1" points="0 450 450 450 450 0 0 0"></polygon>
        <linearGradient x1="50%" y1="0%" x2="50%" y2="89.3280521%" id="linearGradient-3">
            <stop stop-color="#FFC453" offset="0%"></stop>
            <stop stop-color="#68BEFF" offset="0%"></stop>
            <stop stop-color="#1989FF" offset="100%"></stop>
        </linearGradient>
        <linearGradient x1="-16.948407%" y1="99.7159694%" x2="99.2363281%" y2="99.7159694%" id="linearGradient-4">
            <stop stop-color="#007FFD" offset="0%"></stop>
            <stop stop-color="#5AADFF" offset="100%"></stop>
        </linearGradient>
        <linearGradient x1="45.2511623%" y1="99.7159694%" x2="99.2363281%" y2="99.7159694%" id="linearGradient-5">
            <stop stop-color="#54AAFF" offset="0%"></stop>
            <stop stop-color="#1A8CFE" offset="100%"></stop>
        </linearGradient>
        <linearGradient x1="45.2511623%" y1="99.7159694%" x2="99.2363281%" y2="99.7159694%" id="linearGradient-6">
            <stop stop-color="#54AAFF" offset="0%"></stop>
            <stop stop-color="#1A8CFE" offset="100%"></stop>
        </linearGradient>
        <linearGradient x1="45.2511623%" y1="99.7159694%" x2="99.2363281%" y2="99.7159694%" id="linearGradient-7">
            <stop stop-color="#5CAEFF" offset="0%"></stop>
            <stop stop-color="#007FFD" offset="100%"></stop>
        </linearGradient>
        <linearGradient x1="45.2511623%" y1="99.7159694%" x2="99.2363281%" y2="99.7159694%" id="linearGradient-8">
            <stop stop-color="#5CAEFF" offset="0%"></stop>
            <stop stop-color="#007FFD" offset="100%"></stop>
        </linearGradient>
        <linearGradient x1="45.2511623%" y1="99.7159694%" x2="99.2363281%" y2="99.7159694%" id="linearGradient-9">
            <stop stop-color="#5CAEFF" offset="0%"></stop>
            <stop stop-color="#007FFD" offset="100%"></stop>
        </linearGradient>
        <linearGradient x1="45.2511623%" y1="99.7159694%" x2="99.2363281%" y2="99.7159694%" id="linearGradient-10">
            <stop stop-color="#5CAEFF" offset="0%"></stop>
            <stop stop-color="#007FFD" offset="100%"></stop>
        </linearGradient>
        <linearGradient x1="45.2511623%" y1="99.7159694%" x2="99.2363281%" y2="99.7159694%" id="linearGradient-11">
            <stop stop-color="#5BADFF" offset="0%"></stop>
            <stop stop-color="#007FFD" offset="100%"></stop>
        </linearGradient>
        <linearGradient x1="-7.4384653e-14%" y1="0%" x2="99.2363281%" y2="99.7159694%" id="linearGradient-12">
            <stop stop-color="#007FFD" offset="0%"></stop>
            <stop stop-color="#007FFD" offset="100%"></stop>
        </linearGradient>
        <linearGradient x1="18.1356501%" y1="-13.0112632%" x2="76.438739%" y2="40.765033%" id="linearGradient-13">
            <stop stop-color="#72B8FF" offset="0%"></stop>
            <stop stop-color="#83C0FF" offset="100%"></stop>
        </linearGradient>
        <linearGradient x1="41.0509953%" y1="-25.5611721%" x2="37.9707634%" y2="50%" id="linearGradient-14">
            <stop stop-color="#E9F4FF" offset="0%"></stop>
            <stop stop-color="#51A5FF" offset="100%"></stop>
        </linearGradient>
        <linearGradient x1="6.78197919%" y1="57.6777576%" x2="104.984974%" y2="57.6777576%" id="linearGradient-15">
            <stop stop-color="#B3D6FF" offset="0%"></stop>
            <stop stop-color="#86C1FF" offset="100%"></stop>
        </linearGradient>
        <linearGradient x1="-64.8406533%" y1="-146.520451%" x2="61.0390002%" y2="77.9568656%" id="linearGradient-16">
            <stop stop-color="#41A1FF" offset="0%"></stop>
            <stop stop-color="#007FFD" offset="100%"></stop>
        </linearGradient>
        <linearGradient x1="45.2511623%" y1="99.7159694%" x2="49.9828768%" y2="0.359552774%" id="linearGradient-17">
            <stop stop-color="#8BB9FF" stop-opacity="0" offset="0%"></stop>
            <stop stop-color="#A4C6FF" offset="100%"></stop>
        </linearGradient>
        <linearGradient x1="-8.02209633e-14%" y1="-43.3281253%" x2="78.6233647%" y2="100%" id="linearGradient-18">
            <stop stop-color="#5BADFF" offset="0%"></stop>
            <stop stop-color="#007FFD" offset="100%"></stop>
        </linearGradient>
        <linearGradient x1="61.3946009%" y1="90.2040875%" x2="68.7023735%" y2="-18.5099984%" id="linearGradient-19">
            <stop stop-color="#007FFD" offset="0%"></stop>
            <stop stop-color="#2D90EB" offset="100%"></stop>
        </linearGradient>
        <linearGradient x1="31.2977923%" y1="-100.118356%" x2="63.3625827%" y2="100%" id="linearGradient-20">
            <stop stop-color="#007FFD" offset="0%"></stop>
            <stop stop-color="#5CAEFF" offset="100%"></stop>
        </linearGradient>
        <linearGradient x1="50%" y1="144.630967%" x2="18.831941%" y2="8.34767418e-13%" id="linearGradient-21">
            <stop stop-color="#5BADFF" offset="0%"></stop>
            <stop stop-color="#007FFD" offset="100%"></stop>
        </linearGradient>
        <linearGradient x1="50%" y1="-19.0038784%" x2="51%" y2="100%" id="linearGradient-22">
            <stop stop-color="#FFCDA5" offset="0%"></stop>
            <stop stop-color="#FFE8D1" offset="100%"></stop>
        </linearGradient>
        <linearGradient x1="50%" y1="-5.34824667e-15%" x2="51%" y2="100%" id="linearGradient-23">
            <stop stop-color="#FFF2DF" offset="0%"></stop>
            <stop stop-color="#FEE0BC" offset="100%"></stop>
        </linearGradient>
        <linearGradient x1="-3.40942022e-14%" y1="23.4458427%" x2="74.2531583%" y2="100%" id="linearGradient-24">
            <stop stop-color="#FFF2DF" offset="0%"></stop>
            <stop stop-color="#FEE0BC" offset="100%"></stop>
        </linearGradient>
        <linearGradient x1="50%" y1="0%" x2="51%" y2="100%" id="linearGradient-25">
            <stop stop-color="#FFF2DF" offset="0%"></stop>
            <stop stop-color="#FEE0BC" offset="100%"></stop>
        </linearGradient>
        <linearGradient x1="-8.68092737%" y1="79.3761836%" x2="120.036937%" y2="50%" id="linearGradient-26">
            <stop stop-color="#5CAEFF" offset="0%"></stop>
            <stop stop-color="#007FFD" offset="100%"></stop>
        </linearGradient>
    </defs>
    <g id="安徽工程造价评优" stroke="none" stroke-width="1" fill="none" fill-rule="evenodd">
        <g id="页面不存在" transform="translate(-495.000000, -116.000000)">
            <g id="未找到" transform="translate(495.000000, 116.000000)">
                <g id="Clipped">
                    <mask id="mask-2" fill="white">
                        <use xlink:href="#path-1"></use>
                    </mask>
                    <g id="path_2"></g>
                </g>
                <path d="M368.745,386.222656 C368.745,386.222656 424.335,368.412656 379.355,342.902656 C334.425,317.402656 389.705,278.322656 389.705,278.322656 C389.705,278.322656 473.545,195.392656 389.705,195.332656 C305.875,195.292656 313.245,155.782656 317.905,120.702656 C322.565,85.6226563 277.715,39.9226563 232.995,94.3926563 C188.275,148.862656 157.355,116.932656 142.775,105.852656 C128.195,94.7926563 84.815,80.7826563 43.805,120.702656 C2.785,160.652656 31.945,216.902656 31.945,216.902656 C31.945,216.902656 81.065,268.412656 31.945,278.322656 C-17.215,288.272656 -5.665,329.902656 43.805,327.452656 C93.265,324.962656 71.835,352.582656 71.835,352.582656 C71.835,352.582656 -0.315,388.942656 118.755,401.372656 C237.865,413.802656 368.745,386.222656 368.745,386.222656 Z" id="路径-56" fill="url(#linearGradient-3)" opacity="0.05"></path>
                <g id="Clipped" transform="translate(354.959343, 332.290558)">
                    <path d="M16.1675319,32.1153796 C16.1675319,31.2453796 13.8575319,30.5453796 11.0075319,30.5453796 C8.14753188,30.5453796 5.83753188,31.2453796 5.83753188,32.1153796 C5.83753188,32.9853796 8.14753188,33.6853796 11.0075319,33.6853796 C13.8575319,33.6853796 16.1675319,32.9853796 16.1675319,32.1153796 Z" id="椭圆形" fill="url(#linearGradient-4)"></path>
                    <path d="M6.86831313,31.3405358 C11.1283131,14.1905358 15.3983131,15.2405358 16.9883131,12.5405358 C18.5783131,9.84053585 16.2983131,10.2605358 14.2483131,10.5305358 C6.44831313,13.3705358 5.38831313,31.3505358 5.38831313,31.3505358 C5.38831313,31.3505358 6.29831313,32.4405358 6.86831313,31.3405358 Z" id="路径-42" fill="url(#linearGradient-5)"></path>
                    <path d="M7.45768813,29.5885046 C10.1776881,19.8385046 9.47768813,3.8085046 3.58768813,0.688504596 C-2.30231187,-2.4314954 0.52768813,5.8185046 1.85768813,10.1085046 C3.18768813,14.3985046 5.27768813,31.0485046 5.27768813,31.0485046 C5.27768813,31.0485046 6.17768813,33.2885046 7.45768813,29.5885046 Z" id="路径-41" fill="url(#linearGradient-6)"></path>
                </g>
                <g id="Clipped" transform="translate(7.296875, 267.777344)">
                    <path d="M71.5351562,144.65 L73.1151562,144.65 C76.1551563,144.65 78.6151562,142.19 78.6151562,139.15 L78.6151562,5.5 C78.6151562,2.46 76.1551563,0 73.1151562,0 L71.5351562,0 C68.4951562,0 66.0351562,2.46 66.0351562,5.5 L66.0351562,139.15 C66.0351562,142.19 68.4951562,144.65 71.5351562,144.65 Z" id="矩形" fill="#2A416A"></path>
                    <polygon id="矩形" fill="#2A416A" points="0.26 41.5196875 0 68.7496875 136 79.9596875 155.88 52.7396875 138.25 22.8896875 2.24 11.6796875"></polygon>
                    <path d="M47.0856592,59.5658693 L47.0856592,53.2658693 L33.2456592,53.2658693 L33.2456592,49.0258693 L44.5556592,49.0258693 L44.5556592,42.7258693 L33.2456592,42.7258693 L33.2456592,38.9158693 L46.6356592,38.9158693 L46.6356592,32.6158693 L24.1756592,32.6158693 L24.1756592,59.5658693 L47.0856592,59.5658693 Z M64.6699592,47.2557693 L64.6699592,39.4957793 L64.2199592,39.4957793 C63.9199592,39.3957793 63.6299592,39.3457793 63.6299592,39.3457793 C60.6599592,39.3457793 58.6399592,40.8557793 57.5499592,43.8857693 L57.5499592,39.9357793 L50.2899592,39.9357793 L50.2899592,59.5557693 L58.2899592,59.5557693 L58.2899592,52.8257693 C58.1899592,48.9157693 59.7699592,46.9657693 63.0299592,46.9657693 C63.2299592,46.9657693 63.5299592,47.0557693 63.9199592,47.2557693 L64.6699592,47.2557693 Z M81.3445592,47.4407693 L81.3445592,39.6807193 L80.8945592,39.6807193 C80.5945592,39.5807193 80.3045592,39.5307193 80.3045592,39.5307193 C77.3345592,39.5307193 75.3145592,41.0407193 74.2245592,44.0707693 L74.2245592,40.1207193 L66.9645592,40.1207193 L66.9645592,59.7407693 L74.9645592,59.7407693 L74.9645592,53.0107693 C74.8645592,49.1007693 76.4445592,47.1507693 79.7045592,47.1507693 C79.9045592,47.1507693 80.2045592,47.2407693 80.5945592,47.4407693 L81.3445592,47.4407693 Z M105.640259,49.6274693 C105.250259,43.1374693 101.480259,39.6874393 94.3402592,39.2974393 C87.0902592,39.5974493 83.3802592,43.1374693 83.1802592,49.9274693 C83.3802592,56.4174693 87.0902592,59.7674693 94.3402592,59.9574693 C101.680259,59.7674693 105.450259,56.3174693 105.640259,49.6274693 Z M94.4453592,54.9392693 L94.3053592,54.9392693 C94.3553592,54.9392693 94.4053592,54.9392693 94.4453592,54.9392693 Z M94.4453592,54.9392693 C96.5953592,54.9592693 97.6753592,53.1892693 97.6753592,49.6292693 C97.4753592,46.3792693 96.4053592,44.7092693 94.4553592,44.6092693 C92.2053592,44.8092693 91.0353592,46.4792693 90.9353592,49.6292693 C90.9353592,53.0692693 92.0553592,54.8392693 94.3053592,54.9392693 L94.4453592,54.9392693 Z M122.758159,39.4552293 C122.458159,39.3552293 122.168159,39.3052293 122.168159,39.3052293 C119.198159,39.3052293 117.178159,40.8152293 116.088159,43.8452693 L116.088159,39.8952293 L108.828159,39.8952293 L108.828159,59.5152693 L116.828159,59.5152693 L116.828159,52.7852693 C116.728159,48.8752693 118.308159,46.9252693 121.568159,46.9252693 C121.768159,46.9252693 122.068159,47.0152693 122.458159,47.2152693 L123.208159,47.2152693 L123.208159,39.4552293 L122.758159,39.4552293 Z" id="Error" fill="#FFFFFF" transform="translate(73.691909, 46.286669) rotate(4.000000) translate(-73.691909, -46.286669) "></path>
                </g>
                <g id="Clipped" transform="translate(48.972656, 354.027344)">
                    <path d="M40.0510938,51.9998437 C32.8610938,31.1798437 23.3310938,34.6698437 18.8710938,35.0198437 C13.5810938,37.3698437 18.2110938,40.6098437 26.6610938,43.3298437 C37.7610938,47.4898437 40.0510938,57.9498437 40.0510938,57.9498437 C40.0510938,57.9498437 40.8010938,55.0198437 40.0510938,51.9998437 Z" id="路径-43" fill="url(#linearGradient-7)"></path>
                    <path d="M41.5917188,56.5159375 C43.8517188,49.0959375 41.9317188,37.6059375 41.5917188,35.6459375 C36.1417188,7.0859375 28.9217188,7.7659375 24.9917188,8.2059375 C21.1617188,9.8859375 20.8717188,17.3459375 24.9917188,22.5559375 C33.4117188,33.9959375 40.0317188,58.8459375 40.0317188,58.8459375 C40.0317188,58.8459375 41.0817188,58.0359375 41.5917188,56.5159375 Z" id="路径-44" fill="url(#linearGradient-8)"></path>
                    <path d="M44.1690625,54.89 C46.6090625,47.23 48.9390625,41.2 50.2790625,31 C52.4790625,5.73 46.6590625,0.66 41.8390625,0 C29.9590625,0.33 36.4790625,14.49 40.2990625,26.01 C44.0390625,43.83 41.0490625,54.89 41.0490625,54.89 C41.0490625,54.89 42.8790625,55.61 44.1690625,54.89 Z" id="路径-45" fill="url(#linearGradient-9)"></path>
                    <path d="M45.465,56.2928125 C45.495,54.6328125 47.915,47.5728125 51.585,42.7328125 C62.745,29.3428125 64.685,20.5628125 65.5850778,16.4528125 C65.615,6.8828125 56.955,9.7428125 54.675,12.7928125 C42.025,26.4828125 43.225,57.9528125 43.225,57.9528125 C43.225,57.9528125 45.445,57.9528125 45.465,56.2928125 Z" id="路径-46" fill="url(#linearGradient-10)"></path>
                    <path d="M72.32,60.5910938 C71.45,45.2610938 59.76,45.1310938 55.8,45.4410938 C52.28,44.8610938 44.2,48.4010938 42.9,53.9310938 C40.07,50.4310938 35.12,51.9610938 33.57,53.9310938 C26.49,48.0810938 15.12,55.0310938 13.83,56.6510938 C12.53,58.2710938 0,60.5910938 0,60.5910938 C0,60.5910938 67.54,60.7010938 72.32,60.5910938 Z" id="路径-47" fill="url(#linearGradient-11)"></path>
                </g>
                <g id="编组" transform="translate(40.553040, 22.350235)">
                    <g transform="translate(154.580998, 185.747369) rotate(-20.000000) translate(-154.580998, -185.747369) translate(47.890998, 26.911132)">
                        <polygon id="路径" fill="url(#linearGradient-12)" opacity="0.428269159" points="104.457789 30.6997755 112.997789 30.6997755 110.857789 3.2997755 106.587789 3.2997755"></polygon>
                        <path d="M108.962584,85.5564206 L108.962584,85.5564206 C116.882584,85.5564206 124.482584,82.4164206 130.092584,76.8064206 C135.692584,71.2064206 138.842584,63.6064206 138.842584,55.6864206 L138.842584,51.6364206 C138.842584,43.7164206 135.692584,36.1164206 130.092584,30.5164206 C124.482584,24.9064206 116.882584,21.7664206 108.962584,21.7664206 L108.962584,21.7664206 C92.4625843,21.7664206 79.0925843,35.1364206 79.0925843,51.6364206 L79.0925843,55.6864206 C79.0925843,72.1864206 92.4625843,85.5564206 108.962584,85.5564206 Z" id="矩形" fill="url(#linearGradient-13)"></path>
                        <path d="M173.893597,64.2835028 C173.893597,49.1535028 145.223597,36.8835028 109.873597,36.8835028 C74.533597,36.8835028 45.863597,49.1535028 45.863597,64.2835028 C45.863597,79.4135028 74.533597,91.6835028 109.873597,91.6835028 C145.223597,91.6835028 173.893597,79.4135028 173.893597,64.2835028 Z" id="椭圆形" fill="url(#linearGradient-14)"></path>
                        <path d="M172.818104,67.2383956 C172.818104,52.1083956 144.148104,39.8383956 108.798104,39.8383956 C73.458104,39.8383956 44.788104,52.1083956 44.788104,67.2383956 C44.788104,82.3683956 73.458104,94.6383956 108.798104,94.6383956 C144.148104,94.6383956 172.818104,82.3683956 172.818104,67.2383956 Z" id="椭圆形备份" fill="url(#linearGradient-15)"></path>
                        <path d="M147.308539,69.613264 C147.308539,62.053264 130.108539,55.913264 108.898539,55.913264 C87.6885386,55.913264 70.4885386,62.053264 70.4885386,69.613264 C70.4885386,77.183264 87.6885386,83.313264 108.898539,83.313264 C130.108539,83.313264 147.308539,77.183264 147.308539,69.613264 Z" id="椭圆形" fill="url(#linearGradient-16)"></path>
                        <polygon id="路径" fill="url(#linearGradient-17)" opacity="0.2" points="4.39252083e-13 283.712474 213.38 317.672474 147.32 67.0124737 70.52 67.0124737"></polygon>
                        <path d="M111.948809,3.37 C111.948809,1.51 110.538809,1.16920171e-13 108.798809,1.16920171e-13 C107.068809,1.16920171e-13 105.658809,1.51 105.658809,3.37 C105.658809,5.23 107.068809,6.74 108.798809,6.74 C110.538809,6.74 111.948809,5.23 111.948809,3.37 Z" id="椭圆形" fill="url(#linearGradient-18)"></path>
                    </g>
                    <path d="M118.880967,162.987443 C120.210967,165.077443 122.000967,166.117443 124.230967,166.117443 L136.960967,166.117443 L136.960967,178.207443 L143.580967,178.207443 L143.580967,166.117443 L147.600967,166.107443 L147.600967,159.877443 L143.580967,159.877443 L143.580967,129.907443 L136.970967,129.907443 L136.960967,159.877443 L127.720967,159.877443 C126.980967,159.877443 126.380967,159.707443 125.910967,159.347443 C125.300967,158.837443 124.990967,158.247443 124.990967,157.577443 C124.990967,157.577443 125.050967,156.847443 125.150967,156.087443 L129.150967,129.907443 L122.590967,129.907443 L118.150967,158.327443 C118.090967,158.757443 118.060967,159.597443 118.060967,159.597443 C118.060967,160.987443 118.330967,162.117443 118.880967,162.987443 Z" id="4" fill="url(#linearGradient-19)" transform="translate(132.830967, 154.057443) rotate(15.000000) translate(-132.830967, -154.057443) "></path>
                    <path d="M137.901345,243.607523 C139.081345,245.457523 140.661345,246.377523 142.641345,246.377523 L153.921345,246.387523 L153.921345,257.097523 L159.781345,257.097523 L159.781345,246.387523 L163.341345,246.387523 L163.341345,240.857523 L159.781345,240.857523 L159.771345,214.307523 L153.911345,214.307523 L153.921345,240.857523 L145.731345,240.857523 C145.071345,240.857523 144.541345,240.697523 144.131345,240.377523 C143.581345,239.927523 143.311345,239.407523 143.311345,238.807523 C143.311345,238.807523 143.361345,238.167523 143.451345,237.497523 L146.981345,214.307523 L141.181345,214.307523 L137.251345,239.487523 C137.201345,239.857523 137.171345,240.607523 137.171345,240.607523 C137.171345,241.837523 137.411345,242.837523 137.901345,243.607523 Z" id="4" fill="url(#linearGradient-20)" transform="translate(150.256345, 235.702523) rotate(-15.000000) translate(-150.256345, -235.702523) "></path>
                    <path d="M180.934446,171.196045 C180.934446,169.426045 180.394446,167.876045 179.314446,166.526045 C178.264446,165.226045 176.614446,164.576045 174.384446,164.576045 L164.924446,164.576045 C163.294446,164.576045 161.894446,165.196045 160.714446,166.426045 C159.524446,167.696045 158.924446,169.356045 158.924446,171.406045 L158.924446,194.866045 C158.924446,196.856045 159.504446,198.416045 160.674446,199.556045 C161.944446,200.796045 163.544446,201.416045 165.474446,201.416045 L175.314446,201.416045 C175.974446,201.416045 176.714446,201.216045 177.544446,200.836045 C178.244446,200.516045 178.824446,200.116045 179.284446,199.656045 C180.384446,198.546045 180.934446,196.916045 180.934446,194.746045 L180.934446,171.196045 Z M164.143706,171.123395 L164.143706,194.073445 C164.143706,195.773445 164.953706,196.623445 166.583706,196.623445 L173.713746,196.623445 C174.733746,196.623445 175.423746,196.423445 175.793746,196.023445 C176.113746,195.653445 176.273746,195.003445 176.273746,194.073445 L176.273746,171.533395 C176.273746,169.993395 175.573746,169.223395 174.173746,169.223395 L166.313706,169.223395 C165.643706,169.223395 165.113706,169.393395 164.743706,169.733395 C164.343706,170.113395 164.143706,170.583395 164.143706,171.123395 Z" id="0" fill="url(#linearGradient-21)" transform="translate(169.929446, 182.996045) rotate(15.000000) translate(-169.929446, -182.996045) "></path>
                </g>
                <g id="编组" transform="translate(207.000000, 302.000000)">
                    <path d="M84.45,99.2799383 C84.45,91.8299383 65.54,85.7999383 42.23,85.7999383 C18.91,85.7999383 0,91.8299383 0,99.2799383 C0,106.719938 18.91,112.749938 42.23,112.749938 C65.54,112.749938 84.45,106.719938 84.45,99.2799383 Z" id="椭圆形" fill="#78B4FF" opacity="0.2"></path>
                    <path d="M4.8721875,66.3199383 C4.8721875,66.3199383 4.3821875,67.1499383 4.5121875,67.9499383 C4.6521875,68.7899383 5.4121875,69.4099383 5.4121875,69.4099383 L21.0021875,78.1599383 L21.1121875,70.4899383 L14.4421875,66.4999383 L19.3121875,59.0499383 L10.1121875,57.0499383 L4.8721875,66.3199383 Z" id="胳膊-path" fill="#FEE0BC"></path>
                    <path d="M65.5890625,59.0499383 L70.4690625,66.5099383 L63.7890625,70.5199383 L63.9490625,78.6099383 L79.4890625,69.4199383 C79.4890625,69.4199383 80.2490625,68.8099383 80.3890625,67.9699383 C80.5190625,67.1699383 80.0290625,66.3299383 80.0290625,66.3299383 L74.7990625,57.0499383 L65.5890625,59.0499383 Z" id="胳膊-path" fill="#FEE0BC"></path>
                    <g transform="translate(25.605469, 0.000000)">
                        <polygon id="矩形" fill="url(#linearGradient-22)" points="11.2304687 39.5260321 20.2104687 39.5260321 20.2104687 30.5460321 11.2304687 30.5460321"></polygon>
                        <g>
                            <path d="M28.3045312,21.3327508 C28.3045312,14.7627508 22.6645312,9.43275082 15.7245312,9.43275082 C8.77453125,9.43275082 3.14453125,14.7627508 3.14453125,21.3327508 C3.14453125,27.9127508 8.77453125,33.2427508 15.7245312,33.2427508 C22.6645312,33.2427508 28.3045312,27.9127508 28.3045312,21.3327508 Z" id="椭圆形" fill="url(#linearGradient-23)"></path>
                            <path d="M30.9939062,21.7863446 C30.9939062,20.1763446 29.9939062,18.8663446 28.7539062,18.8663446 C27.5139062,18.8663446 26.5039062,20.1763446 26.5039062,21.7863446 C26.5039062,23.3963446 27.5139062,24.7063446 28.7539062,24.7063446 C29.9939062,24.7063446 30.9939062,23.3963446 30.9939062,21.7863446 Z" id="椭圆形" fill="url(#linearGradient-24)"></path>
                            <path d="M4.78128666,23.4504926 C4.78128666,21.8104926 3.80128666,20.4904926 2.59128666,20.4904926 C1.38128666,20.4904926 0.391286655,21.8204926 0.391286655,23.4604926 C0.391286655,25.0904926 1.37128666,26.4204926 2.58128666,26.4204926 C3.79128666,26.4104926 4.78128666,25.0904926 4.78128666,23.4504926 Z" id="椭圆形备份" fill="url(#linearGradient-25)" transform="translate(2.586287, 23.455493) rotate(-8.000000) translate(-2.586287, -23.455493) "></path>
                            <path d="M31.3992187,14.6591571 C31.7992187,10.9091571 29.6892187,3.51915707 22.4392187,1.02915707 C15.1792187,-1.45084293 10.4592187,1.14915707 9.52921875,2.57915707 C8.37921875,1.91915707 7.13921875,2.61915707 4.95921875,3.89915707 C2.77921875,5.16915707 -0.47078125,11.5091571 0.69921875,18.2491571 C1.84921875,22.4791571 4.44921875,23.8091571 4.44921875,23.8091571 L4.70921875,22.5091571 C4.70921875,22.5091571 5.16921875,22.7191571 5.63921875,22.7991571 C5.40921875,20.7391571 5.96921875,19.2291571 6.74921875,20.5991571 C7.13921875,15.7991571 8.29921875,13.4791571 9.06921875,11.7291571 C9.55921875,10.3391571 10.5192187,11.1391571 10.8992187,11.3891571 C11.1792187,10.3091571 11.9492187,10.2291571 13.0892187,11.0491571 C14.2292187,11.8691571 18.3892187,16.0691571 18.3892187,16.0691571 L18.7192187,15.3091571 C18.7192187,15.3091571 23.1792187,16.9091571 25.9392187,20.7291571 C26.3992187,19.4291571 26.4192187,17.6491571 26.7392187,18.4691571 C27.0692187,19.2891571 26.9792187,21.0691571 26.6892187,22.5291571 C27.6692187,21.6991571 28.2892187,18.7891571 28.2892187,18.7891571 L28.2892187,22.5291571 C28.2892187,22.5291571 30.9992187,18.3991571 31.3992187,14.6591571 Z" id="路径-67" fill="#000000"></path>
                        </g>
                    </g>
                    <path d="M24.3567187,37.6197821 C23.5367187,38.1197821 22.7567187,38.6697821 21.9967187,39.2697821 C21.1767187,39.9597821 20.3867188,40.6897821 19.6367188,41.4697821 L7.63671875,56.2997821 C9.35671875,57.7997821 11.2467187,59.0897821 13.2667187,60.1497821 C16.3167187,61.6497821 19.8167187,62.3397821 19.8167187,62.3397821 L22.1867187,59.4097821 L22.1867187,86.6997821 L62.8967187,86.6997821 L62.8967187,59.7797821 L66.9067187,63.6297821 C66.9067187,63.6297821 70.3467187,62.2697821 72.8967187,60.5097821 C74.5267187,59.3697821 75.9967187,58.0197821 77.2667187,56.4797821 L72.1767187,50.8097821 C72.1767187,50.8097821 64.9167187,42.3397821 60.5367187,37.9897821 C58.9567187,36.4097821 56.3567187,35.9697821 56.3567187,35.9697821 L45.2667187,34.1397821 L41.2667187,38.0097821 C41.2667187,38.0097821 38.0667187,34.8197821 36.9067187,34.1397821 C36.9067187,34.1397821 31.1567187,35.4897821 27.4567187,36.5197821 C26.3967187,36.8197821 25.3667188,37.1797821 24.3567187,37.6197821 Z" id="衣服" fill="url(#linearGradient-26)"></path>
                    <path d="M73.5245312,90.9579071 C73.5245312,90.9579071 82.0345312,89.2879071 79.4845312,81.3079071 C76.5945312,72.2679071 66.6445312,76.4179071 66.6445312,76.4179071 L41.5145312,83.1179071 L16.4445312,76.4279071 C16.4445312,76.4279071 6.50453125,72.2879071 3.62453125,81.3179071 C1.07453125,89.2879071 9.57453125,90.9679071 9.57453125,90.9679071 L15.9445312,92.1379071 L18.7445312,101.077907 L41.5345312,96.8679071 L64.2845312,101.077907 L67.0845312,92.1479071 L73.5245312,90.9579071 Z" id="裤子" fill="#2A416A"></path>
                    <path d="M7.84453125,94.4350946 C7.84453125,94.4350946 4.60453125,94.3150946 3.93453125,95.2650946 C2.64453125,97.0850946 3.32453125,100.795095 3.32453125,100.795095 C3.32453125,100.795095 3.72453125,102.325095 4.49453125,103.015095 C5.14453125,103.605095 6.33453125,103.165095 6.33453125,103.165095 C6.33453125,103.165095 8.47453125,102.585095 10.7545312,102.095095 C13.8445312,101.415095 15.1645312,101.195095 15.1645312,101.195095 L18.4145312,100.295095 L16.4345312,94.3350946 L13.7245312,94.5150946 C12.8745312,94.5650946 12.0345312,94.5650946 11.1945312,94.5150946 C9.45453125,94.4450946 7.84453125,94.4350946 7.84453125,94.4350946 Z M78.5683312,103.015095 C79.3583312,102.325095 79.7783312,100.795095 79.7783312,100.795095 C79.7783312,100.795095 80.4782312,97.0850946 79.1483312,95.2650946 C78.4482312,94.3150946 75.1282312,94.4350946 75.1282312,94.4350946 C75.1282312,94.4350946 73.4682312,94.4450946 71.6783312,94.5150946 C70.8082312,94.5650946 69.9382312,94.5650946 69.0782312,94.5150946 L66.2882312,94.3350946 L64.2383312,100.295095 L67.5882312,101.195095 C67.5882312,101.195095 68.9482312,101.415095 72.1282312,102.095095 C74.4782312,102.585095 76.6783312,103.165095 76.6783312,103.165095 C76.6783312,103.165095 77.9082312,103.595095 78.5683312,103.015095 Z" id="脚" fill="#FEE0BC"></path>
                    <path d="M19.7656255,47.4302508 L19.7656255,76.3702508 L63.7855875,76.3702508 L63.7855875,47.4302508 C63.7855875,46.2902508 62.8055875,45.3702508 61.5955875,45.3702508 L21.9656275,45.3702508 C20.7556275,45.3702508 19.7656255,46.2902508 19.7656255,47.4302508 Z M18.8671875,78.3863508 C18.8671875,79.5063508 19.6271875,80.4063508 20.5771875,80.4063508 L63.4271875,80.4063508 C64.0371875,80.4063508 64.6071875,80.0263508 64.9071875,79.3963508 C65.2071875,78.7763508 65.2071875,78.0063508 64.9071875,77.3763508 C64.6071875,76.7563508 64.0371875,76.3663508 63.4271875,76.3663508 L20.5771875,76.3663508 C19.6271875,76.3663508 18.8671875,77.2763508 18.8671875,78.3863508 Z" id="电脑" fill="#214F9B"></path>
                </g>
                <g id="Clipped" transform="translate(279.691406, 108.304688)" fill="#96C8FF">
                    <path d="M68.0616,2.33 C70.6516,-0.91 76.1916,-0.36 79.5116,1.78 C75.0016,1.12 69.6916,3.36 68.0616,8.09 C66.4216,3.3 61.1116,1.07 56.6016,1.75 C59.9416,-0.39 65.4616,-0.97 68.0616,2.33 Z M91.8702,25.6894 C94.4602,22.4494 100,22.9994 103.32,25.1394 C98.8102,24.4794 93.5002,26.7194 91.8702,31.4494 C90.2302,26.6594 84.9202,24.4294 80.4102,25.1094 C83.7502,22.9694 89.2702,22.3894 91.8702,25.6894 Z M46.7177,28.8355 C50.4777,24.3455 58.5277,25.0955 63.3377,28.0855 C56.7977,27.1655 49.0877,30.2655 46.7177,36.8355 C44.3477,30.1855 36.6377,27.0855 30.0977,28.0455 C34.9477,25.0555 42.9577,24.2655 46.7177,28.8355 Z M139.256,29.94 C136.916,28.51 133.006,28.14 131.176,30.3 C129.346,28.11 125.446,28.49 123.086,29.92 C126.266,29.46 130.016,30.95 131.176,34.14 C132.326,30.99 136.076,29.5 139.256,29.94 Z M28.3,57.6694 C34.7,49.9394 48.41,51.2394 56.6,56.3694 C45.46,54.7994 32.34,60.1394 28.3,71.4294 C24.27,59.9994 11.14,54.6694 0,56.2994 C8.26,51.1694 21.9,49.7994 28.3,57.6694 Z" id="大雁"></path>
                </g>
            </g>
        </g>
    </g>
</svg>