<?xml version="1.0" standalone="no"?><!DOCTYPE svg PUBLIC "-//W3C//DTD SVG 1.1//EN" "http://www.w3.org/Graphics/SVG/1.1/DTD/svg11.dtd"><svg t="1665559813565" class="icon" viewBox="0 0 1024 1024" version="1.1" xmlns="http://www.w3.org/2000/svg" p-id="2440" xmlns:xlink="http://www.w3.org/1999/xlink" width="14" height="14"><path d="M870.4 1024H153.6C68.9024 1024 0 955.0976 0 870.4V512c0-84.6976 68.9024-153.6 153.6-153.6h716.8c84.6976 0 153.6 68.9024 153.6 153.6v358.4c0 84.6976-68.9024 153.6-153.6 153.6zM153.6 409.6c-56.4608 0-102.4 45.9392-102.4 102.4v358.4c0 56.4608 45.9392 102.4 102.4 102.4h716.8c56.4608 0 102.4-45.9392 102.4-102.4V512c0-56.4608-45.9392-102.4-102.4-102.4H153.6zM512 230.4c-63.5136 0-115.2-51.6864-115.2-115.2s51.6864-115.2 115.2-115.2c63.5264 0 115.2 51.6864 115.2 115.2s-51.6736 115.2-115.2 115.2z m0-179.2c-35.2896 0-64 28.7104-64 64s28.7104 64 64 64 64-28.7104 64-64-28.7104-64-64-64z" fill="" p-id="2441"></path><path d="M164.8768 409.6a25.6 25.6 0 0 1-15.7056-45.8368l276.352-214.016a25.6 25.6 0 1 1 31.36 40.4736l-276.352 214.016a25.472 25.472 0 0 1-15.6544 5.3632zM859.2512 409.6c-5.4784 0-10.9824-1.7408-15.6672-5.3504l-276.4928-214.016a25.6 25.6 0 0 1 31.36-40.4864l276.4928 214.016A25.6 25.6 0 0 1 859.2512 409.6zM294.4 620.8h-76.8a25.6 25.6 0 0 1 0-51.2h76.8a25.6 25.6 0 0 1 0 51.2zM294.4 812.8h-76.8a25.6 25.6 0 0 1 0-51.2h76.8a25.6 25.6 0 0 1 0 51.2zM806.4 812.8H473.6a25.6 25.6 0 0 1 0-51.2h332.8a25.6 25.6 0 0 1 0 51.2zM806.4 620.8H473.6a25.6 25.6 0 0 1 0-51.2h332.8a25.6 25.6 0 0 1 0 51.2z" fill="" p-id="2442"></path></svg>