<?xml version="1.0" encoding="UTF-8"?>
<svg width="12px" height="13px" viewBox="0 0 12 13" version="1.1" xmlns="http://www.w3.org/2000/svg" xmlns:xlink="http://www.w3.org/1999/xlink">
    <title>账户管理</title>
    <g id="安徽工程造价评优" stroke="none" stroke-width="1" fill="none" fill-rule="evenodd">
        <g id="认定标准" transform="translate(-31.000000, -526.000000)" fill="" fill-rule="nonzero">
            <g id="账户管理" transform="translate(31.000000, 526.000000)">
                <path d="M11.2875847,10.2513298 C11.3606928,10.7558027 11.7884531,10.6819391 11.8615612,10.9051015 C11.8615612,11.0465426 11.7884531,11.5588733 11.5753507,11.6248791 C11.3622483,11.6248791 11.0760378,11.5510155 10.8613799,11.6248791 C10.7213857,11.6987427 10.5751694,11.7663201 10.5005058,11.9140474 C10.3605115,12.2786509 10.6405001,12.5678191 10.5005058,12.7092602 C10.2874034,12.8507012 9.85342117,13.0738636 9.7134269,12.9245648 C9.50032451,12.7092602 9.50032451,12.4200919 9.06634227,12.4200919 C8.49236575,12.4200919 8.49236575,13 8.20615524,13 C7.91994473,13 7.41907634,12.7846954 7.41907634,12.5693907 C7.49218446,12.2802224 7.63217873,12.0649178 7.34596822,11.7741779 C6.9850941,11.4850097 6.55888932,11.7741779 6.41267308,11.6327369 C6.19957069,11.4912959 6.12646257,11.128264 6.19957069,10.9129594 C6.27267881,10.6976547 6.7735472,10.6976547 6.7735472,10.1177466 C6.7735472,9.68713733 6.2742343,9.61327369 6.19957069,9.32253385 C6.12646257,9.10722921 6.27267881,8.74262573 6.4857812,8.66876209 C6.84665532,8.52732108 7.05975771,8.81020309 7.41907634,8.52732108 C7.63217873,8.31201644 7.55907061,7.80754352 7.55907061,7.65824468 C7.63217873,7.44294004 7.91994473,7.3690764 8.13304712,7.3690764 C8.55925191,7.3690764 8.41925764,7.87354932 8.99323415,7.94898453 C9.56721066,7.94898453 9.49254705,7.73367988 9.78031305,7.3690764 C10.1411872,7.3690764 10.4273977,7.51051741 10.4942838,7.65824468 C10.6342781,7.94741296 10.3542896,8.37802224 10.7804943,8.66876209 C11.1413685,8.88406673 11.4944651,8.59489845 11.7137895,8.66876209 C11.8537838,8.74262573 11.9268919,8.95793037 12,9.24867021 C11.8615612,9.67142166 11.2144766,9.59755803 11.2875847,10.2513298 L11.2875847,10.2513298 Z M8.62769355,8.80391683 C6.9073195,9.23452611 7.55440414,11.7678917 9.20167006,11.4850097 C10.8567135,11.1204062 10.6358336,8.43931335 8.62769355,8.80391683 Z M5.69403582,6.22340426 C3.97366177,6.22340426 2.61416185,4.84985493 2.61416185,3.11170213 C2.61416185,1.37354932 3.97366177,0 5.69403582,0 C7.41440986,0 8.77390979,1.37354932 8.77390979,3.11170213 C8.77390979,4.77441973 7.41440986,6.22340426 5.69403582,6.22340426 Z M5.80136476,8.74105416 C5.51515425,9.61013056 5.94135903,9.46083172 6.16223888,10.0407398 C6.30223315,10.4053433 5.58826237,10.620648 5.66292598,11.2744197 C5.80292025,12.1434961 6.523113,11.705029 6.73621539,12.2173598 C6.87620967,12.6479691 6.37534127,12.9371373 5.22894374,12.9371373 C4.2956486,12.9371373 2.5083884,12.9371373 1.86130377,12.8632737 C1.86130377,12.8632737 0.000935447186,12.7894101 0.000935447186,11.563588 C0.000935447186,11.563588 -0.0721726723,9.75157157 1.07422486,8.45188588 C1.07422486,8.45188588 2.29528601,6.86303191 4.36875672,6.86303191 L8.16260147,7.00447292 C8.16260147,7.00447292 7.01464845,7.00447292 7.08931206,7.79968569 M1.86130377,12.8632737 C1.86130377,12.8632737 0.000935447186,12.7454062 0.000935447186,11.563588 M1.86130377,12.847558 C1.86130377,12.847558 0.000935447186,12.7296905 0.000935447186,11.5478723 M1.86130377,12.8302708 C1.86130377,12.8302708 0.000935447186,12.7124033 0.000935447186,11.5305851 M1.86130377,12.8145551 C1.86130377,12.8145551 0.000935447186,12.6966876 0.000935447186,11.5148694 M1.86130377,12.7658366 C1.86130377,12.7658366 0.000935447186,12.6479691 0.000935447186,11.4661509" id="形状"></path>
            </g>
        </g>
    </g>
</svg>