<?xml version="1.0" encoding="UTF-8"?>
<svg width="12px" height="14px" viewBox="0 0 12 14" version="1.1" xmlns="http://www.w3.org/2000/svg" xmlns:xlink="http://www.w3.org/1999/xlink">
    <title>企业信息备份</title>
    <g id="安徽工程造价评优" stroke="none" stroke-width="1" fill="none" fill-rule="evenodd">
        <g id="认定标准" transform="translate(-30.000000, -409.000000)" fill="" fill-rule="nonzero">
            <g id="企业信息备份" transform="translate(30.000000, 409.000000)">
                <path d="M11.4519825,13.153 L11.4519825,1.127 L9.78320006,0 L3.70356937,2.744 L3.70356937,4.865 L0.345231224,6.048 L0.345231224,13.153 L0,13.153 L0,14 L1.09306735,14 L1.09306735,6.545 L5.55238645,5.067 L5.55238645,14 L8.64067265,14 L8.64067265,13.083 L7.95515621,13.083 L7.95515621,4.921 L6.33583381,3.934 L4.52163878,4.57 L4.52163878,3.234 L8.91171379,1.266 L8.91171379,14 L12,14 L12,13.153 L11.4519825,13.153 Z M1.64702003,8.441 L4.86687,7.384 L4.86687,5.978 L1.64702003,7.104 L1.64702003,8.441 Z M1.64702003,10.269 L4.86687,9.563 L4.86687,8.154 L1.64702003,9.002 L1.64702003,10.269 L1.64702003,10.269 Z M1.64702003,12.174 L4.86687,11.754 L4.86687,10.347 L1.64702003,10.837 L1.64702003,12.174 Z M1.64702003,14 L4.86687,13.93 L4.86687,12.523 L1.64702003,12.664 L1.64702003,14 Z" id="形状"></path>
            </g>
        </g>
    </g>
</svg>