<?xml version="1.0" encoding="UTF-8"?>
<svg width="12px" height="12px" viewBox="0 0 12 12" version="1.1" xmlns="http://www.w3.org/2000/svg" xmlns:xlink="http://www.w3.org/1999/xlink">
    <title>事项</title>
    <g id="安徽工程造价评优" stroke="none" stroke-width="1" fill="none" fill-rule="evenodd">
        <g id="认定标准" transform="translate(-30.000000, -82.000000)" fill="" fill-rule="nonzero">
            <g id="事项" transform="translate(30.000000, 82.000000)">
                <path d="M11.3333333,0 C11.7015232,0 12,0.298476836 12,0.666666672 L12,11.3333333 C12,11.7015232 11.7015232,12 11.3333333,12 L0.666666672,12 C0.298476836,12 0,11.7015232 0,11.3333333 L0,0.666666672 C0,0.298476836 0.298476836,0 0.666666672,0 L11.3333333,0 Z M11,1 L1,1 L1,11 L11,11 L11,1 Z M4.92933333,6.914 C4.9339122,6.91853677 4.93835852,6.9232054 4.94266667,6.928 L5.12166667,7.12466667 C5.24075087,7.25545259 5.23694686,7.4564796 5.113,7.58266667 L3.30766667,9.42233333 C3.17869971,9.55366512 2.96769316,9.55560507 2.83633333,9.42666667 L2.82966667,9.42 L1.88533333,8.44133333 C1.76264443,8.31420911 1.76045104,8.11344097 1.88033333,7.98366667 L2.06033333,7.78866667 C2.12257495,7.72119026 2.20988904,7.68236942 2.30168265,7.68136 C2.39347625,7.68035059 2.48162292,7.71724196 2.54533333,7.78333333 L3.073,8.33 L4.458,6.91866667 C4.5868744,6.7872416 4.79788197,6.78515241 4.92933333,6.914 L4.92933333,6.914 Z M9.66666667,7.66666667 C9.85076159,7.66666667 10,7.81590509 10,8 L10,8.33333333 C10,8.42173883 9.96488106,8.50652347 9.90236893,8.56903559 C9.83985681,8.63154772 9.75507217,8.66666667 9.66666667,8.66666667 L6.33333333,8.66666667 C6.24492783,8.66666667 6.16014319,8.63154772 6.09763107,8.56903559 C6.03511894,8.50652347 6,8.42173883 6,8.33333333 L6,8 C6,7.81590509 6.14923841,7.66666667 6.33333333,7.66666667 L9.66666667,7.66666667 L9.66666667,7.66666667 Z M4.66666667,2.66666667 C4.85076159,2.66666667 5,2.81590509 5,3 L5,5.33333333 C5,5.42173883 4.96488106,5.50652347 4.90236893,5.56903559 C4.83985681,5.63154772 4.75507217,5.66666667 4.66666667,5.66666667 L2.33333333,5.66666667 C2.24492783,5.66666667 2.16014319,5.63154772 2.09763107,5.56903559 C2.03511894,5.50652347 2,5.42173883 2,5.33333333 L2,3 C2,2.81590509 2.14923841,2.66666667 2.33333333,2.66666667 L4.66666667,2.66666667 L4.66666667,2.66666667 Z M4.16666667,3.5 L2.83333333,3.5 L2.83333333,4.83333333 L4.16666667,4.83333333 L4.16666667,3.5 Z M9.66666667,3.33333333 C9.75507217,3.33333333 9.83985681,3.36845228 9.90236893,3.43096441 C9.96488106,3.49347653 10,3.57826117 10,3.66666667 L10,4 C10,4.0884055 9.96488105,4.17319013 9.90236893,4.23570226 C9.8398568,4.29821438 9.75507217,4.33333333 9.66666667,4.33333333 L6.33333333,4.33333333 C6.24492783,4.33333333 6.1601432,4.29821438 6.09763107,4.23570226 C6.03511895,4.17319013 6,4.0884055 6,4 L6,3.66666667 C6,3.57826117 6.03511894,3.49347653 6.09763107,3.43096441 C6.16014319,3.36845228 6.24492783,3.33333333 6.33333333,3.33333333 L9.66666667,3.33333333 L9.66666667,3.33333333 Z" id="形状"></path>
            </g>
        </g>
    </g>
</svg>