<?xml version="1.0" encoding="UTF-8"?>
<svg width="12px" height="10px" viewBox="0 0 12 10" version="1.1" xmlns="http://www.w3.org/2000/svg" xmlns:xlink="http://www.w3.org/1999/xlink">
    <title>认定管理</title>
    <g id="安徽工程造价评优" stroke="none" stroke-width="1" fill="none" fill-rule="evenodd">
        <g id="认定标准" transform="translate(-30.000000, -199.000000)" fill="" fill-rule="nonzero">
            <g id="认定管理" transform="translate(30.000000, 199.000000)">
                <path d="M8.02616298,8.6437247 C7.99299702,8.56950067 7.9200319,8.52901484 7.84043359,8.52901484 L6.41429719,8.52901484 L6.41429719,7.05128205 L5.37951916,7.05128205 L5.37951916,8.52901484 L3.95338276,8.52901484 C3.87378445,8.52901484 3.80081933,8.57624831 3.76765337,8.6437247 L3.45589332,9.69635628 C3.40282778,9.79757085 3.44262693,9.92577598 3.54875801,9.97975709 C3.57529078,9.99325236 3.60845675,10 3.64162271,10 L8.15219364,10 C8.26495791,10 8.35782261,9.90553306 8.35782261,9.79082321 C8.35782261,9.75708502 8.35118942,9.72334683 8.33792303,9.69635628 L8.02616298,8.6437247 Z M9.92988924,1.32253711 L9.92988924,0.762483131 L10.5268766,0.762483131 L10.5268766,0 L1.57206663,0 L1.57206663,0.762483131 L2.16905396,0.762483131 L2.16905396,1.31578947 L2.135888,1.31578947 C0.961812919,1.31578947 0.00663319255,2.04453441 0,2.94871795 C0,3.85290148 0.948546534,4.58164642 2.12262162,4.58839406 C2.20221993,4.58839406 2.28181824,4.58839406 2.35478335,4.58164642 C2.87880557,5.8097166 4.21207727,6.63967611 5.89027498,6.63967611 C7.5684727,6.63292848 9.20687126,5.8097166 9.73089347,4.58164642 L9.81712497,4.58164642 C10.9912001,4.60188934 11.9662794,3.88663968 11.9994453,2.98920378 C12.0259781,2.08502024 11.0973311,1.33603239 9.92325605,1.31578947 L9.92988924,1.32253711 Z M2.14252119,4.16329285 C1.48583513,4.16329285 0.948546534,3.62348178 0.948546534,2.94871795 C0.948546534,2.27395412 1.47920194,1.73414305 2.14252119,1.73414305 L2.16905396,1.73414305 L2.16905396,3.65721997 C2.16905396,3.82591093 2.18232035,3.98785425 2.20885312,4.15654521 C2.18232035,4.16329285 2.16242077,4.16329285 2.14252119,4.16329285 Z M5.14735742,4.56815115 L4.72946629,4.34547908 L4.31157516,4.56815115 L4.39117347,4.08906883 L4.05288065,3.75168691 L4.52383732,3.68421053 L4.72946629,3.25236167 L4.93509525,3.68421053 L5.40605193,3.75168691 L5.06775911,4.08906883 L5.14735742,4.56815115 Z M5.8703754,2.76653171 L5.13409103,3.15789474 L5.27338807,2.32793522 L4.67640075,1.74089069 L5.49891662,1.6194332 L5.8703754,0.856950067 L6.23520099,1.6194332 L7.05771687,1.74089069 L6.46072954,2.33468286 L6.60002658,3.17139001 L5.8703754,2.76653171 L5.8703754,2.76653171 Z M7.53530673,4.56815115 L7.1174156,4.34547908 L6.69952447,4.56815115 L6.77912278,4.08906883 L6.44082996,3.75168691 L6.91178663,3.68421053 L7.1174156,3.25236167 L7.32304457,3.68421053 L7.79400124,3.75168691 L7.45570842,4.08906883 L7.53530673,4.56815115 Z M9.8834569,4.16329285 C9.90998967,4.00134953 9.92988924,3.83265857 9.92988924,3.66396761 L9.92988924,1.74089069 C10.5865753,1.78812416 11.0840647,2.36167341 11.0376324,3.02968961 C10.9978332,3.65047233 10.5003438,4.14304993 9.8834569,4.16329285 L9.8834569,4.16329285 Z" id="形状"></path>
            </g>
        </g>
    </g>
</svg>